{
.appVersion = "3516";
.formatVersion = 3;
classes = (
{
automatic = 1;
code = "A Aacute Abreve Acircumflex Adieresis Agrave Amacron Aogonek Aring Atilde AE B C Ccedilla Cdotaccent D Eth E Eacute Ecircumflex Edieresis Edotaccent Egrave Emacron Eogonek Etilde Schwa F G Gbreve Gdotaccent Gmacron H Hbar I IJ Iacute Icircumflex Idieresis Idotaccent Igrave Imacron Itilde J Jacute K L Lslash M N Ntilde O Oacute Ocircumflex Odieresis Ograve Omacron Oslash Otilde OE P Thorn Q R Racute S Scaron Scedilla Scommaaccent Germandbls T Tcommaaccent U Uacute Ucircumflex Udieresis Ugrave Umacron Utilde V W Wacute Wcircumflex Wdieresis Wgrave X Y Yacute Ycircumflex Ydieresis Ygrave Ytilde Z Zcaron Zdotaccent Saltillo Lcommaaccent.loclMAH Ncommaaccent.loclMAH";
name = Uppercase;
}
);
customParameters = (
{
name = fsType;
value = (
2
);
},
{
disabled = 1;
name = glyphOrder;
value = (
);
},
{
name = "Use Typo Metrics";
value = 1;
}
);
date = "2026-04-14 15:31:22 +0000";
familyName = "Caacupe One";
featurePrefixes = (
{
automatic = 1;
code = "languagesystem DFLT dflt;

languagesystem latn dflt;
languagesystem latn AZE;
languagesystem latn CRT;
languagesystem latn KAZ;
languagesystem latn TAT;
languagesystem latn TRK;
languagesystem latn ROM;
languagesystem latn MOL;
languagesystem latn NLD;
";
name = Languagesystems;
}
);
features = (
{
automatic = 1;
code = "feature locl;
feature subs;
feature sinf;
feature sups;
feature numr;
feature dnom;
feature frac;
feature ordn;
feature case;
feature ss01;
";
tag = aalt;
},
{
automatic = 1;
code = "lookup ccmp_DFLT_1 {
	@CombiningTopAccents = [acutecomb brevecomb circumflexcomb dieresiscomb dotaccentcomb gravecomb macroncomb ringcomb tildecomb];
	lookupflag UseMarkFilteringSet @CombiningTopAccents;
	sub i' @CombiningTopAccents by idotless;
	sub j' @CombiningTopAccents by jdotless;
} ccmp_DFLT_1;

lookup ccmp_Other_1 {
	lookupflag 0;
	@Markscomb = [dieresis grave acute hungarumlaut circumflex caron breve ring tilde macron cedilla ogonek];

glyphs = (
{
color = 4;
glyphname = A;
lastChange = "2026-04-22 21:15:48 +0000";
layers = (
{
anchors = (
{
name = bottomcase;
pos = (193,0);
},
{
name = ogonekcase;
pos = (327,0);
},
{
name = topcase;
pos = (202,610);
}
);
layerId = m01;
shapes = (
{
closed = 1;
nodes = (
(128,0,l),
(140,109,l),
(246,109,l),
(258,0,l),
(384,0,l),
(297,620,l),
(284,627,o),
(234,630,o),
(193,630,cs),
(151,630,o),
(102,627,o),
(89,620,c),
(2,0,l)
);
},
{
closed = 1;
nodes = (
(182,472,l),
(203,472,l),
(234,212,l),
(151,212,l)
);
}
);
userData = {
com.hugojourdan.ColorFlow = {
"0" = 0;
"1" = 0;
"10" = 0;
"11" = 0;
"2" = 0;
"3" = 0;
"4" = 0;
"5" = 0;
"6" = 0;
"7" = 0;
"8" = 0;
"9" = 0;
};
};
width = 386;
}
);
metricLeft = "=H-31";
metricRight = "=H-31";
note = A;
unicode = 65;
},
{
color = 4;
glyphname = Acircumflex;
lastChange = "2026-04-22 21:16:18 +0000";
layers = (
{
background = {
shapes = (
{
closed = 1;
nodes = (
(107,787,ls),
(87,776,o),
(80,760,o),
(80,744,cs),
(80,719,o),
(95,692,o),
(111,676,c),
(194,739,l),
(278,676,l),
(295,695,o),
(309,720,o),
(309,746,cs),
(309,762,o),
(302,777,o),
(283,787,cs),
(195,835,l)
);
}
);
};
layerId = m01;
shapes = (
{
ref = A;
},
{
pos = (88,-10);
ref = circumflex.case;
}
);
userData = {
com.hugojourdan.ColorFlow = {
"0" = 0;
"1" = 0;
"10" = 0;
"11" = 0;
"2" = 0;
"3" = 0;
"4" = 0;
"5" = 0;
"6" = 0;
"7" = 0;
"8" = 0;
"9" = 0;
};
};
width = 386;
}
);
note = Acircumflex;
unicode = 194;
},
{
color = 4;
glyphname = Adieresis;
lastChange = "2026-04-22 21:16:18 +0000";
layers = (
{
background = {
shapes = (
{
closed = 1;
nodes = (
(80,801,o),
(55,780,o),
(55,747,cs),
(55,707,o),
(80,687,o),
(114,687,cs),
(147,687,o),
(174,707,o),
(174,747,cs),
(174,780,o),
(147,801,o),
(114,801,cs)
);
},
{
closed = 1;
nodes = (
(236,801,o),
(210,780,o),
(210,747,cs),
(210,707,o),
(236,687,o),
(269,687,cs),
(303,687,o),
(329,707,o),
(329,747,cs),
(329,780,o),
(303,801,o),
(269,801,cs)
);
}
);
};
layerId = m01;
shapes = (
{
ref = A;
},
{
pos = (65,-10);
ref = dieresis.case;
}
);
userData = {
com.hugojourdan.ColorFlow = {
"0" = 0;
"1" = 0;
"10" = 0;
"11" = 0;
"2" = 0;
"3" = 0;
"4" = 0;
"5" = 0;
"6" = 0;
"7" = 0;
"8" = 0;
"9" = 0;
};
};
width = 386;
}
);
note = Adieresis;
unicode = 196;
},
{
color = 4;
glyphname = Agrave;
lastChange = "2026-04-22 21:16:16 +0000";
layers = (
{
background = {
shapes = (
{
closed = 1;
nodes = (
(251,663,l),
(265,680,o),
(274,718,o),
(274,734,cs),
(274,738,l),
(125,820,l),
(125,820,o),
(106,790,o),
(106,756,cs),
(106,729,o),
(115,703,o),
(152,692,cs)
);
}
);
};
layerId = m01;
shapes = (
{
ref = A;
},
{
pos = (118,-10);
ref = grave.case;
}
);
userData = {
com.hugojourdan.ColorFlow = {
"0" = 0;
"1" = 0;
"10" = 0;
"11" = 0;
"2" = 0;
"3" = 0;
"4" = 0;
"5" = 0;
"6" = 0;
"7" = 0;
"8" = 0;
"9" = 0;
};
};
width = 386;
}
);
note = Agrave;
unicode = 192;
},
{
color = 4;
glyphname = Aogonek;
lastChange = "2026-04-14 15:25:22 +0000";
layers = (
{
background = {
shapes = (
{
closed = 1;
nodes = (
(332,-119,o),
(363,-109,o),
(385,-91,c),
(379,-71,o),
(373,-55,o),
(363,-41,c),
(356,-44,o),
(345,-48,o),
(336,-48,cs),
(327,-48,o),
(322,-40,o),
(322,-30,cs),
(322,-11,o),
(336,1,o),
(366,5,c),
(366,19,l),
(258,19,l),
(258,0,l),
(243,-13,o),
(229,-31,o),
(229,-53,cs),
(229,-100,o),
(264,-119,o),
(304,-119,cs)
);
}
);
};
layerId = m01;
shapes = (
{
ref = A;
},
{
pos = (247,-16);
ref = ogonek.case;
}
);
userData = {
com.hugojourdan.ColorFlow = {
"0" = 0;
"1" = 0;
"10" = 0;
"11" = 0;
"2" = 0;
"3" = 0;
"4" = 0;
"5" = 0;
"6" = 0;
"7" = 0;
"8" = 0;
"9" = 0;
};
};
width = 386;
}
);
note = Aogonek;
unicode = 260;
},
{
color = 4;
glyphname = Aring;
lastChange = "2026-04-22 21:16:18 +0000";
layers = (
{
background = {
shapes = (
{
closed = 1;
nodes = (
(257,667,o),
(274,702,o),
(274,745,cs),
(274,786,o),
(257,823,o),
(191,823,cs),
(125,823,o),
(109,787,o),
(109,745,cs),
(109,701,o),
(125,667,o),
(191,667,cs)
);
},
{
closed = 1;
nodes = (
(178,722,o),
(161,726,o),
(161,745,cs),
(161,764,o),
(178,768,o),
(191,768,cs),
(209,768,o),
(221,760,o),
(221,745,cs),
(221,729,o),
(209,722,o),
(191,722,cs)
);
}
);
};
layerId = m01;
shapes = (
{
ref = A;
},
{
pos = (119,-10);
ref = ring.case;
}
);
userData = {
com.hugojourdan.ColorFlow = {
"0" = 0;
"1" = 0;
"10" = 0;
"11" = 0;
"2" = 0;
"3" = 0;
"4" = 0;
"5" = 0;
"6" = 0;
"7" = 0;
"8" = 0;
"9" = 0;
};
};
width = 386;
}
);
note = Aring;
unicode = 197;
},
{
color = 4;
glyphname = Atilde;
lastChange = "2026-04-14 15:25:22 +0000";
layers = (
{
layerId = m01;
shapes = (
{
closed = 1;
nodes = (
(285,672,o),
(326,742,o),
(342,772,c),
(331,790,o),
(302,814,o),
(289,816,c),
(229,766,l),
(216,777,o),
(173,822,o),
(144,822,cs),
(98,822,o),
(57,752,o),
(41,722,c),
(52,704,o),
(81,680,o),
(94,678,c),
(154,728,l),
(167,717,o),
(210,672,o),
(239,672,cs)
);
},
{
ref = A;
}
);
userData = {
com.hugojourdan.ColorFlow = {
"0" = 0;
"1" = 0;
"10" = 0;
"11" = 0;
"2" = 0;
"3" = 0;
"4" = 0;
"5" = 0;
"6" = 0;
"7" = 0;
"8" = 0;
"9" = 0;
};
};
width = 386;
}
);
note = Atilde;
unicode = 195;
},
{
color = 4;
glyphname = AE;
lastChange = "2026-04-14 15:25:22 +0000";
layers = (
{
layerId = m01;
shapes = (
{
closed = 1;
nodes = (
(128,0,l),
(150,109,l),
(241,109,l),
(241,0,l),
(502,0,l),
(506,12,o),
(508,33,o),
(508,55,cs),
(508,76,o),
(506,98,o),
(503,112,c),
(361,110,l),
(361,228,l),
(397,229,o),
(432,230,o),
(468,230,c),
(473,243,o),
(475,262,o),
(475,279,cs),
(475,302,o),
(472,323,o),
(468,333,c),
(361,337,l),
(361,510,l),
(502,514,l),
(503,522,o),
(504,532,o),
(504,544,cs),
(504,573,o),
(500,609,o),
(493,626,c),
(397,625,o),
(213,627,o),
(142,620,c),
(2,0,l)
);
},
{
closed = 1;
nodes = (
(224,472,l),
(244,472,l),
(243,212,l),
(170,212,l)
);
}
);
userData = {
com.hugojourdan.ColorFlow = {
"0" = 0;
"1" = 0;
"10" = 0;
"11" = 0;
"2" = 0;
"3" = 0;
"4" = 0;
"5" = 0;
"6" = 0;
"7" = 0;
"8" = 0;
"9" = 0;
};
};
width = 527;
}
);
metricLeft = "=A";
metricRight = "=E";
note = AE;
unicode = 198;
},
{
color = 4;
glyphname = B;
lastChange = "2026-04-14 15:25:22 +0000";
layers = (
{
background = {
shapes = (
{
closed = 1;
nodes = (
(294,-10,o),
(364,59,o),
(364,169,cs),
(364,222,o),
(348,267,o),
(315,297,c),
(335,328,o),
(358,393,o),
(358,454,cs),
(358,561,o),
(321,630,o),
(197,630,cs),
(127,630,o),
(74,626,o),
(33,620,c),
(34,589,o),
(41,412,o),
(41,319,cs),
(41,263,o),
(38,38,o),
(37,20,c),
(78,-1,o),
(123,-10,o),
(178,-10,cs)
);
},
{
closed = 1;
nodes = (
(189,91,o),
(171,92,o),
(157,97,c),
(156,231,l),
(170,233,o),
(192,234,o),
(201,234,cs),
(232,234,o),
(244,194,o),
(244,163,cs),
(243,118,o),
(225,91,o),
(199,91,cs)
);
},
{
closed = 1;
nodes = (
(157,511,l),
(166,514,o),
(189,516,o),
(201,516,cs),
(227,516,o),
(244,494,o),
(244,435,cs),
(244,367,o),
(222,330,o),
(157,330,c)
);
}
);
};
layerId = m01;
shapes = (
{
closed = 1;
nodes = (
(294,-10,o),
(364,59,o),
(364,169,cs),
(364,222,o),
(348,267,o),
(315,297,c),
(335,328,o),
(358,377,o),
(358,470,cs),
(358,524,o),
(353,630,o),
(190,630,cs),
(127,630,o),
(74,626,o),
(33,620,c),
(34,589,o),
(41,412,o),
(41,319,cs),
(41,263,o),
(38,38,o),
(37,20,c),
(78,-1,o),
(123,-10,o),
(178,-10,cs)
);
},
{
closed = 1;
nodes = (
(187,91,o),
(174,92,o),
(157,97,c),
(157,231,l),
(171,233,o),
(192,234,o),
(201,234,cs),
(232,234,o),
(244,198,o),
(244,163,cs),
(244,118,o),
(225,91,o),
(199,91,cs)
);
},
{
closed = 1;
nodes = (
(157,511,l),
(166,514,o),
(189,516,o),
(201,516,cs),
(227,516,o),
(244,494,o),
(244,435,cs),
(244,367,o),
(222,330,o),
(157,330,c)
);
}
);
userData = {
com.hugojourdan.ColorFlow = {
"0" = 0;
"1" = 0;
"10" = 0;
"11" = 0;
"2" = 0;
"3" = 0;
"4" = 0;
"5" = 0;
"6" = 0;
"7" = 0;
"8" = 0;
"9" = 0;
};
};
width = 385;
}
);
metricLeft = "=H";
metricRight = "=H-12";
note = B;
unicode = 66;
},
{
color = 4;
glyphname = C;
lastChange = "2026-04-22 21:16:39 +0000";
layers = (
{
anchors = (
{
name = cedillacase;
pos = (203,0);
},
{
name = topcase;
pos = (219,620);
}
);
background = {
shapes = (
{
closed = 1;
nodes = (
(186,102,o),
(143,165,o),
(143,324,cs),
(143,457,o),
(181,510,o),
(235,510,cs),
(252,510,l),
(249,433,l),
(262,430,o),
(281,427,o),
(296,427,cs),
(345,427,o),
(362,446,o),
(362,494,cs),
(362,599,l),
(318,624,o),
(266,630,o),
(218,630,cs),
(115,630,o),
(23,579,o),
(23,307,cs),
(23,30,o),
(130,-10,o),
(227,-10,cs),
(266,-10,o),
(321,5,o),
(359,24,c),
(356,50,o),
(349,98,o),
(341,121,c),
(308,114,o),
(280,102,o),
(239,102,cs)
);
}
);
};
layerId = m01;
shapes = (
{
closed = 1;
nodes = (
(271,-10,o),
(321,5,o),
(359,24,c),
(356,50,o),
(349,98,o),
(341,121,c),
(311,113,o),
(280,102,o),
(239,102,cs),
(186,102,o),
(143,165,o),
(143,316,cs),
(143,457,o),
(181,510,o),
(235,510,cs),
(252,510,l),
(249,433,l),
(262,430,o),
(279,427,o),
(298,427,cs),
(345,427,o),
(362,446,o),
(362,494,cs),
(362,599,l),
(318,624,o),
(264,630,o),
(225,630,cs),
(113,630,o),
(23,579,o),
(23,314,cs),
(23,30,o),
(135,-10,o),
(219,-10,cs)
);
}
);
userData = {
com.hugojourdan.ColorFlow = {
"0" = 0;
"1" = 0;
"10" = 0;
"11" = 0;
"2" = 0;
"3" = 0;
"4" = 0;
"5" = 0;
"6" = 0;
"7" = 0;
"8" = 0;
"9" = 0;
};
};
width = 376;
}
);
metricLeft = "=H-10";
metricRight = "=H-19";
note = C;
unicode = 67;
},
{
color = 4;
glyphname = Ccedilla;
lastChange = "2026-04-14 15:25:22 +0000";
layers = (
{
background = {
shapes = (
{
closed = 1;
nodes = (
(155,-9,o),
(153,-18,o),
(153,-37,c),
(158,-36,o),
(162,-37,o),
(166,-37,cs),
(186,-39,o),
(194,-46,o),
(194,-60,cs),
(194,-70,o),
(184,-75,o),
(174,-75,cs),
(164,-75,o),
(153,-73,o),
(146,-71,c),
(137,-94,o),
(135,-106,o),
(135,-126,c),
(158,-134,o),
(186,-136,o),
(211,-136,cs),
(251,-136,o),
(281,-107,o),
(281,-68,cs),
(281,-41,o),
(266,-16,o),
(240,-14,c),
(241,0,l),
(276,2,o),
(315,11,o),
(353,26,c),
(351,50,o),
(340,102,o),
(334,121,c),
(302,114,o),
(274,110,o),
(233,110,cs),
(161,110,o),
(137,201,o),
(137,344,cs),
(137,463,o),
(174,510,o),
(229,510,cs),
(235,510,o),
(239,510,o),
(245,509,c),
(242,438,l),
(255,435,o),
(274,432,o),
(290,432,cs),
(338,432,o),
(355,451,o),
(355,499,cs),
(355,597,l),
(312,622,o),
(260,628,o),
(212,628,cs),
(112,628,o),
(22,585,o),
(17,350,cs),
(11,128,o),
(57,35,o),
(158,6,c)
);
}
);
};
layerId = m01;
shapes = (
{
ref = C;
},
{
pos = (119,0);
ref = cedilla.case;
}
);
userData = {
com.hugojourdan.ColorFlow = {
"0" = 0;
"1" = 0;
"10" = 0;
"11" = 0;
"2" = 0;
"3" = 0;
"4" = 0;
"5" = 0;
"6" = 0;
"7" = 0;
"8" = 0;
"9" = 0;
};
};
width = 376;
}
);
note = Ccedilla;
unicode = 199;
},
{
color = 4;
glyphname = D;
lastChange = "2026-04-14 15:25:22 +0000";
layers = (
{
background = {
shapes = (
{
closed = 1;
nodes = (
(155,511,l),
(155,511,o),
(175,516,o),
(194,516,cs),
(226,516,o),
(265,480,o),
(265,345,cs),
(265,204,o),
(242,102,o),
(193,102,cs),
(179,102,o),
(161,106,o),
(155,108,c)
);
},
{
closed = 1;
nodes = (
(347,-10,o),
(385,134,o),
(385,346,cs),
(385,560,o),
(314,630,o),
(184,630,cs),
(120,630,o),
(67,626,o),
(31,620,c),
(32,593,o),
(39,409,o),
(39,319,cs),
(39,263,o),
(38,81,o),
(36,20,c),
(76,-2,o),
(125,-10,o),
(179,-10,cs)
);
}
);
};
layerId = m01;
shapes = (
{
closed = 1;
nodes = (
(352,-10,o),
(385,154,o),
(385,326,cs),
(385,580,o),
(313,630,o),
(163,630,cs),
(119,630,o),
(67,626,o),
(31,620,c),
(32,593,o),
(39,409,o),
(39,319,cs),
(39,263,o),
(38,81,o),
(36,20,c),
(76,-2,o),
(130,-10,o),
(172,-10,cs)
);
},
{
closed = 1;
nodes = (
(179,102,o),
(166,104,o),
(155,108,c),
(155,511,l),
(166,514,o),
(178,516,o),
(191,516,cs),
(228,516,o),
(265,480,o),
(265,345,cs),
(265,204,o),
(242,102,o),
(193,102,cs)
);
}
);
userData = {
com.hugojourdan.ColorFlow = {
"0" = 0;
"1" = 0;
"10" = 0;
"11" = 0;
"2" = 0;
"3" = 0;
"4" = 0;
"5" = 0;
"6" = 0;
"7" = 0;
"8" = 0;
"9" = 0;
};
};
width = 407;
}
);
metricLeft = "=H-2";
metricRight = "=O+2";
note = D;
unicode = 68;
},
{
color = 4;
glyphname = Eth;
lastChange = "2026-04-14 15:25:22 +0000";
layers = (
{
background = {
shapes = (
{
closed = 0;
nodes = (
(156,372,l),
(156,511,l),
(156,511,o),
(176,516,o),
(195,516,cs),
(227,516,o),
(266,480,o),
(266,345,cs),
(266,204,o),
(243,102,o),
(194,102,cs),
(180,102,o),
(162,106,o),
(156,108,c),
(156,259,l)
);
},
{
closed = 0;
nodes = (
(40,258,l),
(39,166,o),
(37,20,o),
(37,20,c),
(77,-2,o),
(126,-10,o),
(180,-10,cs),
(348,-10,o),
(386,134,o),
(386,346,cs),
(386,560,o),
(315,630,o),
(185,630,cs),
(121,630,o),
(68,626,o),
(32,620,c),
(32,620,o),
(37,472,o),
(39,371,c)
);
}
);
};
layerId = m01;
shapes = (
{
closed = 1;
nodes = (
(204,258,l),
(209,269,o),
(211,290,o),
(211,309,cs),
(211,335,o),
(207,361,o),
(204,371,c),
(5,371,l),
(1,362,o),
(-2,338,o),
(-1,312,cs),
(-2,292,o),
(0,272,o),
(5,258,c)
);
},
{
ref = D;
}
);
userData = {
com.hugojourdan.ColorFlow = {
"0" = 0;
"1" = 0;
"10" = 0;
"11" = 0;
"2" = 0;
"3" = 0;
"4" = 0;
"5" = 0;
"6" = 0;
"7" = 0;
"8" = 0;
"9" = 0;
};
};
width = 407;
}
);
metricLeft = "=D-32";
metricRight = "=D";
note = Eth;
unicode = 208;
},
{
color = 4;
glyphname = E;
lastChange = "2026-04-22 21:16:52 +0000";
layers = (
{
anchors = (
{
name = bottomcase;
pos = (167,0);
},
{
name = ogonekcase;
pos = (250,7);
},
{
name = topcase;
pos = (167,620);
},
{
name = topleft;
pos = (19,620);
}
);
layerId = m01;
shapes = (
{
closed = 1;
nodes = (
(314,19,o),
(317,80,o),
(313,107,c),
(157,110,l),
(157,228,l),
(193,229,o),
(238,230,o),
(274,230,c),
(286,261,o),
(281,316,o),
(274,333,c),
(157,337,l),
(157,510,l),
(308,514,l),
(312,542,o),
(309,602,o),
(299,626,c),
(225,626,o),
(80,622,o),
(33,620,c),
(34,599,o),
(41,410,o),
(41,319,cs),
(41,223,o),
(37,58,o),
(35,0,c),
(105,-3,o),
(230,-5,o),
(304,-5,c)
);
}
);
userData = {
com.hugojourdan.ColorFlow = {
"0" = 0;
"1" = 0;
"10" = 0;
"11" = 0;
"2" = 0;
"3" = 0;
"4" = 0;
"5" = 0;
"6" = 0;
"7" = 0;
"8" = 0;
"9" = 0;
};
};
width = 334;
}
);
metricLeft = "=H";
metricRight = "=O-1";
note = E;
unicode = 69;
},
{
color = 4;
glyphname = Eacute;
lastChange = "2026-04-14 15:25:22 +0000";
layers = (
{
background = {
shapes = (
{
closed = 1;
nodes = (
(34,620,o),
(42,410,o),
(42,319,cs),
(42,222,o),
(36,1,o),
(36,1,c),
(38,1,o),
(231,-5,o),
(305,-5,c),
(315,19,o),
(318,80,o),
(314,107,c),
(158,110,l),
(158,228,l),
(194,229,o),
(239,230,o),
(275,230,c),
(287,261,o),
(282,316,o),
(275,333,c),
(158,337,l),
(158,510,l),
(309,514,l),
(313,542,o),
(310,602,o),
(300,626,c),
(226,626,o),
(34,620,o),
(34,620,c)
);
},
{
closed = 1;
nodes = (
(220,692,ls),
(257,703,o),
(265,730,o),
(265,758,cs),
(265,791,o),
(246,820,o),
(246,820,c),
(97,738,l),
(97,724,o),
(104,682,o),
(120,663,c)
);
}
);
};
layerId = m01;
shapes = (
{
ref = E;
},
{
pos = (84,0);
ref = acute.case;
}
);
userData = {
com.hugojourdan.ColorFlow = {
"0" = 0;
"1" = 0;
"10" = 0;
"11" = 0;
"2" = 0;
"3" = 0;
"4" = 0;
"5" = 0;
"6" = 0;
"7" = 0;
"8" = 0;
"9" = 0;
};
};
width = 334;
}
);
note = Eacute;
unicode = 201;
},
{
color = 4;
glyphname = Ecircumflex;
lastChange = "2026-04-14 15:25:22 +0000";
layers = (
{
background = {
shapes = (
{
closed = 1;
nodes = (
(34,620,o),
(42,410,o),
(42,319,cs),
(42,222,o),
(36,1,o),
(36,1,c),
(38,1,o),
(231,-5,o),
(305,-5,c),
(315,19,o),
(318,80,o),
(314,107,c),
(158,110,l),
(158,228,l),
(194,229,o),
(239,230,o),
(275,230,c),
(287,261,o),
(282,316,o),
(275,333,c),
(158,337,l),
(158,510,l),
(309,514,l),
(313,542,o),
(310,602,o),
(300,626,c),
(226,626,o),
(34,620,o),
(34,620,c)
);
},
{
closed = 1;
nodes = (
(77,787,ls),
(57,776,o),
(50,760,o),
(50,744,cs),
(50,719,o),
(65,692,o),
(81,676,c),
(164,739,l),
(248,676,l),
(265,695,o),
(279,720,o),
(279,746,cs),
(279,762,o),
(272,777,o),
(253,787,cs),
(165,835,l)
);
}
);
};
layerId = m01;
shapes = (
{
ref = E;
},
{
pos = (53,0);
ref = circumflex.case;
}
);
userData = {
com.hugojourdan.ColorFlow = {
"0" = 0;
"1" = 0;
"10" = 0;
"11" = 0;
"2" = 0;
"3" = 0;
"4" = 0;
"5" = 0;
"6" = 0;
"7" = 0;
"8" = 0;
"9" = 0;
};
};
width = 334;
}
);
note = Ecircumflex;
unicode = 202;
},
{
color = 4;
glyphname = Edieresis;
lastChange = "2026-04-14 15:25:22 +0000";
layers = (
{
background = {
shapes = (
{
closed = 1;
nodes = (
(34,620,o),
(42,410,o),
(42,319,cs),
(42,222,o),
(36,1,o),
(36,1,c),
(38,1,o),
(231,-5,o),
(305,-5,c),
(315,19,o),
(318,80,o),
(314,107,c),
(158,110,l),
(158,228,l),
(194,229,o),
(239,230,o),
(275,230,c),
(287,261,o),
(282,316,o),
(275,333,c),
(158,337,l),
(158,510,l),
(309,514,l),
(313,542,o),
(310,602,o),
(300,626,c),
(226,626,o),
(34,620,o),
(34,620,c)
);
},
{
closed = 1;
nodes = (
(65,801,o),
(40,780,o),
(40,747,cs),
(40,707,o),
(65,687,o),
(99,687,cs),
(132,687,o),
(159,707,o),
(159,747,cs),
(159,780,o),
(132,801,o),
(99,801,cs)
);
},
{
closed = 1;
nodes = (
(221,801,o),
(195,780,o),
(195,747,cs),
(195,707,o),
(221,687,o),
(254,687,cs),
(288,687,o),
(314,707,o),
(314,747,cs),
(314,780,o),
(288,801,o),
(254,801,cs)
);
}
);
};
layerId = m01;
shapes = (
{
ref = E;
},
{
pos = (30,0);
ref = dieresis.case;
}
);
userData = {
com.hugojourdan.ColorFlow = {
"0" = 0;
"1" = 0;
"10" = 0;
"11" = 0;
"2" = 0;
"3" = 0;
"4" = 0;
"5" = 0;
"6" = 0;
"7" = 0;
"8" = 0;
"9" = 0;
};
};
width = 334;
}
);
note = Edieresis;
unicode = 203;
},
{
color = 4;
glyphname = Egrave;
lastChange = "2026-04-22 21:16:18 +0000";
layers = (
{
background = {
shapes = (
{
closed = 1;
nodes = (
(34,620,o),
(42,410,o),
(42,319,cs),
(42,222,o),
(36,1,o),
(36,1,c),
(38,1,o),
(231,-5,o),
(305,-5,c),
(315,19,o),
(318,80,o),
(314,107,c),
(158,110,l),
(158,228,l),
(194,229,o),
(239,230,o),
(275,230,c),
(287,261,o),
(282,316,o),
(275,333,c),
(158,337,l),
(158,510,l),
(309,514,l),
(313,542,o),
(310,602,o),
(300,626,c),
(226,626,o),
(34,620,o),
(34,620,c)
);
},
{
closed = 1;
nodes = (
(226,663,l),
(240,680,o),
(249,718,o),
(249,734,cs),
(249,738,l),
(100,820,l),
(100,820,o),
(81,790,o),
(81,756,cs),
(81,729,o),
(90,703,o),
(127,692,cs)
);
}
);
};
layerId = m01;
shapes = (
{
ref = E;
},
{
pos = (83,0);
ref = grave.case;
}
);
userData = {
com.hugojourdan.ColorFlow = {
"0" = 0;
"1" = 0;
"10" = 0;
"11" = 0;
"2" = 0;
"3" = 0;
"4" = 0;
"5" = 0;
"6" = 0;
"7" = 0;
"8" = 0;
"9" = 0;
};
};
width = 334;
}
);
note = Egrave;
unicode = 200;
},
{
color = 4;
glyphname = Eogonek;
lastChange = "2026-04-22 21:17:15 +0000";
layers = (
{
background = {
shapes = (
{
closed = 1;
nodes = (
(34,620,o),
(42,410,o),
(42,319,cs),
(42,222,o),
(36,1,o),
(36,1,c),
(37,1,o),
(114,0,o),
(190,0,c),
(169,-13,o),
(157,-33,o),
(157,-58,cs),
(157,-101,o),
(192,-119,o),
(232,-119,cs),
(260,-119,o),
(291,-109,o),
(313,-91,c),
(307,-71,o),
(301,-55,o),
(291,-41,c),
(284,-44,o),
(273,-48,o),
(264,-48,cs),
(255,-48,o),
(250,-40,o),
(250,-30,cs),
(250,-10,o),
(262,-1,o),
(294,0,cs),
(306,0,l),
(316,24,o),
(318,80,o),
(314,107,c),
(158,110,l),
(158,228,l),
(194,229,o),
(239,230,o),
(275,230,c),
(287,261,o),
(282,316,o),
(275,333,c),
(158,337,l),
(158,510,l),
(309,514,l),
(313,542,o),
(310,602,o),
(300,626,c),
(226,626,o),
(34,620,o),
(34,620,c)
);
}
);
};
layerId = m01;
shapes = (
{
ref = E;
},
{
pos = (170,-9);
ref = ogonek.case;
}
);
userData = {
com.hugojourdan.ColorFlow = {
"0" = 0;
"1" = 0;
"10" = 0;
"11" = 0;
"2" = 0;
"3" = 0;
"4" = 0;
"5" = 0;
"6" = 0;
"7" = 0;
"8" = 0;
"9" = 0;
};
};
width = 334;
}
);
note = Eogonek;
unicode = 280;
},
{
color = 4;
glyphname = Etilde;
lastChange = "2026-04-14 15:25:22 +0000";
layers = (
{
background = {
shapes = (
{
closed = 1;
nodes = (
(34,620,o),
(42,410,o),
(42,319,cs),
(42,222,o),
(36,1,o),
(36,1,c),
(38,1,o),
(231,-5,o),
(305,-5,c),
(315,19,o),
(318,80,o),
(314,107,c),
(158,110,l),
(158,228,l),
(194,229,o),
(239,230,o),
(275,230,c),
(287,261,o),
(282,316,o),
(275,333,c),
(158,337,l),
(158,510,l),
(309,514,l),
(313,542,o),
(310,602,o),
(300,626,c),
(226,626,o),
(34,620,o),
(34,620,c)
);
},
{
closed = 1;
nodes = (
(139,728,l),
(152,717,o),
(195,672,o),
(224,672,cs),
(270,672,o),
(311,742,o),
(327,772,c),
(316,790,o),
(287,814,o),
(274,816,c),
(214,766,l),
(201,777,o),
(158,822,o),
(129,822,cs),
(83,822,o),
(42,752,o),
(26,722,c),
(37,704,o),
(66,680,o),
(79,678,c)
);
}
);
};
layerId = m01;
shapes = (
{
ref = E;
},
{
pos = (16,0);
ref = tilde.case;
}
);
userData = {
com.hugojourdan.ColorFlow = {
"0" = 0;
"1" = 0;
"10" = 0;
"11" = 0;
"2" = 0;
"3" = 0;
"4" = 0;
"5" = 0;
"6" = 0;
"7" = 0;
"8" = 0;
"9" = 0;
};
};
width = 334;
}
);
note = E.tilde;
unicode = 7868;
},
{
color = 3;
glyphname = Schwa;
lastChange = "2026-04-17 23:53:39 +0000";
layers = (
{
layerId = m01;
shapes = (
{
closed = 1;
nodes = (
(118,630,o),
(69,613,o),
(32,594,c),
(34,575,o),
(41,531,o),
(49,505,c),
(88,517,o),
(125,525,o),
(161,525,cs),
(240,525,o),
(278,488,o),
(278,390,c),
(189,388,o),
(115,386,o),
(31,375,c),
(23,320,o),
(18,280,o),
(18,215,cs),
(18,42,o),
(81,-10,o),
(180,-10,cs),
(302,-10,o),
(415,76,o),
(415,298,cs),
(415,561,o),
(324,630,o),
(190,630,cs)
);
},
{
closed = 1;
nodes = (
(285,283,o),
(285,274,o),
(285,268,cs),
(285,139,o),
(260,115,o),
(199,115,cs),
(145,115,o),
(139,151,o),
(139,292,c),
(180,294,o),
(235,297,o),
(283,295,c)
);
}
);
userData = {
com.hugojourdan.ColorFlow = {
"0" = 0;
"1" = 0;
"10" = 0;
"11" = 0;
"2" = 0;
"3" = 0;
"4" = 0;
"5" = 0;
"6" = 0;
"7" = 0;
"8" = 0;
"9" = 0;
};
};
width = 433;
}
);
unicode = 399;
},
{
color = 4;
glyphname = F;
lastChange = "2026-04-14 15:25:22 +0000";
layers = (
{
layerId = m01;
shapes = (
{
closed = 1;
nodes = (
(157,0,l),
(157,228,l),
(194,229,o),
(239,230,o),
(276,230,c),
(288,261,o),
(281,316,o),
(274,333,c),
(157,337,l),
(157,510,l),
(308,514,l),
(312,542,o),
(309,601,o),
(299,625,c),
(228,625,o),
(78,621,o),
(33,620,c),
(35,580,o),
(41,408,o),
(41,319,cs),
(41,226,o),
(38,79,o),
(35,0,c)
);
}
);
userData = {
com.hugojourdan.ColorFlow = {
"0" = 0;
"1" = 0;
"10" = 0;
"11" = 0;
"2" = 0;
"3" = 0;
"4" = 0;
"5" = 0;
"6" = 0;
"7" = 0;
"8" = 0;
"9" = 0;
};
};
width = 329;
}
);
metricLeft = "=H";
metricRight = "=E";
note = F;
unicode = 70;
},
{
color = 4;
glyphname = G;
lastChange = "2026-04-22 21:22:11 +0000";
layers = (
{
anchors = (
{
name = bottomcase;
pos = (235,0);
},
{
name = topcase;
pos = (235,620);
}
);
background = {
shapes = (
{
closed = 1;
nodes = (
(229,325,l),
(226,315,o),
(222,292,o),
(222,268,cs),
(222,255,o),
(223,242,o),
(227,230,c),
(267,230,l),
(267,198,ls),
(267,166,o),
(265,134,o),
(261,105,c),
(255,104,o),
(249,104,o),
(243,104,cs),
(190,104,o),
(153,141,o),
(153,320,cs),
(153,456,o),
(190,504,o),
(249,504,cs),
(278,504,o),
(309,499,o),
(338,492,c),
(349,522,o),
(359,569,o),
(362,605,c),
(329,620,o),
(281,630,o),
(229,630,cs),
(118,630,o),
(33,579,o),
(33,307,cs),
(33,30,o),
(140,-10,o),
(237,-10,cs),
(289,-10,o),
(341,5,o),
(380,25,c),
(380,331,l)
);
}
);
};
layerId = m01;
shapes = (
{
closed = 1;
nodes = (
(291,-10,o),
(341,5,o),
(380,25,c),
(380,331,l),
(229,325,l),
(226,315,o),
(222,294,o),
(222,269,cs),
(222,257,o),
(223,242,o),
(227,230,c),
(267,230,l),
(267,198,ls),
(267,166,o),
(265,134,o),
(261,105,c),
(256,104,o),
(247,104,o),
(242,104,cs),
(192,104,o),
(153,141,o),
(153,320,cs),
(153,442,o),
(179,504,o),
(258,504,cs),
(281,504,o),
(311,500,o),
(338,492,c),
(349,522,o),
(359,569,o),
(362,605,c),
(329,620,o),
(281,630,o),
(229,630,cs),
(118,630,o),
(33,579,o),
(33,310,cs),
(33,30,o),
(142,-10,o),
(234,-10,cs)
);
}
);
userData = {
com.hugojourdan.ColorFlow = {
"0" = 0;
"1" = 0;
"10" = 0;
"11" = 0;
"2" = 0;
"3" = 0;
"4" = 0;
"5" = 0;
"6" = 0;
"7" = 0;
"8" = 0;
"9" = 0;
};
};
width = 410;
}
);
metricLeft = "=H";
metricRight = "=H-3";
note = G;
unicode = 71;
},
{
color = 4;
glyphname = H;
lastChange = "2026-04-14 15:25:22 +0000";
layers = (
{
layerId = m01;
shapes = (
{
closed = 1;
nodes = (
(161,0,l),
(160,61,o),
(158,133,o),
(157,228,c),
(267,228,l),
(266,129,o),
(264,47,o),
(262,0,c),
(389,0,l),
(389,48,o),
(385,259,o),
(385,321,cs),
(385,390,o),
(386,549,o),
(389,620,c),
(260,620,l),
(263,552,o),
(267,435,o),
(268,340,c),
(157,340,l),
(157,424,o),
(160,547,o),
(161,620,c),
(33,620,l),
(36,541,o),
(41,407,o),
(41,319,cs),
(41,224,o),
(37,62,o),
(35,0,c)
);
}
);
userData = {
com.hugojourdan.ColorFlow = {
"0" = 0;
"1" = 0;
"10" = 0;
"11" = 0;
"2" = 0;
"3" = 0;
"4" = 0;
"5" = 0;
"6" = 0;
"7" = 0;
"8" = 0;
"9" = 0;
};
};
width = 422;
}
);
note = H;
unicode = 72;
},
{
color = 3;
glyphname = Hbar;
lastChange = "2026-04-17 23:53:39 +0000";
layers = (
{
layerId = m01;
shapes = (
{
ref = H;
},
{
closed = 1;
nodes = (
(442,411,l),
(447,422,o),
(449,438,o),
(449,453,cs),
(449,474,o),
(445,496,o),
(442,504,c),
(-12,504,l),
(-16,496,o),
(-19,476,o),
(-19,455,cs),
(-19,439,o),
(-17,423,o),
(-12,411,c)
);
}
);
userData = {
com.hugojourdan.ColorFlow = {
"0" = 0;
"1" = 0;
"10" = 0;
"11" = 0;
"2" = 0;
"3" = 0;
"4" = 0;
"5" = 0;
"6" = 0;
"7" = 0;
"8" = 0;
"9" = 0;
};
};
width = 422;
}
);
unicode = 294;
},
{
color = 4;
glyphname = I;
lastChange = "2026-04-22 21:17:33 +0000";
layers = (
{
anchors = (
{
name = bottomcase;
pos = (147,0);
},
{
name = ogonekcase;
pos = (148,10);
},
{
name = topcase;
pos = (147,620);
}
);
layerId = m01;
shapes = (
{
closed = 1;
nodes = (
(261,0,l),
(273,32,o),
(267,92,o),
(261,109,c),
(208,109,l),
(207,187,o),
(206,285,o),
(206,321,cs),
(206,360,o),
(207,443,o),
(208,511,c),
(261,511,l),
(273,543,o),
(267,603,o),
(261,620,c),
(33,620,l),
(26,603,o),
(21,543,o),
(33,511,c),
(86,511,l),
(88,446,o),
(90,366,o),
(90,319,cs),
(90,267,o),
(88,179,o),
(87,109,c),
(33,109,l),
(26,92,o),
(21,32,o),
(33,0,c)
);
}
);
userData = {
com.hugojourdan.ColorFlow = {
"0" = 0;
"1" = 0;
"10" = 0;
"11" = 0;
"2" = 0;
"3" = 0;
"4" = 0;
"5" = 0;
"6" = 0;
"7" = 0;
"8" = 0;
"9" = 0;
};
};
width = 294;
}
);
metricLeft = "=H-7";
metricRight = "=H-7";
note = I;
unicode = 73;
},
{
color = 4;
glyphname = Iacute;
lastChange = "2026-04-14 15:25:22 +0000";
layers = (
{
background = {
shapes = (
{
closed = 1;
nodes = (
(192,692,ls),
(229,703,o),
(237,730,o),
(237,758,cs),
(237,791,o),
(218,820,o),
(218,820,c),
(69,738,l),
(69,724,o),
(76,682,o),
(92,663,c)
);
}
);
};
layerId = m01;
shapes = (
{
ref = I;
},
{
pos = (64,0);
ref = acute.case;
}
);
userData = {
com.hugojourdan.ColorFlow = {
"0" = 0;
"1" = 0;
"10" = 0;
"11" = 0;
"2" = 0;
"3" = 0;
"4" = 0;
"5" = 0;
"6" = 0;
"7" = 0;
"8" = 0;
"9" = 0;
};
};
width = 294;
}
);
note = Iacute;
unicode = 205;
},
{
color = 4;
glyphname = Icircumflex;
lastChange = "2026-04-14 15:25:22 +0000";
layers = (
{
background = {
shapes = (
{
closed = 1;
nodes = (
(60,787,ls),
(40,776,o),
(33,760,o),
(33,744,cs),
(33,719,o),
(48,692,o),
(64,676,c),
(147,739,l),
(231,676,l),
(248,695,o),
(262,720,o),
(262,746,cs),
(262,762,o),
(255,777,o),
(236,787,cs),
(148,835,l)
);
}
);
};
layerId = m01;
shapes = (
{
ref = I;
},
{
pos = (33,0);
ref = circumflex.case;
}
);
userData = {
com.hugojourdan.ColorFlow = {
"0" = 0;
"1" = 0;
"10" = 0;
"11" = 0;
"2" = 0;
"3" = 0;
"4" = 0;
"5" = 0;
"6" = 0;
"7" = 0;
"8" = 0;
"9" = 0;
};
};
width = 294;
}
);
note = Icircumflex;
unicode = 206;
},
{
color = 4;
glyphname = Idieresis;
lastChange = "2026-04-14 15:25:22 +0000";
layers = (
{
background = {
shapes = (
{
closed = 1;
nodes = (
(35,801,o),
(10,780,o),
(10,747,cs),
(10,707,o),
(35,687,o),
(69,687,cs),
(102,687,o),
(129,707,o),
(129,747,cs),
(129,780,o),
(102,801,o),
(69,801,cs)
);
},
{
closed = 1;
nodes = (
(191,801,o),
(165,780,o),
(165,747,cs),
(165,707,o),
(191,687,o),
(224,687,cs),
(258,687,o),
(284,707,o),
(284,747,cs),
(284,780,o),
(258,801,o),
(224,801,cs)
);
}
);
};
layerId = m01;
shapes = (
{
ref = I;
},
{
pos = (10,0);
ref = dieresis.case;
}
);
userData = {
com.hugojourdan.ColorFlow = {
"0" = 0;
"1" = 0;
"10" = 0;
"11" = 0;
"2" = 0;
"3" = 0;
"4" = 0;
"5" = 0;
"6" = 0;
"7" = 0;
"8" = 0;
"9" = 0;
};
};
width = 294;
}
);
note = Idieresis;
unicode = 207;
},
{
color = 4;
glyphname = Igrave;
lastChange = "2026-04-22 21:16:18 +0000";
layers = (
{
background = {
shapes = (
{
closed = 1;
nodes = (
(206,663,l),
(220,680,o),
(229,718,o),
(229,734,cs),
(229,738,l),
(80,820,l),
(80,820,o),
(61,790,o),
(61,756,cs),
(61,729,o),
(70,703,o),
(107,692,cs)
);
}
);
};
layerId = m01;
shapes = (
{
ref = I;
},
{
pos = (63,0);
ref = grave.case;
}
);
userData = {
com.hugojourdan.ColorFlow = {
"0" = 0;
"1" = 0;
"10" = 0;
"11" = 0;
"2" = 0;
"3" = 0;
"4" = 0;
"5" = 0;
"6" = 0;
"7" = 0;
"8" = 0;
"9" = 0;
};
};
width = 294;
}
);
note = Igrave;
unicode = 204;
},
{
color = 4;
glyphname = J;
lastChange = "2026-04-14 15:25:22 +0000";
layers = (
{
anchors = (
{
name = bottom;
pos = (126,0);
},
{
name = top;
pos = (126,620);
}
);
layerId = m01;
shapes = (
{
closed = 1;
nodes = (
(161,-10,o),
(214,38,o),
(214,148,cs),
(214,321,ls),
(214,393,o),
(218,537,o),
(218,620,c),
(36,620,l),
(32,610,o),
(29,585,o),
(29,561,cs),
(29,542,o),
(31,523,o),
(36,510,c),
(94,507,l),
(96,442,o),
(98,366,o),
(98,319,cs),
(98,150,ls),
(98,93,o),
(60,87,o),
(32,86,c),
(31,74,o),
(31,66,o),
(31,57,cs),
(31,33,o),
(35,14,o),
(39,-2,c),
(63,-8,o),
(80,-10,o),
(94,-10,cs)
);
}
);
userData = {
com.hugojourdan.ColorFlow = {
"0" = 0;
"1" = 0;
"10" = 0;
"11" = 0;
"2" = 0;
"3" = 0;
"4" = 0;
"5" = 0;
"6" = 0;
"7" = 0;
"8" = 0;
"9" = 0;
};
};
width = 251;
}
);
metricLeft = "=H-4";
metricRight = "=H";
note = J;
unicode = 74;
},
{
color = 4;
glyphname = K;
lastChange = "2026-04-14 15:25:22 +0000";
layers = (
{
layerId = m01;
shapes = (
{
closed = 1;
nodes = (
(349,-10,o),
(377,10,o),
(385,17,c),
(287,240,l),
(344,313,o),
(366,446,o),
(369,620,c),
(347,625,o),
(324,626,o),
(307,626,cs),
(274,626,o),
(257,622,o),
(245,620,c),
(239,526,o),
(235,288,o),
(158,288,cs),
(157,288,l),
(157,385,o),
(160,564,o),
(161,620,c),
(33,620,l),
(35,571,o),
(41,409,o),
(41,319,cs),
(41,223,o),
(36,35,o),
(35,0,c),
(161,0,l),
(160,42,o),
(159,91,o),
(158,176,c),
(167,176,o),
(176,177,o),
(184,178,c),
(229,51,ls),
(246,3,o),
(276,-10,o),
(309,-10,cs)
);
}
);
userData = {
com.hugojourdan.ColorFlow = {
"0" = 0;
"1" = 0;
"10" = 0;
"11" = 0;
"2" = 0;
"3" = 0;
"4" = 0;
"5" = 0;
"6" = 0;
"7" = 0;
"8" = 0;
"9" = 0;
};
};
width = 387;
}
);
metricLeft = "=H";
metricRight = "=H-31";
note = K;
unicode = 75;
},
{
color = 4;
glyphname = L;
lastChange = "2026-04-14 15:25:22 +0000";
layers = (
{
layerId = m01;
shapes = (
{
closed = 1;
nodes = (
(315,19,o),
(317,80,o),
(313,107,c),
(159,110,l),
(158,188,o),
(157,285,o),
(157,321,cs),
(157,393,o),
(160,572,o),
(161,620,c),
(33,620,l),
(35,562,o),
(41,408,o),
(41,319,cs),
(41,223,o),
(37,33,o),
(35,0,c),
(69,-1,o),
(231,-4,o),
(305,-5,c)
);
}
);
userData = {
com.hugojourdan.ColorFlow = {
"0" = 0;
"1" = 0;
"10" = 0;
"11" = 0;
"2" = 0;
"3" = 0;
"4" = 0;
"5" = 0;
"6" = 0;
"7" = 0;
"8" = 0;
"9" = 0;
};
};
width = 316;
}
);
metricLeft = "=H";
metricRight = "=H-32";
note = L;
unicode = 76;
},
{
color = 4;
glyphname = Lslash;
lastChange = "2026-04-14 15:25:22 +0000";
layers = (
{
layerId = m01;
shapes = (
{
closed = 1;
nodes = (
(144,244,o),
(245,280,o),
(358,316,c),
(359,330,o),
(354,349,o),
(347,367,cs),
(337,394,o),
(326,414,o),
(319,423,c),
(208,378,o),
(118,348,o),
(6,313,c),
(5,303,o),
(11,279,o),
(19,257,cs),
(26,236,o),
(35,218,o),
(45,206,c)
);
},
{
pos = (80,0);
ref = L;
}
);
userData = {
com.hugojourdan.ColorFlow = {
"0" = 0;
"1" = 0;
"10" = 0;
"11" = 0;
"2" = 0;
"3" = 0;
"4" = 0;
"5" = 0;
"6" = 0;
"7" = 0;
"8" = 0;
"9" = 0;
};
};
width = 396;
}
);
metricRight = L;
note = Lslash;
unicode = 321;
},
{
color = 4;
glyphname = M;
lastChange = "2026-04-14 15:25:22 +0000";
layers = (
{
layerId = m01;
shapes = (
{
closed = 1;
nodes = (
(141,0,l),
(142,33,o),
(150,275,o),
(150,377,c),
(160,377,l),
(239,38,l),
(247,37,o),
(257,36,o),
(271,36,cs),
(285,36,o),
(296,37,o),
(305,38,c),
(385,377,l),
(395,377,l),
(395,274,o),
(403,58,o),
(403,0,c),
(525,0,l),
(521,206,o),
(501,545,o),
(496,618,c),
(460,621,o),
(390,625,o),
(340,625,c),
(276,282,l),
(268,282,l),
(204,625,l),
(154,625,o),
(88,620,o),
(48,617,c),
(42,538,o),
(23,206,o),
(19,0,c)
);
}
);
userData = {
com.hugojourdan.ColorFlow = {
"0" = 0;
"1" = 0;
"10" = 0;
"11" = 0;
"2" = 0;
"3" = 0;
"4" = 0;
"5" = 0;
"6" = 0;
"7" = 0;
"8" = 0;
"9" = 0;
};
};
width = 541;
}
);
metricLeft = "=H-14";
metricRight = "=H-17";
note = M;
unicode = 77;
},
{
color = 4;
glyphname = N;
lastChange = "2026-04-22 21:17:43 +0000";
layers = (
{
anchors = (
{
name = bottomcase;
pos = (220,0);
},
{
name = topcase;
pos = (230,620);
}
);
layerId = m01;
shapes = (
{
closed = 1;
nodes = (
(151,0,l),
(147,77,o),
(142,249,o),
(142,358,c),
(150,358,l),
(262,0,l),
(413,0,l),
(413,620,l),
(376,626,o),
(331,628,o),
(286,620,c),
(287,599,o),
(299,299,o),
(300,216,c),
(292,216,l),
(183,624,l),
(151,624,ls),
(114,624,o),
(81,623,o),
(45,620,c),
(42,498,o),
(35,208,o),
(33,0,c)
);
}
);
userData = {
com.hugojourdan.ColorFlow = {
"0" = 0;
"1" = 0;
"10" = 0;
"11" = 0;
"2" = 0;
"3" = 0;
"4" = 0;
"5" = 0;
"6" = 0;
"7" = 0;
"8" = 0;
"9" = 0;
};
};
width = 439;
}
);
metricLeft = "=H";
metricRight = "=H-7";
note = N;
unicode = 78;
},
{
color = 4;
glyphname = Ntilde;
lastChange = "2026-04-14 15:25:22 +0000";
layers = (
{
background = {
shapes = (
{
closed = 1;
nodes = (
(189,728,l),
(202,717,o),
(245,672,o),
(274,672,cs),
(320,672,o),
(361,742,o),
(377,772,c),
(366,790,o),
(337,814,o),
(324,816,c),
(264,766,l),
(251,777,o),
(208,822,o),
(179,822,cs),
(133,822,o),
(92,752,o),
(76,722,c),
(87,704,o),
(116,680,o),
(129,678,c)
);
}
);
};
layerId = m01;
shapes = (
{
ref = N;
},
{
pos = (79,0);
ref = tilde.case;
}
);
userData = {
com.hugojourdan.ColorFlow = {
"0" = 0;
"1" = 0;
"10" = 0;
"11" = 0;
"2" = 0;
"3" = 0;
"4" = 0;
"5" = 0;
"6" = 0;
"7" = 0;
"8" = 0;
"9" = 0;
};
};
width = 439;
}
);
note = Ntilde;
unicode = 209;
},
{
color = 4;
glyphname = O;
lastChange = "2026-04-22 21:18:17 +0000";
layers = (
{
anchors = (
{
name = bottomcase;
pos = (210,0);
},
{
name = ogonekcase;
pos = (212,5);
},
{
name = topcase;
pos = (210,620);
}
);
layerId = m01;
shapes = (
{
closed = 1;
nodes = (
(312,-10,o),
(399,32,o),
(399,330,cs),
(399,586,o),
(312,630,o),
(208,630,cs),
(104,630,o),
(20,586,o),
(20,330,cs),
(20,33,o),
(105,-10,o),
(208,-10,cs)
);
},
{
closed = 1;
nodes = (
(155,110,o),
(140,173,o),
(140,324,cs),
(140,454,o),
(155,510,o),
(208,510,cs),
(262,510,o),
(279,454,o),
(279,324,cs),
(279,173,o),
(262,110,o),
(208,110,cs)
);
}
);
userData = {
com.hugojourdan.ColorFlow = {
"0" = 0;
"1" = 0;
"10" = 0;
"11" = 0;
"2" = 0;
"3" = 0;
"4" = 0;
"5" = 0;
"6" = 0;
"7" = 0;
"8" = 0;
"9" = 0;
};
};
width = 419;
}
);
note = O;
unicode = 79;
},
{
color = 4;
glyphname = Oacute;
lastChange = "2026-04-14 15:25:22 +0000";
layers = (
{
background = {
shapes = (
{
closed = 1;
nodes = (
(105,-10,o),
(20,33,o),
(20,330,cs),
(20,586,o),
(104,630,o),
(208,630,cs),
(312,630,o),
(399,586,o),
(399,330,cs),
(399,32,o),
(312,-10,o),
(208,-10,cs)
);
},
{
closed = 1;
nodes = (
(140,173,o),
(155,110,o),
(208,110,cs),
(262,110,o),
(279,173,o),
(279,324,cs),
(279,454,o),
(262,510,o),
(208,510,cs),
(155,510,o),
(140,454,o),
(140,324,cs)
);
},
{
closed = 1;
nodes = (
(260,692,ls),
(297,703,o),
(305,730,o),
(305,758,cs),
(305,791,o),
(286,820,o),
(286,820,c),
(137,738,l),
(137,724,o),
(144,682,o),
(160,663,c)
);
}
);
};
layerId = m01;
shapes = (
{
ref = O;
},
{
pos = (127,0);
ref = acute.case;
}
);
userData = {
com.hugojourdan.ColorFlow = {
"0" = 0;
"1" = 0;
"10" = 0;
"11" = 0;
"2" = 0;
"3" = 0;
"4" = 0;
"5" = 0;
"6" = 0;
"7" = 0;
"8" = 0;
"9" = 0;
};
};
width = 419;
}
);
note = Oacute;
unicode = 211;
},
{
color = 4;
glyphname = Ocircumflex;
lastChange = "2026-04-14 15:25:22 +0000";
layers = (
{
background = {
shapes = (
{
closed = 1;
nodes = (
(105,-10,o),
(20,33,o),
(20,330,cs),
(20,586,o),
(104,630,o),
(208,630,cs),
(312,630,o),
(399,586,o),
(399,330,cs),
(399,32,o),
(312,-10,o),
(208,-10,cs)
);
},
{
closed = 1;
nodes = (
(140,173,o),
(155,110,o),
(208,110,cs),
(262,110,o),
(279,173,o),
(279,324,cs),
(279,454,o),
(262,510,o),
(208,510,cs),
(155,510,o),
(140,454,o),
(140,324,cs)
);
},
{
closed = 1;
nodes = (
(120,787,ls),
(100,776,o),
(93,760,o),
(93,744,cs),
(93,719,o),
(108,692,o),
(124,676,c),
(207,739,l),
(291,676,l),
(308,695,o),
(322,720,o),
(322,746,cs),
(322,762,o),
(315,777,o),
(296,787,cs),
(208,835,l)
);
}
);
};
layerId = m01;
shapes = (
{
ref = O;
},
{
pos = (96,0);
ref = circumflex.case;
}
);
userData = {
com.hugojourdan.ColorFlow = {
"0" = 0;
"1" = 0;
"10" = 0;
"11" = 0;
"2" = 0;
"3" = 0;
"4" = 0;
"5" = 0;
"6" = 0;
"7" = 0;
"8" = 0;
"9" = 0;
};
};
width = 419;
}
);
note = Ocircumflex;
unicode = 212;
},
{
color = 4;
glyphname = Odieresis;
lastChange = "2026-04-14 15:25:22 +0000";
layers = (
{
background = {
shapes = (
{
closed = 1;
nodes = (
(105,-10,o),
(20,33,o),
(20,330,cs),
(20,586,o),
(104,630,o),
(208,630,cs),
(312,630,o),
(399,586,o),
(399,330,cs),
(399,32,o),
(312,-10,o),
(208,-10,cs)
);
},
{
closed = 1;
nodes = (
(140,173,o),
(155,110,o),
(208,110,cs),
(262,110,o),
(279,173,o),
(279,324,cs),
(279,454,o),
(262,510,o),
(208,510,cs),
(155,510,o),
(140,454,o),
(140,324,cs)
);
},
{
closed = 1;
nodes = (
(97,801,o),
(72,780,o),
(72,747,cs),
(72,707,o),
(97,687,o),
(131,687,cs),
(164,687,o),
(191,707,o),
(191,747,cs),
(191,780,o),
(164,801,o),
(131,801,cs)
);
},
{
closed = 1;
nodes = (
(253,801,o),
(227,780,o),
(227,747,cs),
(227,707,o),
(253,687,o),
(286,687,cs),
(320,687,o),
(346,707,o),
(346,747,cs),
(346,780,o),
(320,801,o),
(286,801,cs)
);
}
);
};
layerId = m01;
shapes = (
{
ref = O;
},
{
pos = (73,0);
ref = dieresis.case;
}
);
userData = {
com.hugojourdan.ColorFlow = {
"0" = 0;
"1" = 0;
"10" = 0;
"11" = 0;
"2" = 0;
"3" = 0;
"4" = 0;
"5" = 0;
"6" = 0;
"7" = 0;
"8" = 0;
"9" = 0;
};
};
width = 419;
}
);
note = Odieresis;
unicode = 214;
},
{
color = 4;
glyphname = Ograve;
lastChange = "2026-04-22 21:16:18 +0000";
layers = (
{
background = {
shapes = (
{
closed = 1;
nodes = (
(105,-10,o),
(20,33,o),
(20,330,cs),
(20,586,o),
(104,630,o),
(208,630,cs),
(312,630,o),
(399,586,o),
(399,330,cs),
(399,32,o),
(312,-10,o),
(208,-10,cs)
);
},
{
closed = 1;
nodes = (
(140,173,o),
(155,110,o),
(208,110,cs),
(262,110,o),
(279,173,o),
(279,324,cs),
(279,454,o),
(262,510,o),
(208,510,cs),
(155,510,o),
(140,454,o),
(140,324,cs)
);
},
{
closed = 1;
nodes = (
(276,663,l),
(290,680,o),
(299,718,o),
(299,734,cs),
(299,738,l),
(150,820,l),
(150,820,o),
(131,790,o),
(131,756,cs),
(131,729,o),
(140,703,o),
(177,692,cs)
);
}
);
};
layerId = m01;
shapes = (
{
ref = O;
},
{
pos = (126,0);
ref = grave.case;
}
);
userData = {
com.hugojourdan.ColorFlow = {
"0" = 0;
"1" = 0;
"10" = 0;
"11" = 0;
"2" = 0;
"3" = 0;
"4" = 0;
"5" = 0;
"6" = 0;
"7" = 0;
"8" = 0;
"9" = 0;
};
};
width = 419;
}
);
note = Ograve;
unicode = 210;
},
{
color = 4;
glyphname = Oslash;
lastChange = "2026-04-14 15:25:22 +0000";
layers = (
{
layerId = m01;
shapes = (
{
closed = 1;
nodes = (
(343,638,o),
(350,668,o),
(354,686,c),
(223,713,l),
(221,700,o),
(216,673,o),
(207,627,c),
(330,585,l)
);
},
{
closed = 1;
nodes = (
(198,-65,o),
(202,-43,o),
(209,-5,c),
(86,41,l),
(75,-8,o),
(69,-39,o),
(65,-61,c),
(194,-88,l)
);
},
{
ref = O;
}
);
userData = {
com.hugojourdan.ColorFlow = {
"0" = 0;
"1" = 0;
"10" = 0;
"11" = 0;
"2" = 0;
"3" = 0;
"4" = 0;
"5" = 0;
"6" = 0;
"7" = 0;
"8" = 0;
"9" = 0;
};
};
width = 419;
}
);
metricLeft = O;
metricRight = O;
note = Oslash;
unicode = 216;
},
{
color = 4;
glyphname = OE;
lastChange = "2026-04-14 15:25:22 +0000";
layers = (
{
layerId = m01;
shapes = (
{
closed = 1;
nodes = (
(233,-10,o),
(257,-6,o),
(273,-2,c),
(328,-3,o),
(457,-5,o),
(515,-5,c),
(525,19,o),
(528,80,o),
(524,107,c),
(368,110,l),
(368,228,l),
(404,229,o),
(449,230,o),
(485,230,c),
(497,261,o),
(492,316,o),
(485,333,c),
(368,337,l),
(368,510,l),
(519,514,l),
(523,542,o),
(520,602,o),
(510,626,c),
(452,626,o),
(323,624,o),
(269,623,c),
(249,629,o),
(231,630,o),
(208,630,cs),
(104,630,o),
(20,586,o),
(20,330,cs),
(20,33,o),
(105,-10,o),
(208,-10,cs)
);
},
{
closed = 1;
nodes = (
(155,110,o),
(140,173,o),
(140,324,cs),
(140,454,o),
(155,510,o),
(208,510,cs),
(222,510,o),
(238,506,o),
(248,499,c),
(250,438,o),
(252,362,o),
(252,319,cs),
(252,272,o),
(251,186,o),
(249,120,c),
(238,115,o),
(225,110,o),
(208,110,cs)
);
}
);
userData = {
com.hugojourdan.ColorFlow = {
"0" = 0;
"1" = 0;
"10" = 0;
"11" = 0;
"2" = 0;
"3" = 0;
"4" = 0;
"5" = 0;
"6" = 0;
"7" = 0;
"8" = 0;
"9" = 0;
};
};
width = 545;
}
);
metricLeft = "=O";
metricRight = "=E";
note = OE;
unicode = 338;
},
{
color = 4;
glyphname = P;
lastChange = "2026-04-14 15:25:22 +0000";
layers = (
{
background = {
shapes = (
{
closed = 1;
nodes = (
(157,0,l),
(157,166,l),
(310,168,o),
(358,274,o),
(358,436,cs),
(358,523,o),
(328,630,o),
(199,630,cs),
(129,630,o),
(75,625,o),
(33,620,c),
(33,620,o),
(41,410,o),
(41,319,cs),
(41,224,o),
(39,84,o),
(35,0,c)
);
},
{
closed = 1;
nodes = (
(157,511,l),
(157,511,o),
(175,516,o),
(190,516,cs),
(218,516,o),
(238,499,o),
(238,404,cs),
(238,348,o),
(214,278,o),
(157,274,c)
);
}
);
};
layerId = m01;
shapes = (
{
closed = 1;
nodes = (
(137,166,l),
(306,159,o),
(358,273,o),
(358,425,cs),
(358,535,o),
(328,630,o),
(191,630,cs),
(138,630,o),
(86,626,o),
(33,620,c),
(36,550,o),
(41,409,o),
(41,319,cs),
(41,224,o),
(39,84,o),
(35,0,c),
(157,0,l),
(157,511,l),
(167,514,o),
(176,516,o),
(190,516,cs),
(218,516,o),
(238,491,o),
(238,419,cs),
(238,333,o),
(210,267,o),
(141,274,c)
);
}
);
userData = {
com.hugojourdan.ColorFlow = {
"0" = 0;
"1" = 0;
"10" = 0;
"11" = 0;
"2" = 0;
"3" = 0;
"4" = 0;
"5" = 0;
"6" = 0;
"7" = 0;
"8" = 0;
"9" = 0;
};
};
width = 381;
}
);
metricLeft = "=H";
metricRight = "=O+3";
note = P;
unicode = 80;
},
{
color = 4;
glyphname = Thorn;
lastChange = "2026-04-14 15:25:22 +0000";
layers = (
{
background = {
shapes = (
{
closed = 1;
nodes = (
(356,444,o),
(326,550,o),
(197,550,cs),
(181,550,o),
(167,550,o),
(154,549,c),
(154,577,o),
(155,603,o),
(155,620,c),
(33,620,l),
(35,555,o),
(37,366,o),
(37,319,cs),
(37,267,o),
(35,69,o),
(34,-1,c),
(155,-1,l),
(154,21,o),
(154,54,o),
(154,91,c),
(155,91,ls),
(308,93,o),
(356,198,o),
(356,358,cs)
);
},
{
closed = 1;
nodes = (
(155,431,l),
(155,431,o),
(173,436,o),
(188,436,cs),
(216,436,o),
(236,415,o),
(236,344,cs),
(236,267,o),
(212,203,o),
(155,199,c)
);
}
);
};
layerId = m01;
shapes = (
{
closed = 1;
nodes = (
(155,0,l),
(154,22,o),
(154,54,o),
(154,91,c),
(308,93,o),
(356,201,o),
(356,340,cs),
(356,447,o),
(326,550,o),
(197,550,cs),
(181,550,o),
(167,550,o),
(154,549,c),
(154,577,o),
(155,603,o),
(155,620,c),
(33,620,l),
(35,555,o),
(37,366,o),
(37,319,cs),
(37,267,o),
(35,70,o),
(34,0,c)
);
},
{
closed = 1;
nodes = (
(155,431,l),
(163,434,o),
(175,436,o),
(188,436,cs),
(216,436,o),
(236,415,o),
(236,344,cs),
(236,267,o),
(212,203,o),
(155,199,c)
);
}
);
userData = {
com.hugojourdan.ColorFlow = {
"0" = 0;
"1" = 0;
"10" = 0;
"11" = 0;
"2" = 0;
"3" = 0;
"4" = 0;
"5" = 0;
"6" = 0;
"7" = 0;
"8" = 0;
"9" = 0;
};
};
width = 379;
}
);
metricLeft = P;
metricRight = P;
note = Thorn;
unicode = 222;
},
{
color = 4;
glyphname = Q;
lastChange = "2026-04-14 15:25:22 +0000";
layers = (
{
layerId = m01;
shapes = (
{
closed = 1;
nodes = (
(376,-83,o),
(411,-28,o),
(426,2,c),
(336,44,l),
(224,-7,l),
(281,-56,ls),
(302,-74,o),
(320,-83,o),
(336,-83,cs)
);
},
{
ref = O;
}
);
userData = {
com.hugojourdan.ColorFlow = {
"0" = 0;
"1" = 0;
"10" = 0;
"11" = 0;
"2" = 0;
"3" = 0;
"4" = 0;
"5" = 0;
"6" = 0;
"7" = 0;
"8" = 0;
"9" = 0;
};
};
width = 423;
}
);
metricLeft = O;
metricRight = "=O-23";
note = Q;
unicode = 81;
},
{
color = 4;
glyphname = R;
lastChange = "2026-04-22 21:18:32 +0000";
layers = (
{
anchors = (
{
name = topcase;
pos = (176,620);
}
);
layerId = m01;
shapes = (
{
closed = 1;
nodes = (
(341,-10,o),
(367,9,o),
(377,17,c),
(286,219,l),
(314,253,o),
(356,348,o),
(356,442,cs),
(356,529,o),
(326,628,o),
(198,628,cs),
(129,628,o),
(70,624,o),
(33,618,c),
(37,547,o),
(41,407,o),
(41,317,cs),
(41,221,o),
(37,58,o),
(35,0,c),
(153,0,l),
(153,164,l),
(181,164,l),
(222,51,ls),
(240,3,o),
(269,-10,o),
(302,-10,cs)
);
},
{
closed = 1;
nodes = (
(153,509,l),
(162,512,o),
(173,514,o),
(189,514,cs),
(220,514,o),
(241,505,o),
(241,410,cs),
(241,345,o),
(213,275,o),
(153,272,c)
);
}
);
userData = {
com.hugojourdan.ColorFlow = {
"0" = 0;
"1" = 0;
"10" = 0;
"11" = 0;
"2" = 0;
"3" = 0;
"4" = 0;
"5" = 0;
"6" = 0;
"7" = 0;
"8" = 0;
"9" = 0;
};
};
width = 379;
}
);
metricLeft = "=H";
metricRight = "=H-31";
note = R;
unicode = 82;
},
{
color = 4;
glyphname = S;
lastChange = "2026-04-22 21:19:00 +0000";
layers = (
{
anchors = (
{
name = bottom;
pos = (168,0);
},
{
name = bottomcase;
pos = (178,0);
},
{
name = cedillacase;
pos = (175,0);
},
{
name = topcase;
pos = (198,620);
}
);
background = {
shapes = (
{
closed = 1;
nodes = (
(75,17,o),
(125,-10,o),
(184,-10,cs),
(292,-10,o),
(339,74,o),
(339,159,cs),
(339,347,o),
(139,351,o),
(139,437,cs),
(139,476,o),
(155,507,o),
(188,507,cs),
(204,507,o),
(217,505,o),
(228,501,c),
(225,434,l),
(235,431,o),
(249,428,o),
(262,428,cs),
(314,428,o),
(333,441,o),
(333,495,cs),
(332,595,l),
(279,625,o),
(245,629,o),
(211,629,cs),
(59,629,o),
(22,525,o),
(22,438,cs),
(22,248,o),
(219,247,o),
(219,159,cs),
(219,138,o),
(201,115,o),
(175,115,cs),
(148,115,o),
(111,133,o),
(74,158,c),
(54,133,o),
(35,90,o),
(27,56,c)
);
}
);
};
layerId = m01;
shapes = (
{
closed = 1;
nodes = (
(292,-10,o),
(339,72,o),
(339,162,cs),
(339,348,o),
(139,341,o),
(139,447,cs),
(139,476,o),
(154,507,o),
(191,507,cs),
(201,507,o),
(215,505,o),
(228,501,c),
(225,434,l),
(235,431,o),
(248,428,o),
(269,428,cs),
(313,428,o),
(333,441,o),
(333,495,cs),
(333,595,l),
(284,624,o),
(246,629,o),
(212,629,cs),
(57,629,o),
(22,525,o),
(22,442,cs),
(22,244,o),
(219,247,o),
(219,161,cs),
(219,137,o),
(203,115,o),
(171,115,cs),
(144,115,o),
(108,131,o),
(74,158,c),
(54,133,o),
(35,90,o),
(27,56,c),
(75,17,o),
(125,-10,o),
(186,-10,cs)
);
}
);
userData = {
com.hugojourdan.ColorFlow = {
"0" = 0;
"1" = 0;
"10" = 0;
"11" = 0;
"2" = 0;
"3" = 0;
"4" = 0;
"5" = 0;
"6" = 0;
"7" = 0;
"8" = 0;
"9" = 0;
};
};
width = 355;
}
);
metricLeft = "=H-11";
metricRight = "=H-17";
note = S;
unicode = 83;
},
{
color = 4;
glyphname = Germandbls;
lastChange = "2026-04-14 15:25:22 +0000";
layers = (
{
background = {
shapes = (
{
closed = 1;
nodes = (
(180,265,l),
(194,266,o),
(207,267,o),
(221,267,cs),
(280,267,o),
(340,251,o),
(340,180,cs),
(340,140,o),
(321,115,o),
(290,115,cs),
(268,115,o),
(243,128,o),
(221,152,c),
(203,127,o),
(181,84,o),
(176,46,c),
(217,17,o),
(259,-9,o),
(314,-9,cs),
(411,-9,o),
(460,74,o),
(460,175,cs),
(460,263,o),
(422,316,o),
(355,345,c),
(400,377,o),
(411,420,o),
(411,466,cs),
(411,554,o),
(372,630,o),
(194,630,cs),
(138,630,o),
(82,626,o),
(26,620,c),
(29,550,o),
(34,409,o),
(34,319,cs),
(34,224,o),
(32,84,o),
(28,0,c),
(150,0,l),
(150,511,l),
(162,513,o),
(179,516,o),
(200,516,cs),
(250,517,o),
(291,501,o),
(291,451,cs),
(291,413,o),
(267,375,o),
(210,375,cs),
(184,375,l)
);
}
);
};
layerId = m01;
shapes = (
{
closed = 1;
nodes = (
(106,-10,o),
(138,-1,o),
(159,5,c),
(154,47,o),
(149,249,o),
(149,362,cs),
(149,517,l),
(162,520,o),
(177,523,o),
(192,523,cs),
(245,523,o),
(250,482,o),
(250,466,cs),
(250,409,o),
(188,371,o),
(188,294,cs),
(188,196,o),
(286,185,o),
(286,125,cs),
(286,105,o),
(277,95,o),
(260,95,cs),
(250,95,o),
(238,97,o),
(225,102,c),
(205,75,o),
(190,29,o),
(188,11,c),
(208,0,o),
(234,-10,o),
(268,-10,cs),
(355,-10,o),
(396,55,o),
(396,130,cs),
(396,249,o),
(302,248,o),
(302,313,cs),
(302,364,o),
(360,389,o),
(360,476,cs),
(360,558,o),
(309,630,o),
(161,630,cs),
(115,630,o),
(62,624,o),
(36,620,c),
(36,316,o),
(37,299,o),
(37,193,cs),
(37,116,o),
(33,38,o),
(33,-10,c)
);
}
);
userData = {
com.hugojourdan.ColorFlow = {
"0" = 0;
"1" = 0;
"10" = 0;
"11" = 0;
"2" = 0;
"3" = 0;
"4" = 0;
"5" = 0;
"6" = 0;
"7" = 0;
"8" = 0;
"9" = 0;
};
};
width = 412;
}
);
metricLeft = P;
metricRight = S;
unicode = 7838;
},
{
color = 4;
glyphname = T;
lastChange = "2026-04-22 21:19:06 +0000";
layers = (
{
anchors = (
{
name = bottom;
pos = (174,0);
}
);
layerId = m01;
shapes = (
{
closed = 1;
nodes = (
(233,0,l),
(232,32,o),
(229,264,o),
(229,321,cs),
(229,359,o),
(230,437,o),
(231,504,c),
(339,504,l),
(351,536,o),
(345,603,o),
(339,620,c),
(0,620,l),
(-7,603,o),
(-12,536,o),
(0,504,c),
(109,504,l),
(111,440,o),
(113,365,o),
(113,319,cs),
(113,223,o),
(108,32,o),
(107,0,c)
);
}
);
userData = {
com.hugojourdan.ColorFlow = {
"0" = 0;
"1" = 0;
"10" = 0;
"11" = 0;
"2" = 0;
"3" = 0;
"4" = 0;
"5" = 0;
"6" = 0;
"7" = 0;
"8" = 0;
"9" = 0;
};
};
width = 338;
}
);
metricLeft = "=H-40";
metricRight = "=H-41";
note = T;
unicode = 84;
},
{
color = 4;
glyphname = U;
lastChange = "2026-04-22 21:19:12 +0000";
layers = (
{
anchors = (
{
name = bottomcase;
pos = (205,0);
},
{
name = topcase;
pos = (205,620);
}
);
layerId = m01;
shapes = (
{
closed = 1;
nodes = (
(256,-8,o),
(310,0,o),
(368,22,c),
(368,106,o),
(372,556,o),
(375,620,c),
(350,624,o),
(330,625,o),
(313,625,cs),
(275,625,o),
(256,623,o),
(242,620,c),
(242,123,l),
(229,116,o),
(219,114,o),
(205,114,cs),
(177,114,o),
(165,133,o),
(165,201,cs),
(165,274,o),
(166,520,o),
(169,625,c),
(143,626,ls),
(85,630,o),
(58,624,o),
(37,620,c),
(37,207,ls),
(37,65,o),
(76,-8,o),
(211,-8,cs)
);
}
);
userData = {
com.hugojourdan.ColorFlow = {
"0" = 0;
"1" = 0;
"10" = 0;
"11" = 0;
"2" = 0;
"3" = 0;
"4" = 0;
"5" = 0;
"6" = 0;
"7" = 0;
"8" = 0;
"9" = 0;
};
};
width = 408;
}
);
metricLeft = "=H+4";
metricRight = "=H";
note = U;
unicode = 85;
},
{
color = 4;
glyphname = Ugrave;
lastChange = "2026-04-22 21:16:18 +0000";
layers = (
{
background = {
shapes = (
{
closed = 1;
nodes = (
(266,663,l),
(280,680,o),
(289,718,o),
(289,734,cs),
(289,738,l),
(140,820,l),
(140,820,o),
(121,790,o),
(121,756,cs),
(121,729,o),
(130,703,o),
(167,692,cs)
);
}
);
};
hints = (
{
horizontal = 1;
place = (625,-20);
target = down;
type = TopGhost;
},
{
horizontal = 1;
place = (620,-20);
target = down;
type = TopGhost;
},
{
horizontal = 1;
place = (-8,122);
type = Stem;
},
{
place = (240,125);
type = Stem;
},
{
place = (36,127);
type = Stem;
}
);
layerId = m01;
shapes = (
{
ref = U;
},
{
pos = (121,0);
ref = grave.case;
}
);
userData = {
com.hugojourdan.ColorFlow = {
"0" = 0;
"1" = 0;
"10" = 0;
"11" = 0;
"2" = 0;
"3" = 0;
"4" = 0;
"5" = 0;
"6" = 0;
"7" = 0;
"8" = 0;
"9" = 0;
};
};
width = 408;
}
);
note = Ugrave;
unicode = 217;
},
{
color = 4;
glyphname = Utilde;
lastChange = "2026-04-14 15:34:23 +0000";
layers = (
{
background = {
shapes = (
{
closed = 1;
nodes = (
(348,624,o),
(328,625,o),
(311,625,cs),
(273,625,o),
(255,623,o),
(241,620,c),
(240,123,l),
(227,116,o),
(217,114,o),
(202,114,cs),
(175,114,o),
(163,133,o),
(163,201,cs),
(163,274,o),
(164,520,o),
(167,625,c),
(109,625,o),
(67,624,o),
(35,620,c),
(37,207,ls),
(38,65,o),
(89,-8,o),
(199,-8,cs),
(269,-8,o),
(308,0,o),
(366,22,c),
(366,106,o),
(370,556,o),
(373,620,c)
);
},
{
closed = 1;
nodes = (
(170,728,l),
(183,717,o),
(226,672,o),
(255,672,cs),
(301,672,o),
(342,742,o),
(358,772,c),
(347,790,o),
(318,814,o),
(305,816,c),
(245,766,l),
(232,777,o),
(189,822,o),
(160,822,cs),
(114,822,o),
(73,752,o),
(57,722,c),
(68,704,o),
(97,680,o),
(110,678,c)
);
}
);
};
layerId = m01;
shapes = (
{
ref = U;
},
{
pos = (54,0);
ref = tilde.case;
}
);
userData = {
com.hugojourdan.ColorFlow = {
"0" = 0;
"1" = 0;
"10" = 0;
"11" = 0;
"2" = 0;
"3" = 0;
"4" = 0;
"5" = 0;
"6" = 0;
"7" = 0;
"8" = 0;
"9" = 0;
};
};
width = 408;
}
);
note = U.tilde;
unicode = 360;
},
{
color = 4;
glyphname = V;
lastChange = "2026-04-14 15:25:22 +0000";
layers = (
{
layerId = m01;
shapes = (
{
closed = 1;
nodes = (
(244,-8,o),
(286,-5,o),
(304,2,c),
(409,620,l),
(373,624,o),
(324,625,o),
(270,625,c),
(210,150,l),
(202,150,l),
(142,625,l),
(82,625,o),
(39,624,o),
(3,620,c),
(110,2,l),
(123,-5,o),
(166,-8,o),
(208,-8,cs)
);
}
);
userData = {
com.hugojourdan.ColorFlow = {
"0" = 0;
"1" = 0;
"10" = 0;
"11" = 0;
"2" = 0;
"3" = 0;
"4" = 0;
"5" = 0;
"6" = 0;
"7" = 0;
"8" = 0;
"9" = 0;
};
};
width = 412;
}
);
metricLeft = "=H-30";
metricRight = "=H-30";
note = V;
unicode = 86;
},
{
color = 4;
glyphname = W;
lastChange = "2026-04-22 21:19:16 +0000";
layers = (
{
anchors = (
{
name = bottom;
pos = (274,0);
},
{
name = topcase;
pos = (274,620);
}
);
layerId = m01;
shapes = (
{
closed = 1;
nodes = (
(183,-8,o),
(215,-5,o),
(229,2,c),
(274,239,l),
(318,2,l),
(332,-5,o),
(364,-8,o),
(399,-8,cs),
(433,-8,o),
(469,-5,o),
(494,2,c),
(543,621,l),
(514,623,o),
(472,625,o),
(433,625,cs),
(408,625,l),
(391,142,l),
(383,142,l),
(315,503,l),
(301,505,o),
(282,506,o),
(265,506,cs),
(251,506,o),
(239,505,o),
(232,503,c),
(167,142,l),
(160,142,l),
(139,625,l),
(86,625,o),
(36,623,o),
(3,620,c),
(53,2,l),
(78,-5,o),
(115,-8,o),
(148,-8,cs)
);
}
);
userData = {
com.hugojourdan.ColorFlow = {
"0" = 0;
"1" = 0;
"10" = 0;
"11" = 0;
"2" = 0;
"3" = 0;
"4" = 0;
"5" = 0;
"6" = 0;
"7" = 0;
"8" = 0;
"9" = 0;
};
};
width = 546;
}
);
metricLeft = "=V";
metricRight = "=V";
note = W;
unicode = 87;
},
{
color = 4;
glyphname = X;
lastChange = "2026-04-14 15:25:22 +0000";
layers = (
{
layerId = m01;
shapes = (
{
closed = 1;
nodes = (
(146,0,l),
(196,221,l),
(207,221,l),
(259,0,l),
(385,0,l),
(314,304,l),
(402,620,l),
(370,626,o),
(321,625,o),
(268,625,c),
(261,586,o),
(215,381,o),
(208,366,c),
(197,366,l),
(191,378,o),
(142,598,o),
(137,625,c),
(96,625,o),
(44,626,o),
(3,620,c),
(91,304,l),
(20,0,l)
);
}
);
userData = {
com.hugojourdan.ColorFlow = {
"0" = 0;
"1" = 0;
"10" = 0;
"11" = 0;
"2" = 0;
"3" = 0;
"4" = 0;
"5" = 0;
"6" = 0;
"7" = 0;
"8" = 0;
"9" = 0;
};
};
width = 405;
}
);
metricLeft = "=V";
metricRight = "=V";
note = X;
unicode = 88;
},
{
color = 4;
glyphname = Y;
lastChange = "2026-04-22 21:19:19 +0000";
layers = (
{
anchors = (
{
name = bottomcase;
pos = (208,0);
},
{
name = topcase;
pos = (218,620);
},
{
name = topleft;
pos = (31,620);
}
);
layerId = m01;
shapes = (
{
closed = 1;
nodes = (
(269,0,l),
(267,48,o),
(265,125,o),
(264,199,c),
(275,214,o),
(402,586,o),
(413,620,c),
(375,625,o),
(327,624,o),
(279,624,c),
(274,598,o),
(219,360,o),
(213,349,c),
(203,349,l),
(196,363,o),
(144,593,o),
(137,624,c),
(86,624,o),
(44,625,o),
(3,620,c),
(10,600,o),
(141,218,o),
(153,199,c),
(152,103,o),
(150,43,o),
(148,0,c)
);
}
);
userData = {
com.hugojourdan.ColorFlow = {
"0" = 0;
"1" = 0;
"10" = 0;
"11" = 0;
"2" = 0;
"3" = 0;
"4" = 0;
"5" = 0;
"6" = 0;
"7" = 0;
"8" = 0;
"9" = 0;
};
};
width = 416;
}
);
metricLeft = "=V";
metricRight = "=V";
note = Y;
unicode = 89;
},
{
color = 4;
glyphname = Yacute;
lastChange = "2026-04-14 15:25:22 +0000";
layers = (
{
background = {
shapes = (
{
closed = 1;
nodes = (
(128,0,l),
(128,0,o),
(132,100,o),
(133,199,c),
(121,218,o),
(-17,620,o),
(-17,620,c),
(24,625,o),
(66,624,o),
(117,624,c),
(117,624,o),
(175,364,o),
(183,349,c),
(193,349,l),
(200,364,o),
(259,624,o),
(259,624,c),
(307,624,o),
(355,625,o),
(393,620,c),
(393,620,o),
(257,220,o),
(244,199,c),
(246,107,o),
(249,0,o),
(249,0,c)
);
},
{
closed = 1;
nodes = (
(242,690,ls),
(277,703,o),
(286,729,o),
(286,756,cs),
(286,794,o),
(261,828,o),
(261,828,c),
(109,729,l),
(109,714,o),
(121,671,o),
(138,652,c)
);
}
);
};
layerId = m01;
shapes = (
{
ref = Y;
},
{
pos = (135,0);
ref = acute.case;
}
);
userData = {
com.hugojourdan.ColorFlow = {
"0" = 0;
"1" = 0;
"10" = 0;
"11" = 0;
"2" = 0;
"3" = 0;
"4" = 0;
"5" = 0;
"6" = 0;
"7" = 0;
"8" = 0;
"9" = 0;
};
};
width = 416;
}
);
note = Yacute;
unicode = 221;
},
{
color = 4;
glyphname = Ydieresis;
lastChange = "2026-04-14 15:25:22 +0000";
layers = (
{
background = {
shapes = (
{
closed = 1;
nodes = (
(137,0,l),
(137,0,o),
(141,100,o),
(142,199,c),
(130,218,o),
(-8,620,o),
(-8,620,c),
(33,625,o),
(75,624,o),
(126,624,c),
(126,624,o),
(184,364,o),
(192,349,c),
(202,349,l),
(209,364,o),
(268,624,o),
(268,624,c),
(316,624,o),
(364,625,o),
(402,620,c),
(402,620,o),
(266,220,o),
(253,199,c),
(255,107,o),
(258,0,o),
(258,0,c)
);
},
{
closed = 1;
nodes = (
(85,801,o),
(60,780,o),
(60,747,cs),
(60,707,o),
(85,687,o),
(119,687,cs),
(152,687,o),
(179,707,o),
(179,747,cs),
(179,780,o),
(152,801,o),
(119,801,cs)
);
},
{
closed = 1;
nodes = (
(241,801,o),
(215,780,o),
(215,747,cs),
(215,707,o),
(241,687,o),
(274,687,cs),
(308,687,o),
(334,707,o),
(334,747,cs),
(334,780,o),
(308,801,o),
(274,801,cs)
);
}
);
};
layerId = m01;
shapes = (
{
ref = Y;
},
{
pos = (81,0);
ref = dieresis.case;
}
);
userData = {
com.hugojourdan.ColorFlow = {
"0" = 0;
"1" = 0;
"10" = 0;
"11" = 0;
"2" = 0;
"3" = 0;
"4" = 0;
"5" = 0;
"6" = 0;
"7" = 0;
"8" = 0;
"9" = 0;
};
};
width = 416;
}
);
note = Ydieresis;
unicode = 376;
},
{
color = 4;
glyphname = Ytilde;
lastChange = "2026-04-14 15:25:22 +0000";
layers = (
{
background = {
shapes = (
{
closed = 1;
nodes = (
(258,0,l),
(258,0,o),
(255,107,o),
(253,199,c),
(266,220,o),
(402,620,o),
(402,620,c),
(364,625,o),
(316,624,o),
(268,624,c),
(268,624,o),
(209,364,o),
(202,349,c),
(192,349,l),
(184,364,o),
(126,624,o),
(126,624,c),
(75,624,o),
(33,625,o),
(-8,620,c),
(-8,620,o),
(130,218,o),
(142,199,c),
(141,100,o),
(137,0,o),
(137,0,c)
);
},
{
closed = 1;
nodes = (
(159,728,l),
(172,717,o),
(215,672,o),
(244,672,cs),
(290,672,o),
(331,742,o),
(347,772,c),
(336,790,o),
(307,814,o),
(294,816,c),
(234,766,l),
(221,777,o),
(178,822,o),
(149,822,cs),
(103,822,o),
(62,752,o),
(46,722,c),
(57,704,o),
(86,680,o),
(99,678,c)
);
}
);
};
layerId = m01;
shapes = (
{
ref = Y;
},
{
pos = (67,0);
ref = tilde.case;
}
);
userData = {
com.hugojourdan.ColorFlow = {
"0" = 0;
"1" = 0;
"10" = 0;
"11" = 0;
"2" = 0;
"3" = 0;
"4" = 0;
"5" = 0;
"6" = 0;
"7" = 0;
"8" = 0;
"9" = 0;
};
};
width = 416;
}
);
note = Y.tilde;
unicode = 7928;
},
{
color = 4;
glyphname = Z;
lastChange = "2026-04-14 15:25:22 +0000";
layers = (
{
anchors = (
{
name = bottomcase;
pos = (191,0);
},
{
name = topcase;
pos = (191,620);
}
);
layerId = m01;
shapes = (
{
closed = 1;
nodes = (
(306,-7,o),
(333,-6,o),
(346,-6,c),
(347,5,o),
(348,17,o),
(348,29,cs),
(348,58,o),
(345,90,o),
(342,114,c),
(173,111,l),
(173,141,o),
(277,327,o),
(329,438,cs),
(345,473,o),
(355,505,o),
(355,539,cs),
(355,561,o),
(351,584,o),
(342,610,c),
(242,620,o),
(153,622,o),
(90,622,cs),
(66,622,o),
(53,622,o),
(37,621,c),
(32,599,o),
(30,579,o),
(30,561,cs),
(30,539,o),
(33,519,o),
(37,503,c),
(225,506,l),
(225,458,o),
(24,121,o),
(24,61,cs),
(24,31,o),
(29,26,o),
(41,3,c),
(71,-5,o),
(180,-7,o),
(260,-7,cs)
);
}
);
userData = {
com.hugojourdan.ColorFlow = {
"0" = 0;
"1" = 0;
"10" = 0;
"11" = 0;
"2" = 0;
"3" = 0;
"4" = 0;
"5" = 0;
"6" = 0;
"7" = 0;
"8" = 0;
"9" = 0;
};
};
width = 381;
}
);
metricLeft = "=H-9";
metricRight = "=H-7";
note = Z;
unicode = 90;
},
{
color = 4;
glyphname = Zcaron;
lastChange = "2026-04-14 15:25:22 +0000";
layers = (
{
background = {
shapes = (
{
closed = 1;
nodes = (
(37,503,l),
(33,519,o),
(30,539,o),
(30,561,cs),
(30,579,o),
(32,599,o),
(37,621,c),
(37,621,o),
(57,622,o),
(97,622,cs),
(153,622,o),
(242,620,o),
(342,610,c),
(351,584,o),
(355,561,o),
(355,539,cs),
(355,505,o),
(345,473,o),
(329,438,cs),
(277,327,o),
(173,141,o),
(173,111,c),
(342,114,l),
(345,90,o),
(348,58,o),
(348,29,cs),
(348,17,o),
(347,5,o),
(346,-6,c),
(346,-6,o),
(308,-7,o),
(260,-7,cs),
(180,-7,o),
(71,-5,o),
(41,3,c),
(29,26,o),
(24,31,o),
(24,61,cs),
(24,121,o),
(225,458,o),
(225,506,c)
);
},
{
closed = 1;
nodes = (
(284,711,ls),
(302,721,o),
(310,733,o),
(310,747,cs),
(310,775,o),
(296,802,o),
(279,819,c),
(196,759,l),
(112,819,l),
(96,801,o),
(81,776,o),
(81,751,cs),
(81,736,o),
(88,722,o),
(108,711,cs),
(196,663,l)
);
}
);
};
layerId = m01;
shapes = (
{
ref = Z;
},
{
pos = (76,0);
ref = caron.case;
}
);
userData = {
com.hugojourdan.ColorFlow = {
"0" = 0;
"1" = 0;
"10" = 0;
"11" = 0;
"2" = 0;
"3" = 0;
"4" = 0;
"5" = 0;
"6" = 0;
"7" = 0;
"8" = 0;
"9" = 0;
};
};
width = 381;
}
);
note = Zcaron;
unicode = 381;
},
{
color = 4;
glyphname = Saltillo;
lastChange = "2026-04-14 15:25:22 +0000";
layers = (
{
layerId = m01;
shapes = (
{
closed = 1;
nodes = (
(172,705,l),
(152,709,o),
(110,717,o),
(45,716,c),
(40,432,l),
(52,422,o),
(102,408,o),
(131,411,c)
);
}
);
userData = {
com.hugojourdan.ColorFlow = {
"0" = 0;
"1" = 0;
"10" = 0;
"11" = 0;
"2" = 0;
"3" = 0;
"4" = 0;
"5" = 0;
"6" = 0;
"7" = 0;
"8" = 0;
"9" = 0;
};
};
width = 190;
}
);
unicode = 42891;
},
{
color = 1;
export = 0;
glyphname = A.alt;
lastChange = "2026-04-14 15:32:01 +0000";
layers = (
{
anchors = (
{
name = bottomcase;
pos = (233,0);
},
{
name = ogonekcase;
pos = (367,0);
},
{
name = topcase;
pos = (232,620);
}
);
layerId = m01;
shapes = (
{
closed = 1;
nodes = (
(168,0,l),
(180,111,l),
(194,111,o),
(210,110,o),
(240,110,cs),
(256,110,o),
(272,110,o),
(283,111,c),
(295,0,l),
(424,0,l),
(337,618,l),
(324,625,o),
(274,628,o),
(233,628,cs),
(191,628,o),
(142,625,o),
(129,618,c),
(74,229,l),
(52,234,o),
(43,234,o),
(22,245,c),
(12,234,o),
(-1,214,o),
(-1,194,cs),
(-1,158,o),
(25,136,o),
(60,129,c),
(42,0,l)
);
},
{
closed = 1;
nodes = (
(238,213,o),
(204,212,o),
(191,214,c),
(222,472,l),
(243,472,l),
(271,213,l)
);
}
);
userData = {
com.hugojourdan.ColorFlow = {
"0" = 0;
"1" = 0;
"10" = 0;
"11" = 0;
"2" = 0;
"3" = 0;
"4" = 0;
"5" = 0;
"6" = 0;
"7" = 0;
"8" = 0;
"9" = 0;
};
};
width = 426;
}
);
note = A.alt;
},
{
export = 0;
glyphname = U.alt;
lastChange = "2026-04-14 15:34:03 +0000";
layers = (
{
layerId = m01;
shapes = (
{
closed = 1;
nodes = (
(220,-10,o),
(246,16,o),
(258,42,c),
(265,0,l),
(380,0,l),
(377,27,o),
(370,119,o),
(370,234,cs),
(370,318,o),
(373,564,o),
(375,628,c),
(348,632,o),
(332,633,o),
(316,633,cs),
(281,633,o),
(257,628,o),
(242,624,c),
(242,123,l),
(229,116,o),
(219,114,o),
(204,114,cs),
(178,114,o),
(166,140,o),
(166,225,cs),
(166,298,o),
(167,528,o),
(170,633,c),
(144,633,ls),
(86,633,o),
(57,625,o),
(37,620,c),
(37,207,ls),
(37,65,o),
(74,-10,o),
(173,-10,cs)
);
}
);
userData = {
com.hugojourdan.ColorFlow = {
"0" = 0;
"1" = 0;
"10" = 0;
"11" = 0;
"2" = 0;
"3" = 0;
"4" = 0;
"5" = 0;
"6" = 0;
"7" = 0;
"8" = 0;
"9" = 0;
};
};
width = 413;
}
);
metricLeft = "=U";
metricRight = "=U";
note = U.alt;
},
{
export = 0;
glyphname = A.alt01;
lastChange = "2026-04-14 15:25:22 +0000";
layers = (
{
background = {
shapes = (
{
closed = 1;
nodes = (
(258,0,l),
(384,0,l),
(297,620,l),
(284,627,o),
(234,630,o),
(193,630,cs),
(151,630,o),
(102,627,o),
(89,620,c),
(2,0,l),
(128,0,l),
(140,109,l),
(246,109,l)
);
},
{
closed = 1;
nodes = (
(234,212,l),
(151,212,l),
(182,472,l),
(203,472,l)
);
}
);
};
layerId = m01;
shapes = (
{
closed = 1;
nodes = (
(39,0,l),
(70,154,l),
(317,154,l),
(348,0,l),
(374,0,l),
(245,620,l),
(236,627,o),
(201,630,o),
(192,630,cs),
(186,630,o),
(155,627,o),
(147,620,c),
(12,0,l)
);
},
{
closed = 1;
nodes = (
(166,603,l),
(226,603,l),
(311,181,l),
(77,181,l)
);
}
);
userData = {
com.hugojourdan.ColorFlow = {
"0" = 0;
"1" = 0;
"10" = 0;
"11" = 0;
"2" = 0;
"3" = 0;
"4" = 0;
"5" = 0;
"6" = 0;
"7" = 0;
"8" = 0;
"9" = 0;
};
};
width = 386;
}
);
},
{
color = 4;
glyphname = a;
lastChange = "2026-04-22 21:24:03 +0000";
layers = (
{
anchors = (
{
name = bottom;
pos = (184,0);
},
{
name = ogonek;
pos = (299,11);
},
{
name = top;
pos = (197,493);
}
);
background = {
shapes = (
{
closed = 1;
nodes = (
(312,491,o),
(251,508,o),
(197,508,cs),
(69,508,o),
(18,460,o),
(18,240,cs),
(18,33,o),
(71,-10,o),
(138,-10,cs),
(165,-10,o),
(211,10,o),
(229,40,c),
(237,0,l),
(349,0,l),
(345,59,o),
(339,132,o),
(338,238,cs),
(337,330,o),
(345,454,o),
(345,472,c)
);
},
{
closed = 1;
nodes = (
(222,106,l),
(213,102,o),
(203,99,o),
(190,99,cs),
(165,99,o),
(141,100,o),
(141,232,cs),
(141,375,o),
(148,400,o),
(193,400,cs),
(207,400,o),
(217,393,o),
(222,389,c)
);
}
);
};
layerId = m01;
shapes = (
{
closed = 1;
nodes = (
(169,-10,o),
(211,10,o),
(229,40,c),
(237,0,l),
(349,0,l),
(344,59,o),
(339,132,o),
(338,238,cs),
(337,330,o),
(345,454,o),
(345,472,c),
(312,491,o),
(256,508,o),
(189,508,cs),
(74,508,o),
(18,458,o),
(18,246,cs),
(18,33,o),
(74,-10,o),
(130,-10,cs)
);
},
{
closed = 1;
nodes = (
(161,99,o),
(141,102,o),
(141,258,cs),
(141,369,o),
(151,400,o),
(189,400,cs),
(207,400,o),
(217,393,o),
(222,389,c),
(222,106,l),
(209,101,o),
(204,99,o),
(185,99,cs)
);
}
);
userData = {
com.hugojourdan.ColorFlow = {
"0" = 0;
"1" = 0;
"10" = 0;
"11" = 0;
"2" = 0;
"3" = 0;
"4" = 0;
"5" = 0;
"6" = 0;
"7" = 0;
"8" = 0;
"9" = 0;
};
};
width = 377;
}
);
metricLeft = o;
metricRight = "=n-4";
note = a;
unicode = 97;
},
{
color = 4;
glyphname = aacute;
lastChange = "2026-04-14 15:25:22 +0000";
layers = (
{
background = {
shapes = (
{
closed = 1;
nodes = (
(262,586,ls),
(297,599,o),
(306,625,o),
(306,652,cs),
(306,690,o),
(281,724,o),
(281,724,c),
(129,625,l),
(129,610,o),
(141,567,o),
(158,548,c)
);
},
{
closed = 1;
nodes = (
(321,491,o),
(260,508,o),
(206,508,cs),
(78,508,o),
(27,460,o),
(27,240,cs),
(27,33,o),
(80,-10,o),
(147,-10,cs),
(174,-10,o),
(220,10,o),
(238,40,c),
(246,0,l),
(358,0,l),
(354,59,o),
(348,132,o),
(347,238,cs),
(346,330,o),
(354,454,o),
(354,472,c)
);
},
{
closed = 1;
nodes = (
(231,106,l),
(222,102,o),
(212,99,o),
(199,99,cs),
(174,99,o),
(150,100,o),
(150,232,cs),
(150,375,o),
(157,400,o),
(202,400,cs),
(216,400,o),
(226,393,o),
(231,389,c)
);
}
);
};
layerId = m01;
shapes = (
{
ref = a;
},
{
pos = (120,-7);
ref = acute;
}
);
userData = {
com.hugojourdan.ColorFlow = {
"0" = 0;
"1" = 0;
"10" = 0;
"11" = 0;
"2" = 0;
"3" = 0;
"4" = 0;
"5" = 0;
"6" = 0;
"7" = 0;
"8" = 0;
"9" = 0;
};
};
width = 377;
}
);
note = aacute;
unicode = 225;
},
{
color = 4;
glyphname = acircumflex;
lastChange = "2026-04-14 15:25:22 +0000";
layers = (
{
background = {
shapes = (
{
closed = 1;
nodes = (
(117,647,ls),
(97,636,o),
(90,620,o),
(90,604,cs),
(90,579,o),
(105,552,o),
(121,536,c),
(204,599,l),
(288,536,l),
(305,555,o),
(319,580,o),
(319,606,cs),
(319,622,o),
(312,637,o),
(293,647,cs),
(205,695,l)
);
},
{
closed = 1;
nodes = (
(321,491,o),
(260,508,o),
(206,508,cs),
(78,508,o),
(27,460,o),
(27,240,cs),
(27,33,o),
(80,-10,o),
(147,-10,cs),
(174,-10,o),
(220,10,o),
(238,40,c),
(246,0,l),
(358,0,l),
(354,59,o),
(348,132,o),
(347,238,cs),
(346,330,o),
(354,454,o),
(354,472,c)
);
},
{
closed = 1;
nodes = (
(231,106,l),
(222,102,o),
(212,99,o),
(199,99,cs),
(174,99,o),
(150,100,o),
(150,232,cs),
(150,375,o),
(157,400,o),
(202,400,cs),
(216,400,o),
(226,393,o),
(231,389,c)
);
}
);
};
layerId = m01;
shapes = (
{
ref = a;
},
{
pos = (82,-7);
ref = circumflex;
}
);
userData = {
com.hugojourdan.ColorFlow = {
"0" = 0;
"1" = 0;
"10" = 0;
"11" = 0;
"2" = 0;
"3" = 0;
"4" = 0;
"5" = 0;
"6" = 0;
"7" = 0;
"8" = 0;
"9" = 0;
};
};
width = 377;
}
);
note = acircumflex;
unicode = 226;
},
{
color = 4;
glyphname = adieresis;
lastChange = "2026-04-14 15:25:22 +0000";
layers = (
{
background = {
shapes = (
{
closed = 1;
nodes = (
(98,667,o),
(73,646,o),
(73,613,cs),
(73,573,o),
(98,553,o),
(132,553,cs),
(165,553,o),
(192,573,o),
(192,613,cs),
(192,646,o),
(165,667,o),
(132,667,cs)
);
},
{
closed = 1;
nodes = (
(254,667,o),
(228,646,o),
(228,613,cs),
(228,573,o),
(254,553,o),
(287,553,cs),
(321,553,o),
(347,573,o),
(347,613,cs),
(347,646,o),
(321,667,o),
(287,667,cs)
);
},
{
closed = 1;
nodes = (
(321,491,o),
(260,508,o),
(206,508,cs),
(78,508,o),
(27,460,o),
(27,240,cs),
(27,33,o),
(80,-10,o),
(147,-10,cs),
(174,-10,o),
(220,10,o),
(238,40,c),
(246,0,l),
(358,0,l),
(354,59,o),
(348,132,o),
(347,238,cs),
(346,330,o),
(354,454,o),
(354,472,c)
);
},
{
closed = 1;
nodes = (
(231,106,l),
(222,102,o),
(212,99,o),
(199,99,cs),
(174,99,o),
(150,100,o),
(150,232,cs),
(150,375,o),
(157,400,o),
(202,400,cs),
(216,400,o),
(226,393,o),
(231,389,c)
);
}
);
};
layerId = m01;
shapes = (
{
ref = a;
},
{
pos = (60,-7);
ref = dieresis;
}
);
userData = {
com.hugojourdan.ColorFlow = {
"0" = 0;
"1" = 0;
"10" = 0;
"11" = 0;
"2" = 0;
"3" = 0;
"4" = 0;
"5" = 0;
"6" = 0;
"7" = 0;
"8" = 0;
"9" = 0;
};
};
width = 377;
}
);
note = adieresis;
unicode = 228;
},
{
color = 4;
glyphname = agrave;
lastChange = "2026-04-14 15:25:22 +0000";
layers = (
{
background = {
shapes = (
{
closed = 1;
nodes = (
(262,548,l),
(280,566,o),
(291,610,o),
(291,625,c),
(139,724,l),
(137,724,o),
(114,686,o),
(114,646,cs),
(114,621,o),
(125,598,o),
(158,586,cs)
);
},
{
closed = 1;
nodes = (
(321,491,o),
(260,508,o),
(206,508,cs),
(78,508,o),
(27,460,o),
(27,240,cs),
(27,33,o),
(80,-10,o),
(147,-10,cs),
(174,-10,o),
(220,10,o),
(238,40,c),
(246,0,l),
(358,0,l),
(354,59,o),
(348,132,o),
(347,238,cs),
(346,330,o),
(354,454,o),
(354,472,c)
);
},
{
closed = 1;
nodes = (
(231,106,l),
(222,102,o),
(212,99,o),
(199,99,cs),
(174,99,o),
(150,100,o),
(150,232,cs),
(150,375,o),
(157,400,o),
(202,400,cs),
(216,400,o),
(226,393,o),
(231,389,c)
);
}
);
};
layerId = m01;
shapes = (
{
ref = a;
},
{
pos = (106,-7);
ref = grave;
}
);
userData = {
com.hugojourdan.ColorFlow = {
"0" = 0;
"1" = 0;
"10" = 0;
"11" = 0;
"2" = 0;
"3" = 0;
"4" = 0;
"5" = 0;
"6" = 0;
"7" = 0;
"8" = 0;
"9" = 0;
};
};
width = 377;
}
);
note = agrave;
unicode = 224;
},
{
color = 4;
glyphname = aogonek;
lastChange = "2026-04-22 21:24:03 +0000";
layers = (
{
background = {
shapes = (
{
closed = 1;
nodes = (
(347,81,o),
(348,132,o),
(347,238,cs),
(346,330,o),
(354,454,o),
(354,472,c),
(321,491,o),
(260,509,o),
(206,509,cs),
(78,509,o),
(27,460,o),
(27,240,cs),
(27,33,o),
(80,-10,o),
(147,-10,cs),
(174,-10,o),
(213,11,o),
(238,40,c),
(241,13,l),
(221,0,o),
(195,-23,o),
(195,-53,cs),
(195,-100,o),
(230,-119,o),
(270,-119,cs),
(298,-119,o),
(329,-109,o),
(351,-91,c),
(345,-71,o),
(339,-55,o),
(329,-41,c),
(322,-44,o),
(311,-48,o),
(302,-48,cs),
(293,-48,o),
(288,-40,o),
(288,-30,cs),
(288,-8,o),
(316,10,o),
(351,22,c)
);
},
{
closed = 1;
nodes = (
(231,106,l),
(222,102,o),
(212,99,o),
(199,99,cs),
(174,99,o),
(150,100,o),
(150,232,cs),
(150,375,o),
(157,400,o),
(202,400,cs),
(216,400,o),
(226,393,o),
(231,389,c)
);
}
);
};
layerId = m01;
shapes = (
{
ref = a;
},
{
pos = (218,11);
ref = ogonek;
}
);
userData = {
com.hugojourdan.ColorFlow = {
"0" = 0;
"1" = 0;
"10" = 0;
"11" = 0;
"2" = 0;
"3" = 0;
"4" = 0;
"5" = 0;
"6" = 0;
"7" = 0;
"8" = 0;
"9" = 0;
};
};
width = 377;
}
);
note = aogonek;
unicode = 261;
},
{
color = 4;
glyphname = aring;
lastChange = "2026-04-14 15:25:22 +0000";
layers = (
{
background = {
shapes = (
{
closed = 1;
nodes = (
(283,685,o),
(248,702,o),
(205,702,cs),
(164,702,o),
(127,685,o),
(127,619,cs),
(127,553,o),
(163,537,o),
(205,537,cs),
(249,537,o),
(283,553,o),
(283,619,cs)
);
},
{
closed = 1;
nodes = (
(228,606,o),
(224,589,o),
(205,589,cs),
(186,589,o),
(182,606,o),
(182,619,cs),
(182,637,o),
(190,649,o),
(205,649,cs),
(221,649,o),
(228,637,o),
(228,619,cs)
);
},
{
closed = 1;
nodes = (
(321,491,o),
(260,508,o),
(206,508,cs),
(78,508,o),
(27,460,o),
(27,240,cs),
(27,33,o),
(80,-10,o),
(147,-10,cs),
(174,-10,o),
(220,10,o),
(238,40,c),
(246,0,l),
(358,0,l),
(354,59,o),
(348,132,o),
(347,238,cs),
(346,330,o),
(354,454,o),
(354,472,c)
);
},
{
closed = 1;
nodes = (
(231,106,l),
(222,102,o),
(212,99,o),
(199,99,cs),
(174,99,o),
(150,100,o),
(150,232,cs),
(150,375,o),
(157,400,o),
(202,400,cs),
(216,400,o),
(226,393,o),
(231,389,c)
);
}
);
};
layerId = m01;
shapes = (
{
ref = a;
},
{
pos = (119,-7);
ref = ring;
}
);
userData = {
com.hugojourdan.ColorFlow = {
"0" = 0;
"1" = 0;
"10" = 0;
"11" = 0;
"2" = 0;
"3" = 0;
"4" = 0;
"5" = 0;
"6" = 0;
"7" = 0;
"8" = 0;
"9" = 0;
};
};
width = 377;
}
);
note = aring;
unicode = 229;
},
{
color = 4;
glyphname = atilde;
lastChange = "2026-04-14 15:25:22 +0000";
layers = (
{
background = {
shapes = (
{
closed = 1;
nodes = (
(172,592,l),
(185,581,o),
(228,536,o),
(257,536,cs),
(303,536,o),
(344,606,o),
(360,636,c),
(349,654,o),
(320,678,o),
(307,680,c),
(247,630,l),
(234,641,o),
(191,686,o),
(162,686,cs),
(116,686,o),
(75,616,o),
(59,586,c),
(70,568,o),
(99,544,o),
(112,542,c)
);
},
{
closed = 1;
nodes = (
(321,491,o),
(260,508,o),
(206,508,cs),
(78,508,o),
(27,460,o),
(27,240,cs),
(27,33,o),
(80,-10,o),
(147,-10,cs),
(174,-10,o),
(220,10,o),
(238,40,c),
(246,0,l),
(358,0,l),
(354,59,o),
(348,132,o),
(347,238,cs),
(346,330,o),
(354,454,o),
(354,472,c)
);
},
{
closed = 1;
nodes = (
(231,106,l),
(222,102,o),
(212,99,o),
(199,99,cs),
(174,99,o),
(150,100,o),
(150,232,cs),
(150,375,o),
(157,400,o),
(202,400,cs),
(216,400,o),
(226,393,o),
(231,389,c)
);
}
);
};
layerId = m01;
shapes = (
{
ref = a;
},
{
pos = (46,-7);
ref = tilde;
}
);
userData = {
com.hugojourdan.ColorFlow = {
"0" = 0;
"1" = 0;
"10" = 0;
"11" = 0;
"2" = 0;
"3" = 0;
"4" = 0;
"5" = 0;
"6" = 0;
"7" = 0;
"8" = 0;
"9" = 0;
};
};
width = 377;
}
);
note = atilde;
unicode = 227;
},
{
color = 4;
glyphname = ae;
lastChange = "2026-04-14 15:25:22 +0000";
layers = (
{
layerId = m01;
shapes = (
{
closed = 1;
nodes = (
(188,-8,o),
(236,24,o),
(258,52,c),
(289,7,o),
(336,-8,o),
(389,-8,cs),
(461,-8,o),
(515,19,o),
(520,22,c),
(518,41,o),
(513,86,o),
(506,105,c),
(475,96,o),
(446,89,o),
(409,89,cs),
(369,89,o),
(346,108,o),
(346,158,c),
(409,158,o),
(462,161,o),
(521,170,c),
(527,218,o),
(531,255,o),
(531,320,cs),
(531,458,o),
(472,508,o),
(381,508,cs),
(340,508,o),
(308,498,o),
(285,482,c),
(264,497,o),
(235,508,o),
(184,508,cs),
(73,508,o),
(18,460,o),
(18,240,cs),
(18,33,o),
(73,-8,o),
(134,-8,cs)
);
},
{
closed = 1;
nodes = (
(165,99,o),
(141,100,o),
(141,241,cs),
(141,375,o),
(151,400,o),
(188,400,cs),
(210,400,o),
(222,391,o),
(227,386,c),
(234,110,l),
(225,106,o),
(203,99,o),
(190,99,cs)
);
},
{
closed = 1;
nodes = (
(338,284,o),
(338,264,o),
(338,303,cs),
(339,384,o),
(351,400,o),
(379,400,cs),
(412,400,o),
(419,370,o),
(419,252,c),
(400,250,o),
(361,249,o),
(338,249,c)
);
}
);
userData = {
com.hugojourdan.ColorFlow = {
"0" = 0;
"1" = 0;
"10" = 0;
"11" = 0;
"2" = 0;
"3" = 0;
"4" = 0;
"5" = 0;
"6" = 0;
"7" = 0;
"8" = 0;
"9" = 0;
};
};
width = 553;
}
);
metricLeft = "=a";
metricRight = "=e";
note = ae;
unicode = 230;
},
{
color = 4;
glyphname = b;
lastChange = "2026-04-14 15:25:22 +0000";
layers = (
{
background = {
shapes = (
{
closed = 1;
nodes = (
(32,174,o),
(30,83,o),
(28,20,c),
(78,-2,o),
(133,-10,o),
(183,-10,cs),
(258,-10,o),
(357,33,o),
(357,240,cs),
(357,450,o),
(317,510,o),
(219,510,cs),
(194,510,o),
(172,502,o),
(152,494,c),
(154,568,o),
(156,600,o),
(157,630,c),
(83,631,o),
(46,622,o),
(28,617,c),
(31,503,o),
(32,391,o),
(32,280,cs)
);
},
{
closed = 1;
nodes = (
(153,389,l),
(157,393,o),
(168,400,o),
(181,400,cs),
(227,400,o),
(233,375,o),
(233,232,cs),
(233,100,o),
(210,87,o),
(185,87,cs),
(172,87,o),
(161,90,o),
(151,94,c)
);
}
);
};
layerId = m01;
shapes = (
{
closed = 1;
nodes = (
(259,-10,o),
(357,24,o),
(357,261,cs),
(357,376,o),
(345,510,o),
(229,510,cs),
(198,510,o),
(170,502,o),
(152,494,c),
(154,568,o),
(156,600,o),
(157,630,c),
(83,631,o),
(46,622,o),
(28,617,c),
(31,503,o),
(32,391,o),
(32,280,cs),
(32,174,o),
(30,83,o),
(28,20,c),
(84,-2,o),
(134,-10,o),
(175,-10,cs)
);
},
{
closed = 1;
nodes = (
(172,87,o),
(161,90,o),
(151,94,c),
(153,389,l),
(162,396,o),
(173,400,o),
(184,400,cs),
(225,400,o),
(233,376,o),
(233,232,cs),
(233,100,o),
(210,87,o),
(185,87,cs)
);
}
);
userData = {
com.hugojourdan.ColorFlow = {
"0" = 0;
"1" = 0;
"10" = 0;
"11" = 0;
"2" = 0;
"3" = 0;
"4" = 0;
"5" = 0;
"6" = 0;
"7" = 0;
"8" = 0;
"9" = 0;
};
};
width = 375;
}
);
metricLeft = "=n";
metricRight = "=o";
note = b;
unicode = 98;
},
{
color = 4;
glyphname = c;
lastChange = "2026-04-14 15:25:22 +0000";
layers = (
{
anchors = (
{
name = cedilla;
pos = (186,4);
},
{
name = top;
pos = (184,493);
}
);
layerId = m01;
shapes = (
{
closed = 1;
nodes = (
(226,-10,o),
(264,-2,o),
(295,13,c),
(294,32,o),
(285,88,o),
(280,104,c),
(251,100,o),
(222,98,o),
(199,98,cs),
(160,98,o),
(139,140,o),
(139,261,cs),
(139,361,o),
(155,394,o),
(199,394,cs),
(222,394,o),
(243,392,o),
(266,387,c),
(275,411,o),
(286,459,o),
(288,488,c),
(261,501,o),
(225,508,o),
(182,508,cs),
(82,508,o),
(18,471,o),
(18,266,cs),
(18,24,o),
(107,-10,o),
(187,-10,cs)
);
}
);
userData = {
com.hugojourdan.ColorFlow = {
"0" = 0;
"1" = 0;
"10" = 0;
"11" = 0;
"2" = 0;
"3" = 0;
"4" = 0;
"5" = 0;
"6" = 0;
"7" = 0;
"8" = 0;
"9" = 0;
};
};
width = 303;
}
);
metricLeft = o;
metricRight = "=o-10";
note = c;
unicode = 99;
},
{
color = 4;
glyphname = ccedilla;
lastChange = "2026-04-14 15:25:22 +0000";
layers = (
{
background = {
shapes = (
{
closed = 1;
nodes = (
(150,108,o),
(140,180,o),
(140,282,cs),
(140,366,o),
(156,394,o),
(200,394,cs),
(223,394,o),
(244,392,o),
(267,387,c),
(276,411,o),
(287,459,o),
(289,488,c),
(262,501,o),
(226,508,o),
(183,508,cs),
(83,508,o),
(23,474,o),
(19,288,cs),
(15,113,o),
(56,27,o),
(129,8,c),
(126,-6,o),
(123,-16,o),
(123,-34,c),
(128,-33,o),
(131,-34,o),
(135,-34,cs),
(153,-35,o),
(160,-42,o),
(160,-54,cs),
(160,-63,o),
(151,-68,o),
(142,-68,cs),
(133,-68,o),
(123,-66,o),
(117,-64,c),
(109,-85,o),
(107,-96,o),
(107,-114,c),
(128,-121,o),
(153,-123,o),
(176,-123,cs),
(212,-123,o),
(239,-97,o),
(239,-62,cs),
(239,-37,o),
(225,-15,o),
(202,-13,c),
(203,0,l),
(233,2,o),
(271,10,o),
(296,22,c),
(295,41,o),
(286,98,o),
(281,114,c),
(252,110,o),
(223,108,o),
(200,108,cs)
);
}
);
};
layerId = m01;
shapes = (
{
ref = c;
},
{
pos = (103,4);
ref = cedilla;
}
);
userData = {
com.hugojourdan.ColorFlow = {
"0" = 0;
"1" = 0;
"10" = 0;
"11" = 0;
"2" = 0;
"3" = 0;
"4" = 0;
"5" = 0;
"6" = 0;
"7" = 0;
"8" = 0;
"9" = 0;
};
};
width = 303;
}
);
note = ccedilla;
unicode = 231;
},
{
color = 4;
glyphname = d;
lastChange = "2026-04-14 15:25:22 +0000";
layers = (
{
background = {
shapes = (
{
closed = 1;
nodes = (
(222,106,l),
(212,102,o),
(203,99,o),
(190,99,cs),
(164,99,o),
(141,100,o),
(141,232,cs),
(141,375,o),
(147,400,o),
(193,400,cs),
(207,400,o),
(217,393,o),
(222,389,c)
);
},
{
closed = 1;
nodes = (
(343,453,o),
(351,630,o),
(351,630,c),
(267,630,o),
(241,620,o),
(222,616,c),
(222,616,o),
(223,562,o),
(224,496,c),
(205,505,o),
(184,510,o),
(163,510,cs),
(63,510,o),
(18,460,o),
(18,240,cs),
(18,33,o),
(71,-10,o),
(146,-10,cs),
(172,-10,o),
(211,10,o),
(228,40,c),
(237,0,l),
(348,0,l),
(347,6,o),
(347,14,o),
(347,21,cs),
(345,74,o),
(343,220,o),
(343,341,cs)
);
}
);
};
layerId = m01;
shapes = (
{
closed = 1;
nodes = (
(177,-10,o),
(211,10,o),
(228,40,c),
(237,0,l),
(348,0,l),
(346,20,o),
(343,317,o),
(343,341,cs),
(343,452,o),
(349,598,o),
(351,630,c),
(278,630,o),
(241,621,o),
(222,616,c),
(222,596,o),
(223,562,o),
(224,496,c),
(205,505,o),
(184,510,o),
(163,510,cs),
(63,510,o),
(18,460,o),
(18,240,cs),
(18,33,o),
(76,-10,o),
(137,-10,cs)
);
},
{
closed = 1;
nodes = (
(164,99,o),
(141,102,o),
(141,235,cs),
(141,375,o),
(150,400,o),
(191,400,cs),
(208,400,o),
(215,395,o),
(222,389,c),
(222,106,l),
(212,102,o),
(203,99,o),
(188,99,cs)
);
}
);
userData = {
com.hugojourdan.ColorFlow = {
"0" = 0;
"1" = 0;
"10" = 0;
"11" = 0;
"2" = 0;
"3" = 0;
"4" = 0;
"5" = 0;
"6" = 0;
"7" = 0;
"8" = 0;
"9" = 0;
};
};
width = 383;
}
);
metricLeft = "=o";
metricRight = "=n";
note = d;
unicode = 100;
},
{
color = 4;
glyphname = eth;
lastChange = "2026-04-14 15:25:22 +0000";
layers = (
{
layerId = m01;
shapes = (
{
closed = 1;
nodes = (
(290,-10,o),
(344,48,o),
(344,252,cs),
(344,475,o),
(279,512,o),
(178,512,cs),
(71,512,o),
(18,454,o),
(18,252,cs),
(18,48,o),
(73,-10,o),
(178,-10,cs)
);
},
{
closed = 1;
nodes = (
(140,97,o),
(136,143,o),
(136,265,cs),
(136,386,o),
(140,401,o),
(182,401,cs),
(222,401,o),
(226,378,o),
(226,256,cs),
(226,111,o),
(212,97,o),
(180,97,cs)
);
},
{
closed = 1;
nodes = (
(344,530,o),
(256,654,o),
(228,690,cs),
(211,712,o),
(186,728,o),
(155,728,cs),
(139,728,o),
(112,723,o),
(105,709,c),
(162,636,o),
(194,567,o),
(201,468,c),
(344,252,l)
);
},
{
closed = 1;
nodes = (
(317,614,l),
(319,623,o),
(316,639,o),
(311,652,cs),
(306,670,o),
(296,688,o),
(291,694,c),
(101,632,l),
(100,625,o),
(102,606,o),
(109,589,cs),
(113,574,o),
(119,560,o),
(127,552,c)
);
}
);
userData = {
com.hugojourdan.ColorFlow = {
"0" = 0;
"1" = 0;
"10" = 0;
"11" = 0;
"2" = 0;
"3" = 0;
"4" = 0;
"5" = 0;
"6" = 0;
"7" = 0;
"8" = 0;
"9" = 0;
};
};
width = 362;
}
);
metricLeft = o;
metricRight = o;
unicode = 240;
},
{
color = 6;
glyphname = e;
lastChange = "2026-04-22 21:11:50 +0000";
layers = (
{
anchors = (
{
name = bottom;
pos = (185,0);
},
{
name = ogonek;
pos = (256,13);
},
{
name = top;
pos = (183,493);
}
);
layerId = m01;
shapes = (
{
closed = 1;
nodes = (
(254,-10,o),
(293,5,o),
(323,22,c),
(321,40,o),
(316,86,o),
(309,105,c),
(278,96,o),
(249,89,o),
(220,89,cs),
(172,89,o),
(149,108,o),
(149,158,c),
(212,159,o),
(264,161,o),
(324,170,c),
(330,219,o),
(334,255,o),
(334,320,cs),
(334,458,o),
(280,510,o),
(181,510,cs),
(59,510,o),
(18,431,o),
(18,254,cs),
(18,45,o),
(90,-10,o),
(197,-10,cs)
);
},
{
closed = 1;
nodes = (
(140,259,o),
(140,266,o),
(140,271,cs),
(140,380,o),
(152,400,o),
(182,400,cs),
(218,400,o),
(222,370,o),
(222,252,c),
(197,250,o),
(168,248,o),
(141,249,c)
);
}
);
userData = {
com.hugojourdan.ColorFlow = {
"0" = 0;
"1" = 0;
"10" = 0;
"11" = 0;
"2" = 0;
"3" = 0;
"4" = 0;
"5" = 0;
"6" = 0;
"7" = 0;
"8" = 0;
"9" = 0;
};
};
width = 356;
}
);
metricLeft = "=o";
metricRight = "=o+4";
note = e;
unicode = 101;
},
{
color = 4;
glyphname = eacute;
lastChange = "2026-04-14 15:25:22 +0000";
layers = (
{
background = {
shapes = (
{
closed = 1;
nodes = (
(257,89,o),
(286,97,o),
(317,105,c),
(324,86,o),
(329,40,o),
(331,22,c),
(331,22,o),
(271,-10,o),
(202,-10,cs),
(98,-10,o),
(26,45,o),
(26,254,cs),
(26,431,o),
(63,510,o),
(192,510,cs),
(284,510,o),
(342,458,o),
(342,320,cs),
(342,255,o),
(340,224,o),
(332,170,c),
(273,161,o),
(220,160,o),
(157,158,c),
(157,108,o),
(180,89,o),
(220,89,cs)
);
},
{
closed = 1;
nodes = (
(230,370,o),
(223,400,o),
(190,400,cs),
(157,400,o),
(148,380,o),
(148,271,cs),
(148,266,o),
(149,259,o),
(149,249,c),
(172,249,o),
(211,250,o),
(230,252,c)
);
},
{
closed = 1;
nodes = (
(251,586,ls),
(286,599,o),
(295,625,o),
(295,652,cs),
(295,690,o),
(270,724,o),
(270,724,c),
(118,625,l),
(118,610,o),
(130,567,o),
(147,548,c)
);
}
);
};
layerId = m01;
shapes = (
{
ref = e;
},
{
pos = (106,-7);
ref = acute;
}
);
userData = {
com.hugojourdan.ColorFlow = {
"0" = 0;
"1" = 0;
"10" = 0;
"11" = 0;
"2" = 0;
"3" = 0;
"4" = 0;
"5" = 0;
"6" = 0;
"7" = 0;
"8" = 0;
"9" = 0;
};
};
width = 356;
}
);
note = eacute;
unicode = 233;
},
{
color = 4;
glyphname = ecircumflex;
lastChange = "2026-04-14 15:25:22 +0000";
layers = (
{
background = {
shapes = (
{
closed = 1;
nodes = (
(257,89,o),
(286,97,o),
(317,105,c),
(324,86,o),
(329,40,o),
(331,22,c),
(331,22,o),
(271,-10,o),
(202,-10,cs),
(98,-10,o),
(26,45,o),
(26,254,cs),
(26,431,o),
(63,510,o),
(192,510,cs),
(284,510,o),
(342,458,o),
(342,320,cs),
(342,255,o),
(340,224,o),
(332,170,c),
(273,161,o),
(220,160,o),
(157,158,c),
(157,108,o),
(180,89,o),
(220,89,cs)
);
},
{
closed = 1;
nodes = (
(230,370,o),
(223,400,o),
(190,400,cs),
(157,400,o),
(148,380,o),
(148,271,cs),
(148,266,o),
(149,259,o),
(149,249,c),
(172,249,o),
(211,250,o),
(230,252,c)
);
},
{
closed = 1;
nodes = (
(103,647,ls),
(83,636,o),
(76,620,o),
(76,604,cs),
(76,579,o),
(91,552,o),
(107,536,c),
(190,599,l),
(274,536,l),
(291,555,o),
(305,580,o),
(305,606,cs),
(305,622,o),
(298,637,o),
(279,647,cs),
(191,695,l)
);
}
);
};
layerId = m01;
shapes = (
{
ref = e;
},
{
pos = (68,-7);
ref = circumflex;
}
);
userData = {
com.hugojourdan.ColorFlow = {
"0" = 0;
"1" = 0;
"10" = 0;
"11" = 0;
"2" = 0;
"3" = 0;
"4" = 0;
"5" = 0;
"6" = 0;
"7" = 0;
"8" = 0;
"9" = 0;
};
};
width = 356;
}
);
note = ecircumflex;
unicode = 234;
},
{
color = 4;
glyphname = edieresis;
lastChange = "2026-04-14 15:25:22 +0000";
layers = (
{
background = {
shapes = (
{
closed = 1;
nodes = (
(257,89,o),
(286,97,o),
(317,105,c),
(324,86,o),
(329,40,o),
(331,22,c),
(331,22,o),
(271,-10,o),
(202,-10,cs),
(98,-10,o),
(26,45,o),
(26,254,cs),
(26,431,o),
(63,510,o),
(192,510,cs),
(284,510,o),
(342,458,o),
(342,320,cs),
(342,255,o),
(340,224,o),
(332,170,c),
(273,161,o),
(220,160,o),
(157,158,c),
(157,108,o),
(180,89,o),
(220,89,cs)
);
},
{
closed = 1;
nodes = (
(230,370,o),
(223,400,o),
(190,400,cs),
(157,400,o),
(148,380,o),
(148,271,cs),
(148,266,o),
(149,259,o),
(149,249,c),
(172,249,o),
(211,250,o),
(230,252,c)
);
},
{
closed = 1;
nodes = (
(82,667,o),
(57,646,o),
(57,613,cs),
(57,573,o),
(82,553,o),
(116,553,cs),
(149,553,o),
(176,573,o),
(176,613,cs),
(176,646,o),
(149,667,o),
(116,667,cs)
);
},
{
closed = 1;
nodes = (
(238,667,o),
(212,646,o),
(212,613,cs),
(212,573,o),
(238,553,o),
(271,553,cs),
(305,553,o),
(331,573,o),
(331,613,cs),
(331,646,o),
(305,667,o),
(271,667,cs)
);
}
);
};
layerId = m01;
shapes = (
{
ref = e;
},
{
pos = (46,-7);
ref = dieresis;
}
);
userData = {
com.hugojourdan.ColorFlow = {
"0" = 0;
"1" = 0;
"10" = 0;
"11" = 0;
"2" = 0;
"3" = 0;
"4" = 0;
"5" = 0;
"6" = 0;
"7" = 0;
"8" = 0;
"9" = 0;
};
};
width = 356;
}
);
note = edieresis;
unicode = 235;
},
{
color = 4;
glyphname = egrave;
lastChange = "2026-04-14 15:25:22 +0000";
layers = (
{
background = {
shapes = (
{
closed = 1;
nodes = (
(257,89,o),
(286,97,o),
(317,105,c),
(324,86,o),
(329,40,o),
(331,22,c),
(331,22,o),
(271,-10,o),
(202,-10,cs),
(98,-10,o),
(26,45,o),
(26,254,cs),
(26,431,o),
(63,510,o),
(192,510,cs),
(284,510,o),
(342,458,o),
(342,320,cs),
(342,255,o),
(340,224,o),
(332,170,c),
(273,161,o),
(220,160,o),
(157,158,c),
(157,108,o),
(180,89,o),
(220,89,cs)
);
},
{
closed = 1;
nodes = (
(230,370,o),
(223,400,o),
(190,400,cs),
(157,400,o),
(148,380,o),
(148,271,cs),
(148,266,o),
(149,259,o),
(149,249,c),
(172,249,o),
(211,250,o),
(230,252,c)
);
},
{
closed = 1;
nodes = (
(252,548,l),
(270,566,o),
(281,610,o),
(281,625,c),
(129,724,l),
(127,724,o),
(104,686,o),
(104,646,cs),
(104,621,o),
(115,598,o),
(148,586,cs)
);
}
);
};
layerId = m01;
shapes = (
{
ref = e;
},
{
pos = (92,-7);
ref = grave;
}
);
userData = {
com.hugojourdan.ColorFlow = {
"0" = 0;
"1" = 0;
"10" = 0;
"11" = 0;
"2" = 0;
"3" = 0;
"4" = 0;
"5" = 0;
"6" = 0;
"7" = 0;
"8" = 0;
"9" = 0;
};
};
width = 356;
}
);
note = egrave;
unicode = 232;
},
{
color = 4;
glyphname = eogonek;
lastChange = "2026-04-14 15:25:22 +0000";
layers = (
{
background = {
shapes = (
{
closed = 1;
nodes = (
(180,89,o),
(157,108,o),
(157,158,c),
(220,160,o),
(273,161,o),
(332,170,c),
(340,224,o),
(342,255,o),
(342,320,cs),
(342,458,o),
(284,510,o),
(192,510,cs),
(63,510,o),
(26,431,o),
(26,254,cs),
(26,50,o),
(94,-7,o),
(194,-10,c),
(183,-22,o),
(175,-36,o),
(175,-53,cs),
(175,-100,o),
(210,-119,o),
(250,-119,cs),
(278,-119,o),
(309,-109,o),
(331,-91,c),
(325,-71,o),
(319,-55,o),
(309,-41,c),
(302,-44,o),
(291,-48,o),
(282,-48,cs),
(273,-48,o),
(268,-40,o),
(268,-30,cs),
(268,-15,o),
(280,-2,o),
(298,8,c),
(318,15,o),
(331,22,o),
(331,22,c),
(329,40,o),
(324,86,o),
(317,105,c),
(286,97,o),
(257,89,o),
(220,89,cs)
);
},
{
closed = 1;
nodes = (
(211,250,o),
(172,249,o),
(149,249,c),
(149,259,o),
(148,266,o),
(148,271,cs),
(148,380,o),
(157,400,o),
(190,400,cs),
(223,400,o),
(230,370,o),
(230,252,c)
);
}
);
};
layerId = m01;
shapes = (
{
ref = e;
},
{
pos = (175,13);
ref = ogonek;
}
);
userData = {
com.hugojourdan.ColorFlow = {
"0" = 0;
"1" = 0;
"10" = 0;
"11" = 0;
"2" = 0;
"3" = 0;
"4" = 0;
"5" = 0;
"6" = 0;
"7" = 0;
"8" = 0;
"9" = 0;
};
};
width = 356;
}
);
note = eogonek;
unicode = 281;
},
{
color = 6;
glyphname = schwa;
lastChange = "2026-04-22 21:11:50 +0000";
layers = (
{
anchors = (
{
name = bottom;
pos = (167,500);
},
{
name = ogonek;
pos = (96,487);
},
{
name = top;
pos = (169,7);
}
);
layerId = m01;
shapes = (
{
closed = 1;
nodes = (
(98,510,o),
(59,495,o),
(29,478,c),
(31,460,o),
(36,414,o),
(43,395,c),
(74,404,o),
(103,411,o),
(132,411,cs),
(180,411,o),
(203,386,o),
(203,322,c),
(140,321,o),
(88,319,o),
(28,310,c),
(22,261,o),
(18,225,o),
(18,180,cs),
(18,42,o),
(72,-10,o),
(171,-10,cs),
(293,-10,o),
(334,69,o),
(334,246,cs),
(334,455,o),
(262,510,o),
(155,510,cs)
);
},
{
closed = 1;
nodes = (
(212,221,o),
(212,214,o),
(212,209,cs),
(212,117,o),
(200,100,o),
(170,100,cs),
(134,100,o),
(130,126,o),
(130,228,c),
(155,230,o),
(184,232,o),
(211,231,c)
);
}
);
userData = {
com.hugojourdan.ColorFlow = {
"0" = 0;
"1" = 0;
"10" = 0;
"11" = 0;
"2" = 0;
"3" = 0;
"4" = 0;
"5" = 0;
"6" = 0;
"7" = 0;
"8" = 0;
"9" = 0;
};
};
width = 352;
}
);
unicode = 601;
},
{
color = 4;
glyphname = f;
lastChange = "2026-04-14 15:25:22 +0000";
layers = (
{
background = {
shapes = (
{
closed = 1;
nodes = (
(25,362,l),
(73,362,l),
(73,304,o),
(74,247,o),
(74,193,cs),
(74,81,o),
(71,-74,o),
(70,-100,c),
(151,-100,o),
(178,-92,o),
(196,-85,c),
(195,-60,o),
(186,98,o),
(186,196,cs),
(186,241,o),
(185,303,o),
(185,362,c),
(258,362,l),
(258,452,l),
(186,452,l),
(186,465,ls),
(186,507,o),
(194,523,o),
(222,523,cs),
(231,523,o),
(242,522,o),
(258,520,c),
(268,542,o),
(276,584,o),
(278,603,c),
(260,616,o),
(232,630,o),
(187,630,cs),
(126,630,o),
(73,579,o),
(73,462,cs),
(73,452,l),
(25,452,l)
);
}
);
};
layerId = m01;
shapes = (
{
closed = 1;
nodes = (
(151,-100,o),
(178,-92,o),
(196,-85,c),
(193,-43,o),
(186,98,o),
(186,196,cs),
(186,241,o),
(185,303,o),
(185,362,c),
(258,362,l),
(258,452,l),
(186,452,l),
(186,465,ls),
(186,507,o),
(194,523,o),
(222,523,cs),
(231,523,o),
(242,522,o),
(258,520,c),
(268,542,o),
(276,584,o),
(278,603,c),
(259,616,o),
(229,630,o),
(192,630,cs),
(123,630,o),
(73,580,o),
(73,461,cs),
(73,452,l),
(25,452,l),
(25,362,l),
(73,362,l),
(73,304,o),
(74,247,o),
(74,193,cs),
(74,81,o),
(71,-74,o),
(70,-100,c)
);
}
);
userData = {
com.hugojourdan.ColorFlow = {
"0" = 0;
"1" = 0;
"10" = 0;
"11" = 0;
"2" = 0;
"3" = 0;
"4" = 0;
"5" = 0;
"6" = 0;
"7" = 0;
"8" = 0;
"9" = 0;
};
};
width = 268;
}
);
metricLeft = "=n-3";
metricRight = "=n-42";
note = f;
unicode = 102;
},
{
color = 4;
glyphname = g;
lastChange = "2026-04-14 15:25:22 +0000";
layers = (
{
anchors = (
{
name = top;
pos = (197,493);
}
);
background = {
shapes = (
{
closed = 1;
nodes = (
(304,-100,o),
(361,-46,o),
(361,32,cs),
(361,78,o),
(336,200,o),
(337,232,cs),
(343,472,l),
(309,493,o),
(252,510,o),
(191,510,cs),
(77,510,o),
(18,446,o),
(18,316,cs),
(18,204,o),
(53,159,o),
(107,139,c),
(83,115,o),
(59,84,o),
(59,26,cs),
(59,-38,o),
(107,-100,o),
(209,-100,cs)
);
},
{
closed = 1;
nodes = (
(181,-10,o),
(166,10,o),
(166,38,cs),
(166,76,o),
(193,98,o),
(234,122,c),
(236,112,o),
(247,62,o),
(247,38,cs),
(247,-2,o),
(229,-10,o),
(206,-10,cs)
);
},
{
closed = 1;
nodes = (
(168,201,o),
(144,202,o),
(144,292,cs),
(144,386,o),
(152,408,o),
(192,408,cs),
(203,408,o),
(215,403,o),
(219,401,c),
(219,206,l),
(211,204,o),
(206,201,o),
(189,201,cs)
);
}
);
};
layerId = m01;
shapes = (
{
closed = 1;
nodes = (
(304,-100,o),
(361,-46,o),
(361,32,cs),
(361,84,o),
(336,200,o),
(337,232,cs),
(343,472,l),
(309,493,o),
(252,510,o),
(191,510,cs),
(77,510,o),
(18,448,o),
(18,313,cs),
(18,206,o),
(53,159,o),
(107,139,c),
(83,115,o),
(59,82,o),
(59,32,cs),
(59,-40,o),
(107,-100,o),
(209,-100,cs)
);
},
{
closed = 1;
nodes = (
(181,-10,o),
(166,10,o),
(166,38,cs),
(166,76,o),
(193,98,o),
(234,122,c),
(239,101,o),
(247,62,o),
(247,38,cs),
(247,-2,o),
(229,-10,o),
(206,-10,cs)
);
},
{
closed = 1;
nodes = (
(168,201,o),
(144,202,o),
(144,313,cs),
(144,381,o),
(152,408,o),
(192,408,cs),
(203,408,o),
(215,403,o),
(219,401,c),
(219,206,l),
(211,203,o),
(202,201,o),
(189,201,cs)
);
}
);
userData = {
com.hugojourdan.ColorFlow = {
"0" = 0;
"1" = 0;
"10" = 0;
"11" = 0;
"2" = 0;
"3" = 0;
"4" = 0;
"5" = 0;
"6" = 0;
"7" = 0;
"8" = 0;
"9" = 0;
};
};
width = 385;
}
);
metricLeft = "=o";
metricRight = "=n-8";
note = g;
unicode = 103;
},
{
color = 4;
glyphname = h;
lastChange = "2026-04-14 15:25:22 +0000";
layers = (
{
background = {
shapes = (
{
closed = 1;
nodes = (
(354,446,o),
(326,510,o),
(226,510,cs),
(195,510,o),
(171,503,o),
(152,496,c),
(154,566,o),
(156,593,o),
(157,630,c),
(87,630,o),
(49,622,o),
(28,617,c),
(29,573,o),
(33,436,o),
(33,338,cs),
(33,226,o),
(28,0,o),
(28,0,c),
(157,0,l),
(157,0,o),
(149,190,o),
(149,341,cs),
(149,390,l),
(166,400,o),
(179,400,o),
(190,400,cs),
(219,400,o),
(230,382,o),
(230,309,cs),
(230,62,ls),
(230,13,o),
(248,-5,o),
(297,-5,cs),
(313,-5,o),
(333,-4,o),
(354,1,c),
(351,45,o),
(354,236,o),
(354,318,cs)
);
}
);
};
layerId = m01;
shapes = (
{
closed = 1;
nodes = (
(313,-5,o),
(334,-3,o),
(354,0,c),
(351,44,o),
(354,236,o),
(354,318,cs),
(354,446,o),
(325,510,o),
(226,510,cs),
(194,510,o),
(171,503,o),
(152,496,c),
(154,566,o),
(156,593,o),
(157,630,c),
(87,630,o),
(49,622,o),
(28,617,c),
(30,573,o),
(33,436,o),
(33,338,cs),
(33,229,o),
(30,55,o),
(28,0,c),
(157,0,l),
(155,61,o),
(149,191,o),
(149,341,cs),
(149,390,l),
(164,397,o),
(178,400,o),
(190,400,cs),
(219,400,o),
(230,382,o),
(230,309,cs),
(230,62,ls),
(230,13,o),
(248,-5,o),
(297,-5,cs)
);
}
);
userData = {
com.hugojourdan.ColorFlow = {
"0" = 0;
"1" = 0;
"10" = 0;
"11" = 0;
"2" = 0;
"3" = 0;
"4" = 0;
"5" = 0;
"6" = 0;
"7" = 0;
"8" = 0;
"9" = 0;
};
};
width = 386;
}
);
metricLeft = "=n";
metricRight = n;
note = h;
unicode = 104;
},
{
color = 6;
glyphname = hbar;
lastChange = "2026-04-22 21:23:40 +0000";
layers = (
{
layerId = m01;
shapes = (
{
closed = 1;
nodes = (
(313,-5,o),
(334,-3,o),
(354,0,c),
(351,41,o),
(354,220,o),
(354,296,cs),
(354,424,o),
(325,488,o),
(226,488,cs),
(194,488,o),
(171,481,o),
(152,474,c),
(154,555,o),
(156,587,o),
(157,630,c),
(87,630,o),
(49,622,o),
(28,617,c),
(30,573,o),
(33,436,o),
(33,338,cs),
(33,229,o),
(30,55,o),
(28,0,c),
(157,0,l),
(155,57,o),
(149,179,o),
(149,319,cs),
(149,368,l),
(164,375,o),
(178,378,o),
(190,378,cs),
(219,378,o),
(230,360,o),
(230,287,cs),
(230,62,ls),
(230,13,o),
(248,-5,o),
(297,-5,cs)
);
},
{
closed = 1;
nodes = (
(252,501,l),
(257,512,o),
(259,528,o),
(259,543,cs),
(259,564,o),
(255,586,o),
(252,594,c),
(-2,594,l),
(-6,586,o),
(-9,566,o),
(-9,545,cs),
(-9,529,o),
(-7,513,o),
(-2,501,c)
);
}
);
userData = {
com.hugojourdan.ColorFlow = {
"0" = 0;
"1" = 0;
"10" = 0;
"11" = 0;
"2" = 0;
"3" = 0;
"4" = 0;
"5" = 0;
"6" = 0;
"7" = 0;
"8" = 0;
"9" = 0;
};
};
width = 386;
}
);
metricRight = h;
unicode = 295;
},
{
color = 4;
glyphname = i;
lastChange = "2026-04-14 15:25:22 +0000";
layers = (
{
layerId = m01;
shapes = (
{
closed = 1;
nodes = (
(157,0,l),
(153,77,o),
(150,179,o),
(150,293,cs),
(150,378,o),
(152,469,o),
(153,500,c),
(84,503,o),
(53,494,o),
(34,488,c),
(36,457,o),
(37,359,o),
(37,290,cs),
(37,201,o),
(33,75,o),
(30,0,c)
);
},
{
closed = 1;
nodes = (
(131,530,o),
(159,550,o),
(159,590,cs),
(159,624,o),
(131,645,o),
(95,645,cs),
(59,645,o),
(30,624,o),
(30,590,cs),
(30,550,o),
(59,530,o),
(95,530,cs)
);
}
);
userData = {
com.hugojourdan.ColorFlow = {
"0" = 0;
"1" = 0;
"10" = 0;
"11" = 0;
"2" = 0;
"3" = 0;
"4" = 0;
"5" = 0;
"6" = 0;
"7" = 0;
"8" = 0;
"9" = 0;
};
};
width = 191;
}
);
metricLeft = "=n+2";
metricRight = "=n";
note = i;
unicode = 105;
},
{
color = 4;
glyphname = idotless;
lastChange = "2026-04-14 15:25:22 +0000";
layers = (
{
anchors = (
{
name = bottom;
pos = (93,0);
},
{
name = ogonek;
pos = (157,0);
},
{
name = top;
pos = (93,493);
}
);
layerId = m01;
shapes = (
{
closed = 1;
nodes = (
(157,0,l),
(153,77,o),
(150,179,o),
(150,293,cs),
(150,378,o),
(152,469,o),
(153,500,c),
(84,503,o),
(53,494,o),
(34,488,c),
(36,457,o),
(37,359,o),
(37,290,cs),
(37,201,o),
(33,75,o),
(30,0,c)
);
}
);
userData = {
com.hugojourdan.ColorFlow = {
"0" = 0;
"1" = 0;
"10" = 0;
"11" = 0;
"2" = 0;
"3" = 0;
"4" = 0;
"5" = 0;
"6" = 0;
"7" = 0;
"8" = 0;
"9" = 0;
};
};
width = 185;
}
);
unicode = 305;
},
{
color = 4;
glyphname = iacute;
lastChange = "2026-04-14 15:25:22 +0000";
layers = (
{
background = {
shapes = (
{
closed = 1;
nodes = (
(150,382,o),
(153,500,o),
(153,500,c),
(71,503,o),
(53,491,o),
(34,488,c),
(34,488,o),
(37,369,o),
(37,290,cs),
(37,202,o),
(30,0,o),
(30,0,c),
(157,0,l),
(157,0,o),
(150,174,o),
(150,293,cs)
);
},
{
closed = 1;
nodes = (
(157,586,ls),
(192,599,o),
(201,625,o),
(201,652,cs),
(201,690,o),
(176,724,o),
(176,724,c),
(24,625,l),
(24,610,o),
(36,567,o),
(53,548,c)
);
}
);
};
layerId = m01;
shapes = (
{
ref = idotless;
},
{
pos = (16,-7);
ref = acute;
}
);
userData = {
com.hugojourdan.ColorFlow = {
"0" = 0;
"1" = 0;
"10" = 0;
"11" = 0;
"2" = 0;
"3" = 0;
"4" = 0;
"5" = 0;
"6" = 0;
"7" = 0;
"8" = 0;
"9" = 0;
};
};
width = 185;
}
);
note = iacute;
unicode = 237;
},
{
color = 4;
glyphname = icircumflex;
lastChange = "2026-04-14 15:25:22 +0000";
layers = (
{
background = {
shapes = (
{
closed = 1;
nodes = (
(148,382,o),
(151,500,o),
(151,500,c),
(70,503,o),
(51,491,o),
(32,488,c),
(32,488,o),
(35,369,o),
(35,290,cs),
(35,202,o),
(29,0,o),
(29,0,c),
(155,0,l),
(155,0,o),
(148,174,o),
(148,293,cs)
);
},
{
closed = 1;
nodes = (
(7,647,ls),
(-13,636,o),
(-20,620,o),
(-20,604,cs),
(-20,579,o),
(-5,552,o),
(11,536,c),
(94,599,l),
(178,536,l),
(195,555,o),
(209,580,o),
(209,606,cs),
(209,622,o),
(202,637,o),
(183,647,cs),
(95,695,l)
);
}
);
};
hints = (
{
horizontal = 1;
place = (0,21);
target = up;
type = BottomGhost;
},
{
place = (35,113);
type = Stem;
}
);
layerId = m01;
shapes = (
{
ref = idotless;
},
{
pos = (-22,-7);
ref = circumflex;
}
);
userData = {
com.hugojourdan.ColorFlow = {
"0" = 0;
"1" = 0;
"10" = 0;
"11" = 0;
"2" = 0;
"3" = 0;
"4" = 0;
"5" = 0;
"6" = 0;
"7" = 0;
"8" = 0;
"9" = 0;
};
};
width = 185;
}
);
note = icircumflex;
unicode = 238;
},
{
color = 4;
glyphname = idieresis;
lastChange = "2026-04-14 15:25:22 +0000";
layers = (
{
background = {
shapes = (
{
closed = 1;
nodes = (
(150,382,o),
(153,500,o),
(153,500,c),
(71,503,o),
(53,491,o),
(34,488,c),
(34,488,o),
(37,369,o),
(37,290,cs),
(37,202,o),
(30,0,o),
(30,0,c),
(157,0,l),
(157,0,o),
(150,174,o),
(150,293,cs)
);
},
{
closed = 1;
nodes = (
(-18,667,o),
(-43,646,o),
(-43,613,cs),
(-43,573,o),
(-18,553,o),
(16,553,cs),
(49,553,o),
(76,573,o),
(76,613,cs),
(76,646,o),
(49,667,o),
(16,667,cs)
);
},
{
closed = 1;
nodes = (
(138,667,o),
(112,646,o),
(112,613,cs),
(112,573,o),
(138,553,o),
(171,553,cs),
(205,553,o),
(231,573,o),
(231,613,cs),
(231,646,o),
(205,667,o),
(171,667,cs)
);
}
);
};
layerId = m01;
shapes = (
{
ref = idotless;
},
{
pos = (-44,-7);
ref = dieresis;
}
);
userData = {
com.hugojourdan.ColorFlow = {
"0" = 0;
"1" = 0;
"10" = 0;
"11" = 0;
"2" = 0;
"3" = 0;
"4" = 0;
"5" = 0;
"6" = 0;
"7" = 0;
"8" = 0;
"9" = 0;
};
};
width = 185;
}
);
note = idieresis;
unicode = 239;
},
{
color = 4;
glyphname = igrave;
lastChange = "2026-04-14 15:25:22 +0000";
layers = (
{
background = {
shapes = (
{
closed = 1;
nodes = (
(150,382,o),
(153,500,o),
(153,500,c),
(71,503,o),
(53,491,o),
(34,488,c),
(34,488,o),
(37,369,o),
(37,290,cs),
(37,202,o),
(30,0,o),
(30,0,c),
(157,0,l),
(157,0,o),
(150,174,o),
(150,293,cs)
);
},
{
closed = 1;
nodes = (
(149,548,l),
(167,566,o),
(178,610,o),
(178,625,c),
(26,724,l),
(24,724,o),
(1,686,o),
(1,646,cs),
(1,621,o),
(12,598,o),
(45,586,cs)
);
}
);
};
layerId = m01;
shapes = (
{
ref = idotless;
},
{
pos = (2,-7);
ref = grave;
}
);
userData = {
com.hugojourdan.ColorFlow = {
"0" = 0;
"1" = 0;
"10" = 0;
"11" = 0;
"2" = 0;
"3" = 0;
"4" = 0;
"5" = 0;
"6" = 0;
"7" = 0;
"8" = 0;
"9" = 0;
};
};
width = 185;
}
);
note = igrave;
unicode = 236;
},
{
color = 4;
glyphname = itilde;
lastChange = "2026-04-14 15:25:22 +0000";
layers = (
{
background = {
shapes = (
{
closed = 1;
nodes = (
(157,0,l),
(153,77,o),
(150,179,o),
(150,293,cs),
(150,378,o),
(152,469,o),
(153,500,c),
(71,503,o),
(53,491,o),
(34,488,c),
(36,457,o),
(37,359,o),
(37,290,cs),
(37,201,o),
(33,75,o),
(30,0,c)
);
},
{
closed = 1;
nodes = (
(188,536,o),
(229,606,o),
(245,636,c),
(234,654,o),
(205,678,o),
(192,680,c),
(132,630,l),
(119,641,o),
(76,686,o),
(47,686,cs),
(1,686,o),
(-40,616,o),
(-56,586,c),
(-45,568,o),
(-16,544,o),
(-3,542,c),
(57,592,l),
(70,581,o),
(113,536,o),
(142,536,cs)
);
}
);
};
layerId = m01;
shapes = (
{
ref = idotless;
},
{
pos = (-58,-7);
ref = tilde;
}
);
userData = {
com.hugojourdan.ColorFlow = {
"0" = 0;
"1" = 0;
"10" = 0;
"11" = 0;
"2" = 0;
"3" = 0;
"4" = 0;
"5" = 0;
"6" = 0;
"7" = 0;
"8" = 0;
"9" = 0;
};
};
width = 185;
}
);
note = i.tilde;
unicode = 297;
},
{
color = 4;
glyphname = j;
lastChange = "2026-04-14 15:25:22 +0000";
layers = (
{
layerId = m01;
shapes = (
{
closed = 1;
nodes = (
(115,-100,o),
(165,-55,o),
(165,48,cs),
(165,269,ls),
(165,357,o),
(170,463,o),
(173,500,c),
(143,500,ls),
(85,500,o),
(62,493,o),
(47,488,c),
(50,438,o),
(55,344,o),
(55,266,cs),
(55,212,o),
(56,70,o),
(56,50,cs),
(56,-4,o),
(21,-9,o),
(-5,-10,c),
(-5,-15,o),
(-6,-21,o),
(-6,-26,cs),
(-6,-52,o),
(-2,-80,o),
(1,-92,c),
(24,-98,o),
(41,-100,o),
(54,-100,cs)
);
},
{
closed = 1;
nodes = (
(145,530,o),
(173,550,o),
(173,590,cs),
(173,624,o),
(145,645,o),
(109,645,cs),
(73,645,o),
(44,624,o),
(44,590,cs),
(44,550,o),
(73,530,o),
(109,530,cs)
);
}
);
userData = {
com.hugojourdan.ColorFlow = {
"0" = 0;
"1" = 0;
"10" = 0;
"11" = 0;
"2" = 0;
"3" = 0;
"4" = 0;
"5" = 0;
"6" = 0;
"7" = 0;
"8" = 0;
"9" = 0;
};
};
width = 205;
}
);
metricLeft = "=n-34";
metricRight = "=n";
note = j;
unicode = 106;
},
{
color = 4;
glyphname = jdotless;
lastChange = "2026-04-14 15:25:22 +0000";
layers = (
{
anchors = (
{
name = top;
pos = (103,493);
}
);
layerId = m01;
shapes = (
{
closed = 1;
nodes = (
(115,-100,o),
(165,-55,o),
(165,48,cs),
(165,269,ls),
(165,357,o),
(170,463,o),
(173,500,c),
(143,500,ls),
(85,500,o),
(62,493,o),
(47,488,c),
(50,438,o),
(55,344,o),
(55,266,cs),
(55,212,o),
(56,70,o),
(56,50,cs),
(56,-4,o),
(21,-9,o),
(-5,-10,c),
(-5,-15,o),
(-6,-21,o),
(-6,-26,cs),
(-6,-52,o),
(-2,-80,o),
(1,-92,c),
(24,-98,o),
(41,-100,o),
(54,-100,cs)
);
}
);
userData = {
com.hugojourdan.ColorFlow = {
"0" = 0;
"1" = 0;
"10" = 0;
"11" = 0;
"2" = 0;
"3" = 0;
"4" = 0;
"5" = 0;
"6" = 0;
"7" = 0;
"8" = 0;
"9" = 0;
};
};
width = 205;
}
);
metricLeft = j;
metricRight = j;
unicode = 567;
},
{
color = 4;
glyphname = k;
lastChange = "2026-04-14 15:25:22 +0000";
layers = (
{
background = {
shapes = (
{
closed = 1;
nodes = (
(72,629,o),
(46,618,o),
(28,615,c),
(28,615,o),
(33,434,o),
(33,334,cs),
(33,223,o),
(28,0,o),
(28,0,c),
(157,0,l),
(157,0,o),
(154,74,o),
(151,167,c),
(176,167,l),
(217,59,ls),
(235,11,o),
(269,-4,o),
(302,-4,cs),
(341,-4,o),
(369,24,o),
(369,24,c),
(271,202,l),
(312,239,o),
(339,306,o),
(339,361,cs),
(339,440,o),
(310,508,o),
(221,508,cs),
(200,508,o),
(176,504,o),
(152,495,c),
(154,567,o),
(157,628,o),
(157,628,c)
);
},
{
closed = 1;
nodes = (
(224,304,o),
(204,262,o),
(149,262,c),
(149,399,l),
(153,403,o),
(164,410,o),
(179,410,cs),
(216,410,o),
(224,384,o),
(224,354,cs)
);
}
);
};
layerId = m01;
shapes = (
{
closed = 1;
nodes = (
(340,-4,o),
(358,13,o),
(369,24,c),
(271,202,l),
(312,239,o),
(339,301,o),
(339,367,cs),
(339,435,o),
(310,508,o),
(221,508,cs),
(200,508,o),
(176,504,o),
(152,495,c),
(153,565,o),
(155,594,o),
(157,628,c),
(82,629,o),
(46,620,o),
(28,615,c),
(29,557,o),
(33,433,o),
(33,334,cs),
(33,247,o),
(32,117,o),
(28,0,c),
(157,0,l),
(156,38,o),
(153,120,o),
(151,167,c),
(176,167,l),
(217,59,ls),
(235,11,o),
(269,-4,o),
(302,-4,cs)
);
},
{
closed = 1;
nodes = (
(149,399,l),
(153,403,o),
(163,410,o),
(181,410,cs),
(215,410,o),
(224,384,o),
(224,353,cs),
(224,307,o),
(204,262,o),
(149,262,c)
);
}
);
userData = {
com.hugojourdan.ColorFlow = {
"0" = 0;
"1" = 0;
"10" = 0;
"11" = 0;
"2" = 0;
"3" = 0;
"4" = 0;
"5" = 0;
"6" = 0;
"7" = 0;
"8" = 0;
"9" = 0;
};
};
width = 361;
}
);
metricLeft = "=n";
metricRight = "=n-40";
note = k;
unicode = 107;
},
{
color = 4;
glyphname = l;
lastChange = "2026-04-22 21:21:53 +0000";
layers = (
{
anchors = (
{
name = bottom;
pos = (95,0);
}
);
background = {
shapes = (
{
closed = 1;
nodes = (
(149,453,o),
(157,628,o),
(157,628,c),
(73,628,o),
(47,618,o),
(28,614,c),
(28,614,o),
(36,437,o),
(36,338,cs),
(36,226,o),
(28,0,o),
(28,0,c),
(157,0,l),
(157,0,o),
(149,190,o),
(149,341,cs)
);
}
);
};
layerId = m01;
shapes = (
{
closed = 1;
nodes = (
(157,0,l),
(154,53,o),
(149,191,o),
(149,341,cs),
(149,452,o),
(154,570,o),
(157,628,c),
(77,628,o),
(48,620,o),
(28,614,c),
(32,545,o),
(36,433,o),
(36,338,cs),
(36,234,o),
(29,45,o),
(28,0,c)
);
}
);
userData = {
com.hugojourdan.ColorFlow = {
"0" = 0;
"1" = 0;
"10" = 0;
"11" = 0;
"2" = 0;
"3" = 0;
"4" = 0;
"5" = 0;
"6" = 0;
"7" = 0;
"8" = 0;
"9" = 0;
};
};
width = 185;
}
);
metricLeft = "=n";
metricRight = "=n-4";
note = l;
unicode = 108;
},
{
color = 4;
glyphname = lslash;
lastChange = "2026-04-14 15:25:22 +0000";
layers = (
{
layerId = m01;
shapes = (
{
closed = 1;
nodes = (
(353,317,l),
(354,330,o),
(349,350,o),
(342,368,cs),
(333,392,o),
(321,415,o),
(314,424,c),
(1,313,l),
(0,303,o),
(6,279,o),
(15,255,cs),
(21,236,o),
(30,218,o),
(40,206,c)
);
},
{
pos = (83,0);
ref = l;
}
);
userData = {
com.hugojourdan.ColorFlow = {
"0" = 0;
"1" = 0;
"10" = 0;
"11" = 0;
"2" = 0;
"3" = 0;
"4" = 0;
"5" = 0;
"6" = 0;
"7" = 0;
"8" = 0;
"9" = 0;
};
};
width = 354;
}
);
note = lslash;
unicode = 322;
},
{
color = 4;
glyphname = m;
lastChange = "2026-04-14 15:25:22 +0000";
layers = (
{
layerId = m01;
shapes = (
{
closed = 1;
nodes = (
(508,-6,o),
(528,-3,o),
(549,2,c),
(547,72,o),
(548,237,o),
(548,347,cs),
(548,454,o),
(509,510,o),
(434,510,cs),
(390,510,o),
(355,487,o),
(338,456,c),
(322,491,o),
(294,510,o),
(244,510,cs),
(198,510,o),
(164,486,o),
(150,462,c),
(143,501,l),
(28,501,l),
(31,476,o),
(38,392,o),
(38,276,cs),
(38,195,o),
(33,62,o),
(29,0,c),
(160,0,l),
(159,42,o),
(157,118,o),
(157,202,cs),
(157,286,o),
(159,368,o),
(162,390,c),
(174,398,o),
(180,400,o),
(194,400,cs),
(223,400,o),
(234,382,o),
(234,309,cs),
(234,228,o),
(234,59,o),
(230,0,c),
(353,0,l),
(349,31,o),
(347,118,o),
(347,202,cs),
(347,284,o),
(349,365,o),
(353,390,c),
(365,398,o),
(370,400,o),
(385,400,cs),
(413,400,o),
(425,382,o),
(425,309,cs),
(425,63,ls),
(425,10,o),
(446,-6,o),
(492,-6,cs)
);
}
);
userData = {
com.hugojourdan.ColorFlow = {
"0" = 0;
"1" = 0;
"10" = 0;
"11" = 0;
"2" = 0;
"3" = 0;
"4" = 0;
"5" = 0;
"6" = 0;
"7" = 0;
"8" = 0;
"9" = 0;
};
};
width = 581;
}
);
metricLeft = "=n";
metricRight = "=n";
note = m;
unicode = 109;
},
{
color = 4;
glyphname = n;
lastChange = "2026-04-14 15:25:22 +0000";
layers = (
{
anchors = (
{
name = bottom;
pos = (199,0);
},
{
name = top;
pos = (199,493);
}
);
layerId = m01;
shapes = (
{
closed = 1;
nodes = (
(325,-6,o),
(345,-3,o),
(366,2,c),
(363,46,o),
(366,236,o),
(366,318,cs),
(366,446,o),
(335,510,o),
(248,510,cs),
(195,510,o),
(164,486,o),
(150,462,c),
(143,501,l),
(28,501,l),
(29,475,o),
(38,391,o),
(38,276,cs),
(38,195,o),
(33,62,o),
(29,0,c),
(162,0,l),
(158,31,o),
(157,118,o),
(157,202,cs),
(157,286,o),
(158,368,o),
(161,390,c),
(177,397,o),
(188,400,o),
(200,400,cs),
(230,400,o),
(242,382,o),
(242,309,cs),
(242,63,ls),
(242,14,o),
(260,-6,o),
(309,-6,cs)
);
}
);
userData = {
com.hugojourdan.ColorFlow = {
"0" = 0;
"1" = 0;
"10" = 0;
"11" = 0;
"2" = 0;
"3" = 0;
"4" = 0;
"5" = 0;
"6" = 0;
"7" = 0;
"8" = 0;
"9" = 0;
};
};
width = 398;
}
);
note = n;
unicode = 110;
},
{
color = 4;
glyphname = o;
lastChange = "2026-04-14 15:25:22 +0000";
layers = (
{
anchors = (
{
name = bottom;
pos = (188,0);
},
{
name = ogonek;
pos = (338,10);
},
{
name = top;
pos = (188,493);
}
);
layerId = m01;
shapes = (
{
closed = 1;
nodes = (
(290,-10,o),
(358,48,o),
(358,252,cs),
(358,454,o),
(292,510,o),
(189,510,cs),
(82,510,o),
(18,454,o),
(18,252,cs),
(18,48,o),
(84,-10,o),
(189,-10,cs)
);
},
{
closed = 1;
nodes = (
(143,98,o),
(141,140,o),
(141,262,cs),
(141,367,o),
(149,400,o),
(187,400,cs),
(226,400,o),
(234,367,o),
(234,262,cs),
(234,140,o),
(232,98,o),
(187,98,cs)
);
}
);
userData = {
com.hugojourdan.ColorFlow = {
"0" = 0;
"1" = 0;
"10" = 0;
"11" = 0;
"2" = 0;
"3" = 0;
"4" = 0;
"5" = 0;
"6" = 0;
"7" = 0;
"8" = 0;
"9" = 0;
};
};
width = 376;
}
);
note = o;
unicode = 111;
},
{
color = 4;
glyphname = oslash;
lastChange = "2026-04-14 15:25:22 +0000";
layers = (
{
layerId = m01;
shapes = (
{
closed = 1;
nodes = (
(194,-88,o),
(202,-39,o),
(210,2,c),
(85,34,l),
(75,-12,o),
(65,-61,o),
(65,-61,c),
(194,-88,l)
);
},
{
ref = o;
},
{
closed = 1;
nodes = (
(306,509,o),
(311,533,o),
(315,550,c),
(184,577,l),
(181,563,o),
(176,540,o),
(169,500,c),
(295,465,l)
);
}
);
userData = {
com.hugojourdan.ColorFlow = {
"0" = 0;
"1" = 0;
"10" = 0;
"11" = 0;
"2" = 0;
"3" = 0;
"4" = 0;
"5" = 0;
"6" = 0;
"7" = 0;
"8" = 0;
"9" = 0;
};
};
width = 376;
}
);
metricLeft = o;
metricRight = o;
note = oslash;
unicode = 248;
},
{
color = 4;
glyphname = oe;
lastChange = "2026-04-14 15:25:22 +0000";
layers = (
{
layerId = m01;
shapes = (
{
closed = 1;
nodes = (
(230,-8,o),
(259,7,o),
(284,30,c),
(307,7,o),
(347,-8,o),
(396,-8,cs),
(461,-8,o),
(513,18,o),
(521,22,c),
(519,40,o),
(514,86,o),
(507,105,c),
(476,97,o),
(447,89,o),
(410,89,cs),
(370,89,o),
(347,108,o),
(347,158,c),
(410,160,o),
(463,162,o),
(522,170,c),
(530,224,o),
(531,255,o),
(532,320,cs),
(533,458,o),
(469,508,o),
(385,508,cs),
(337,508,o),
(303,492,o),
(284,475,c),
(263,492,o),
(237,508,o),
(185,508,cs),
(89,508,o),
(18,454,o),
(18,252,cs),
(18,48,o),
(82,-8,o),
(179,-8,cs)
);
},
{
closed = 1;
nodes = (
(143,98,o),
(141,140,o),
(141,262,cs),
(141,367,o),
(149,400,o),
(187,400,cs),
(226,400,o),
(234,367,o),
(234,262,cs),
(234,140,o),
(232,98,o),
(187,98,cs)
);
},
{
closed = 1;
nodes = (
(338,268,o),
(339,284,o),
(339,303,cs),
(339,384,o),
(352,400,o),
(380,400,cs),
(413,400,o),
(420,370,o),
(420,252,c),
(401,250,o),
(362,249,o),
(339,249,c)
);
}
);
userData = {
com.hugojourdan.ColorFlow = {
"0" = 0;
"1" = 0;
"10" = 0;
"11" = 0;
"2" = 0;
"3" = 0;
"4" = 0;
"5" = 0;
"6" = 0;
"7" = 0;
"8" = 0;
"9" = 0;
};
};
width = 554;
}
);
metricLeft = o;
metricRight = e;
note = oe;
unicode = 339;
},
{
color = 4;
glyphname = p;
lastChange = "2026-04-14 15:25:22 +0000";
layers = (
{
layerId = m01;
shapes = (
{
closed = 1;
nodes = (
(103,-100,o),
(129,-94,o),
(157,-86,c),
(156,-60,o),
(155,-33,o),
(153,6,c),
(167,-3,o),
(188,-10,o),
(216,-10,cs),
(277,-10,o),
(358,20,o),
(358,266,cs),
(358,467,o),
(304,510,o),
(243,510,cs),
(203,510,o),
(165,492,o),
(148,462,c),
(139,500,l),
(28,500,l),
(37,387,o),
(37,274,o),
(37,161,cs),
(37,49,o),
(31,-65,o),
(29,-100,c)
);
},
{
closed = 1;
nodes = (
(170,102,o),
(160,107,o),
(154,113,c),
(154,395,l),
(164,399,o),
(173,402,o),
(187,402,cs),
(212,402,o),
(235,396,o),
(235,270,cs),
(235,126,o),
(228,102,o),
(185,102,cs)
);
}
);
userData = {
com.hugojourdan.ColorFlow = {
"0" = 0;
"1" = 0;
"10" = 0;
"11" = 0;
"2" = 0;
"3" = 0;
"4" = 0;
"5" = 0;
"6" = 0;
"7" = 0;
"8" = 0;
"9" = 0;
};
};
width = 384;
}
);
metricLeft = "=n";
metricRight = "=n-6";
note = p;
unicode = 112;
},
{
color = 4;
glyphname = thorn;
lastChange = "2026-04-14 15:25:22 +0000";
layers = (
{
background = {
shapes = (
{
closed = 1;
nodes = (
(199,508,o),
(171,496,o),
(152,480,c),
(154,553,o),
(158,632,o),
(158,632,c),
(85,633,o),
(48,624,o),
(29,619,c),
(32,529,o),
(35,363,o),
(35,275,cs),
(37,122,o),
(41,48,o),
(28,-100,c),
(112,-100,o),
(137,-90,o),
(156,-86,c),
(156,-86,o),
(154,-48,o),
(152,6,c),
(170,-4,o),
(190,-8,o),
(212,-8,cs),
(278,-8,o),
(357,22,o),
(357,262,cs),
(357,469,o),
(304,508,o),
(229,508,cs)
);
},
{
closed = 1;
nodes = (
(153,395,l),
(163,399,o),
(172,402,o),
(185,402,cs),
(211,402,o),
(234,396,o),
(234,270,cs),
(234,126,o),
(228,102,o),
(182,102,cs),
(168,102,o),
(158,109,o),
(153,113,c)
);
}
);
};
layerId = m01;
shapes = (
{
closed = 1;
nodes = (
(100,-100,o),
(134,-92,o),
(156,-86,c),
(155,-57,o),
(154,-28,o),
(152,6,c),
(170,-4,o),
(189,-8,o),
(213,-8,cs),
(277,-8,o),
(357,22,o),
(357,262,cs),
(357,469,o),
(301,508,o),
(234,508,cs),
(196,508,o),
(171,496,o),
(152,480,c),
(154,552,o),
(156,596,o),
(158,632,c),
(85,633,o),
(48,624,o),
(29,619,c),
(32,529,o),
(35,363,o),
(35,275,cs),
(37,122,o),
(41,48,o),
(28,-100,c)
);
},
{
closed = 1;
nodes = (
(168,102,o),
(158,109,o),
(153,113,c),
(153,395,l),
(163,399,o),
(172,402,o),
(185,402,cs),
(211,402,o),
(234,396,o),
(234,270,cs),
(234,126,o),
(228,102,o),
(182,102,cs)
);
}
);
userData = {
com.hugojourdan.ColorFlow = {
"0" = 0;
"1" = 0;
"10" = 0;
"11" = 0;
"2" = 0;
"3" = 0;
"4" = 0;
"5" = 0;
"6" = 0;
"7" = 0;
"8" = 0;
"9" = 0;
};
};
width = 383;
}
);
metricLeft = "=p";
metricRight = "=p";
note = thorn;
unicode = 254;
},
{
color = 4;
glyphname = q;
lastChange = "2026-04-14 15:25:22 +0000";
layers = (
{
layerId = m01;
shapes = (
{
closed = 1;
nodes = (
(303,-100,o),
(326,-89,o),
(345,-85,c),
(342,22,o),
(341,120,o),
(341,222,cs),
(341,327,o),
(344,417,o),
(345,479,c),
(295,502,o),
(240,510,o),
(190,510,cs),
(86,510,o),
(18,469,o),
(18,262,cs),
(18,42,o),
(80,-10,o),
(159,-10,cs),
(183,-10,o),
(208,-3,o),
(221,6,c),
(219,-56,o),
(217,-100,o),
(217,-100,c)
);
},
{
closed = 1;
nodes = (
(165,99,o),
(141,100,o),
(141,232,cs),
(141,375,o),
(148,400,o),
(193,400,cs),
(207,400,o),
(217,393,o),
(222,389,c),
(222,110,l),
(214,102,o),
(203,99,o),
(190,99,cs)
);
}
);
userData = {
com.hugojourdan.ColorFlow = {
"0" = 0;
"1" = 0;
"10" = 0;
"11" = 0;
"2" = 0;
"3" = 0;
"4" = 0;
"5" = 0;
"6" = 0;
"7" = 0;
"8" = 0;
"9" = 0;
};
};
width = 374;
}
);
metricLeft = o;
metricRight = "=n-3";
note = q;
unicode = 113;
},
{
color = 4;
glyphname = r;
lastChange = "2026-04-14 15:25:22 +0000";
layers = (
{
anchors = (
{
name = bottom;
pos = (136,0);
},
{
name = top;
pos = (136,493);
}
);
layerId = m01;
shapes = (
{
closed = 1;
nodes = (
(162,0,l),
(158,31,o),
(157,118,o),
(157,202,cs),
(157,297,o),
(160,365,o),
(161,382,c),
(169,388,o),
(181,392,o),
(204,392,cs),
(220,392,o),
(233,390,o),
(252,386,c),
(268,406,o),
(281,470,o),
(279,492,c),
(265,504,o),
(249,510,o),
(225,510,cs),
(190,510,o),
(156,486,o),
(142,462,c),
(135,500,l),
(28,500,l),
(32,464,o),
(38,391,o),
(38,276,cs),
(38,195,o),
(33,62,o),
(29,0,c)
);
}
);
userData = {
com.hugojourdan.ColorFlow = {
"0" = 0;
"1" = 0;
"10" = 0;
"11" = 0;
"2" = 0;
"3" = 0;
"4" = 0;
"5" = 0;
"6" = 0;
"7" = 0;
"8" = 0;
"9" = 0;
};
};
width = 273;
}
);
metricLeft = "=n";
metricRight = "=n-38";
note = r;
unicode = 114;
},
{
color = 4;
glyphname = s;
lastChange = "2026-04-17 23:54:46 +0000";
layers = (
{
anchors = (
{
name = bottom;
pos = (132,0);
},
{
name = cedilla;
pos = (141,0);
},
{
name = top;
pos = (162,493);
}
);
layerId = m01;
shapes = (
{
closed = 1;
nodes = (
(241,-10,o),
(286,58,o),
(286,139,cs),
(286,291,o),
(137,283,o),
(137,359,cs),
(137,380,o),
(152,391,o),
(170,391,cs),
(199,391,o),
(226,378,o),
(248,365,c),
(264,389,o),
(280,432,o),
(286,465,c),
(258,489,o),
(222,510,o),
(168,510,cs),
(57,510,o),
(20,424,o),
(20,348,cs),
(20,199,o),
(172,196,o),
(172,132,cs),
(172,114,o),
(161,102,o),
(144,102,cs),
(117,102,o),
(85,116,o),
(61,135,c),
(39,109,o),
(22,66,o),
(18,49,c),
(60,11,o),
(95,-10,o),
(146,-10,cs)
);
}
);
userData = {
com.hugojourdan.ColorFlow = {
"0" = 0;
"1" = 0;
"10" = 0;
"11" = 0;
"2" = 0;
"3" = 0;
"4" = 0;
"5" = 0;
"6" = 0;
"7" = 0;
"8" = 0;
"9" = 0;
};
};
width = 304;
}
);
metricLeft = "=o";
metricRight = "=o";
note = s;
unicode = 115;
},
{
color = 4;
glyphname = scaron;
lastChange = "2026-04-14 15:25:22 +0000";
layers = (
{
background = {
shapes = (
{
closed = 1;
nodes = (
(159,283,o),
(308,291,o),
(308,141,cs),
(308,58,o),
(266,-10,o),
(165,-10,cs),
(120,-8,o),
(82,11,o),
(40,49,c),
(44,66,o),
(61,109,o),
(83,135,c),
(107,116,o),
(141,102,o),
(166,102,cs),
(183,102,o),
(194,114,o),
(194,133,cs),
(194,196,o),
(42,196,o),
(42,351,cs),
(42,421,o),
(81,510,o),
(188,510,cs),
(246,510,o),
(280,489,o),
(308,465,c),
(302,432,o),
(286,389,o),
(270,365,c),
(248,378,o),
(221,391,o),
(192,391,cs),
(174,391,o),
(160,379,o),
(159,359,cs)
);
},
{
closed = 1;
nodes = (
(274,584,ls),
(293,594,o),
(301,609,o),
(301,625,cs),
(301,662,o),
(270,695,o),
(269,695,c),
(186,631,l),
(102,695,l),
(101,695,o),
(70,662,o),
(70,625,cs),
(70,609,o),
(78,594,o),
(98,584,cs),
(186,536,l)
);
}
);
};
layerId = m01;
shapes = (
{
ref = s;
},
{
pos = (46,-7);
ref = caron;
}
);
userData = {
com.hugojourdan.ColorFlow = {
"0" = 0;
"1" = 0;
"10" = 0;
"11" = 0;
"2" = 0;
"3" = 0;
"4" = 0;
"5" = 0;
"6" = 0;
"7" = 0;
"8" = 0;
"9" = 0;
};
};
width = 304;
}
);
note = scaron;
unicode = 353;
},
{
color = 4;
glyphname = germandbls;
lastChange = "2026-04-14 15:25:22 +0000";
layers = (
{
layerId = m01;
shapes = (
{
closed = 1;
nodes = (
(143,-100,o),
(175,-91,o),
(196,-85,c),
(191,-43,o),
(186,220,o),
(186,362,cs),
(186,465,ls),
(186,507,o),
(194,523,o),
(229,523,cs),
(282,523,o),
(287,483,o),
(287,467,cs),
(287,409,o),
(225,371,o),
(225,294,cs),
(225,196,o),
(323,185,o),
(323,125,cs),
(323,105,o),
(314,95,o),
(297,95,cs),
(287,95,o),
(275,97,o),
(262,102,c),
(242,75,o),
(227,29,o),
(225,11,c),
(245,0,o),
(271,-10,o),
(305,-10,cs),
(392,-10,o),
(433,55,o),
(433,130,cs),
(433,249,o),
(339,248,o),
(339,313,cs),
(339,364,o),
(397,389,o),
(397,476,cs),
(397,558,o),
(346,630,o),
(228,630,cs),
(121,630,o),
(73,579,o),
(73,462,cs),
(73,452,l),
(25,452,l),
(25,362,l),
(73,362,l),
(73,304,o),
(74,247,o),
(74,193,cs),
(74,82,o),
(71,-52,o),
(70,-100,c)
);
}
);
userData = {
com.hugojourdan.ColorFlow = {
"0" = 0;
"1" = 0;
"10" = 0;
"11" = 0;
"2" = 0;
"3" = 0;
"4" = 0;
"5" = 0;
"6" = 0;
"7" = 0;
"8" = 0;
"9" = 0;
};
};
width = 451;
}
);
metricLeft = f;
metricRight = s;
note = germandbls;
unicode = 223;
},
{
color = 4;
glyphname = t;
lastChange = "2026-04-14 15:25:22 +0000";
layers = (
{
background = {
shapes = (
{
closed = 1;
nodes = (
(156,136,o),
(153,190,o),
(153,341,cs),
(153,406,l),
(230,406,l),
(230,500,l),
(155,500,l),
(157,561,o),
(160,608,o),
(160,608,c),
(79,608,o),
(53,598,o),
(34,594,c),
(34,594,o),
(40,440,o),
(40,341,cs),
(40,230,o),
(35,113,o),
(35,113,c),
(35,30,o),
(65,-8,o),
(156,-8,cs),
(180,-8,o),
(212,-2,o),
(231,6,c),
(231,89,l),
(224,88,o),
(200,86,o),
(188,86,cs),
(166,86,o),
(158,111,o),
(156,136,c)
);
}
);
};
layerId = m01;
shapes = (
{
closed = 1;
nodes = (
(187,-8,o),
(212,-2,o),
(231,6,c),
(231,89,l),
(224,88,o),
(200,86,o),
(188,86,cs),
(167,86,o),
(157,111,o),
(156,136,cs),
(154,170,o),
(153,191,o),
(153,341,cs),
(153,406,l),
(230,406,l),
(230,500,l),
(155,500,l),
(157,560,o),
(159,596,o),
(160,608,c),
(96,608,o),
(65,603,o),
(34,594,c),
(35,572,o),
(40,439,o),
(40,341,cs),
(40,230,o),
(35,160,o),
(35,112,cs),
(35,25,o),
(72,-8,o),
(153,-8,cs)
);
}
);
userData = {
com.hugojourdan.ColorFlow = {
"0" = 0;
"1" = 0;
"10" = 0;
"11" = 0;
"2" = 0;
"3" = 0;
"4" = 0;
"5" = 0;
"6" = 0;
"7" = 0;
"8" = 0;
"9" = 0;
};
};
width = 255;
}
);
metricLeft = "=n+6";
metricRight = "=n-8";
note = t;
unicode = 116;
},
{
color = 4;
glyphname = u;
lastChange = "2026-04-14 15:25:22 +0000";
layers = (
{
anchors = (
{
name = bottom;
pos = (188,0);
},
{
name = ogonek;
pos = (346,10);
},
{
name = top;
pos = (198,493);
}
);
layerId = m01;
shapes = (
{
closed = 1;
nodes = (
(211,-8,o),
(234,17,o),
(245,39,c),
(252,0,l),
(368,0,l),
(365,30,o),
(357,109,o),
(357,225,cs),
(357,306,o),
(360,434,o),
(363,496,c),
(339,499,o),
(319,500,o),
(304,500,cs),
(270,500,o),
(248,495,o),
(235,491,c),
(235,110,l),
(222,103,o),
(211,102,o),
(195,102,cs),
(163,102,o),
(154,126,o),
(154,208,cs),
(154,278,o),
(155,399,o),
(158,500,c),
(133,500,ls),
(81,500,o),
(56,495,o),
(34,488,c),
(34,198,ls),
(34,62,o),
(70,-8,o),
(158,-8,cs)
);
}
);
userData = {
com.hugojourdan.ColorFlow = {
"0" = 0;
"1" = 0;
"10" = 0;
"11" = 0;
"2" = 0;
"3" = 0;
"4" = 0;
"5" = 0;
"6" = 0;
"7" = 0;
"8" = 0;
"9" = 0;
};
};
width = 396;
}
);
metricLeft = "=n+6";
metricRight = "=n-4";
note = u;
unicode = 117;
},
{
color = 4;
glyphname = v;
lastChange = "2026-04-14 15:25:22 +0000";
layers = (
{
layerId = m01;
shapes = (
{
closed = 1;
nodes = (
(301,-8,o),
(367,112,o),
(367,499,c),
(342,502,o),
(324,504,o),
(306,504,cs),
(274,504,o),
(254,499,o),
(241,494,c),
(242,480,o),
(243,461,o),
(243,440,cs),
(243,326,o),
(224,136,o),
(195,109,c),
(187,109,l),
(139,503,l),
(115,503,ls),
(60,503,o),
(35,497,o),
(15,491,c),
(85,0,l),
(109,-6,o),
(140,-8,o),
(190,-8,cs)
);
}
);
userData = {
com.hugojourdan.ColorFlow = {
"0" = 0;
"1" = 0;
"10" = 0;
"11" = 0;
"2" = 0;
"3" = 0;
"4" = 0;
"5" = 0;
"6" = 0;
"7" = 0;
"8" = 0;
"9" = 0;
};
};
width = 382;
}
);
metricLeft = "=n-13";
metricRight = "=n-17";
note = v;
unicode = 118;
},
{
color = 4;
glyphname = w;
lastChange = "2026-04-14 15:25:22 +0000";
layers = (
{
anchors = (
{
name = bottom;
pos = (284,0);
},
{
name = top;
pos = (294,493);
}
);
layerId = m01;
shapes = (
{
closed = 1;
nodes = (
(216,-8,o),
(262,33,o),
(287,117,c),
(305,2,l),
(305,2,o),
(339,-8,o),
(373,-8,cs),
(518,-8,o),
(557,172,o),
(557,498,c),
(531,502,o),
(510,503,o),
(495,503,cs),
(463,503,o),
(445,498,o),
(432,494,c),
(433,486,o),
(433,472,o),
(433,455,cs),
(433,355,o),
(420,131,o),
(384,131,cs),
(375,131,l),
(341,491,l),
(325,493,o),
(310,493,o),
(298,493,cs),
(268,493,o),
(247,489,o),
(233,486,c),
(234,472,o),
(235,441,o),
(235,403,cs),
(235,295,o),
(227,131,o),
(193,131,cs),
(184,131,l),
(139,502,l),
(127,502,o),
(117,503,o),
(108,503,cs),
(62,503,o),
(33,495,o),
(15,490,c),
(85,0,l),
(105,-6,o),
(116,-8,o),
(162,-8,cs)
);
}
);
userData = {
com.hugojourdan.ColorFlow = {
"0" = 0;
"1" = 0;
"10" = 0;
"11" = 0;
"2" = 0;
"3" = 0;
"4" = 0;
"5" = 0;
"6" = 0;
"7" = 0;
"8" = 0;
"9" = 0;
};
};
width = 572;
}
);
metricLeft = "=v";
metricRight = "=v";
note = w;
unicode = 119;
},
{
color = 4;
glyphname = x;
lastChange = "2026-04-14 15:25:22 +0000";
layers = (
{
layerId = m01;
shapes = (
{
closed = 1;
nodes = (
(148,0,l),
(191,171,l),
(202,171,l),
(241,0,l),
(370,0,l),
(297,235,l),
(379,492,l),
(346,500,o),
(296,504,o),
(252,504,c),
(238,443,o),
(208,317,o),
(202,305,c),
(192,305,l),
(186,317,o),
(150,468,o),
(142,504,c),
(96,504,o),
(48,500,o),
(15,492,c),
(96,235,l),
(28,0,l)
);
}
);
userData = {
com.hugojourdan.ColorFlow = {
"0" = 0;
"1" = 0;
"10" = 0;
"11" = 0;
"2" = 0;
"3" = 0;
"4" = 0;
"5" = 0;
"6" = 0;
"7" = 0;
"8" = 0;
"9" = 0;
};
};
width = 394;
}
);
metricLeft = "=v";
metricRight = "=v";
note = x;
unicode = 120;
},
{
color = 4;
glyphname = y;
lastChange = "2026-04-14 15:25:22 +0000";
layers = (
{
anchors = (
{
name = top;
pos = (185,493);
}
);
layerId = m01;
shapes = (
{
closed = 1;
nodes = (
(224,-100,o),
(281,-45,o),
(304,126,cs),
(355,500,l),
(225,500,l),
(198,174,l),
(189,174,ls),
(152,174,o),
(140,365,o),
(140,456,cs),
(140,473,o),
(140,486,o),
(141,494,c),
(127,499,o),
(110,504,o),
(79,504,cs),
(58,504,o),
(40,503,o),
(15,500,c),
(17,215,o),
(47,83,o),
(171,64,c),
(159,24,o),
(149,6,o),
(124,6,cs),
(108,6,o),
(88,9,o),
(79,12,c),
(54,-50,l),
(74,-85,o),
(115,-100,o),
(148,-100,cs)
);
}
);
userData = {
com.hugojourdan.ColorFlow = {
"0" = 0;
"1" = 0;
"10" = 0;
"11" = 0;
"2" = 0;
"3" = 0;
"4" = 0;
"5" = 0;
"6" = 0;
"7" = 0;
"8" = 0;
"9" = 0;
};
};
width = 370;
}
);
metricLeft = "=v";
metricRight = "=v";
note = y;
unicode = 121;
},
{
color = 4;
glyphname = z;
lastChange = "2026-04-14 15:25:22 +0000";
layers = (
{
anchors = (
{
name = bottom;
pos = (172,0);
},
{
name = top;
pos = (172,493);
}
);
layerId = m01;
shapes = (
{
closed = 1;
nodes = (
(323,-8,o),
(316,2,o),
(316,18,cs),
(316,46,o),
(310,80,o),
(306,100,c),
(182,98,l),
(182,140,o),
(326,340,o),
(326,435,cs),
(326,452,o),
(323,470,o),
(317,490,c),
(195,503,o),
(67,504,o),
(39,504,cs),
(27,504,o),
(27,461,o),
(27,445,cs),
(27,420,o),
(30,397,o),
(33,385,c),
(186,387,l),
(186,347,o),
(25,112,o),
(25,45,cs),
(25,33,o),
(28,19,o),
(33,2,c),
(65,-7,o),
(244,-8,o),
(298,-8,cs)
);
}
);
userData = {
com.hugojourdan.ColorFlow = {
"0" = 0;
"1" = 0;
"10" = 0;
"11" = 0;
"2" = 0;
"3" = 0;
"4" = 0;
"5" = 0;
"6" = 0;
"7" = 0;
"8" = 0;
"9" = 0;
};
};
width = 344;
}
);
metricLeft = "=n-3";
metricRight = "=n-14";
note = z;
unicode = 122;
},
{
color = 4;
glyphname = saltillo;
lastChange = "2026-04-14 15:25:22 +0000";
layers = (
{
layerId = m01;
shapes = (
{
closed = 1;
nodes = (
(172,666,l),
(152,670,o),
(110,678,o),
(45,677,c),
(40,393,l),
(52,383,o),
(102,369,o),
(131,372,c)
);
}
);
userData = {
com.hugojourdan.ColorFlow = {
"0" = 0;
"1" = 0;
"10" = 0;
"11" = 0;
"2" = 0;
"3" = 0;
"4" = 0;
"5" = 0;
"6" = 0;
"7" = 0;
"8" = 0;
"9" = 0;
};
};
width = 190;
}
);
note = puso;
unicode = 42892;
},
{
color = 4;
glyphname = o.ss01;
lastChange = "2026-04-14 15:36:16 +0000";
layers = (
{
anchors = (
{
name = bottom;
pos = (187,0);
},
{
name = center;
pos = (197,247);
},
{
name = top;
pos = (187,493);
}
);
background = {
shapes = (
{
closed = 1;
nodes = (
(292,-10,o),
(346,48,o),
(346,252,cs),
(346,262,o),
(345,271,o),
(345,280,c),
(362,296,o),
(374,317,o),
(374,345,cs),
(374,359,o),
(370,372,o),
(363,378,c),
(338,368,l),
(320,477,o),
(269,512,o),
(180,512,cs),
(73,512,o),
(20,454,o),
(20,252,cs),
(20,48,o),
(75,-10,o),
(180,-10,cs)
);
},
{
closed = 1;
nodes = (
(154,97,o),
(138,111,o),
(138,238,c),
(167,238,o),
(199,237,o),
(229,242,c),
(228,109,o),
(212,97,o),
(182,97,cs)
);
},
{
closed = 1;
nodes = (
(159,337,o),
(148,337,o),
(140,338,c),
(143,373,o),
(139,401,o),
(182,401,cs),
(208,401,o),
(221,398,o),
(226,341,c),
(207,339,o),
(189,337,o),
(173,337,cs)
);
}
);
};
layerId = m01;
shapes = (
{
closed = 1;
nodes = (
(292,-10,o),
(346,48,o),
(346,252,cs),
(346,475,o),
(281,512,o),
(180,512,cs),
(73,512,o),
(20,454,o),
(20,252,cs),
(20,48,o),
(75,-10,o),
(180,-10,cs)
);
},
{
closed = 1;
nodes = (
(142,97,o),
(138,143,o),
(138,265,cs),
(138,386,o),
(142,401,o),
(184,401,cs),
(224,401,o),
(228,378,o),
(228,256,cs),
(228,111,o),
(214,97,o),
(182,97,cs)
);
},
{
closed = 1;
nodes = (
(162,234,o),
(277,242,o),
(318,262,cs),
(349,277,o),
(374,304,o),
(374,345,cs),
(374,359,o),
(370,372,o),
(363,378,c),
(268,341,o),
(206,331,o),
(108,341,c),
(108,240,l)
);
}
);
userData = {
com.hugojourdan.ColorFlow = {
"0" = 0;
"1" = 0;
"10" = 0;
"11" = 0;
"2" = 0;
"3" = 0;
"4" = 0;
"5" = 0;
"6" = 0;
"7" = 0;
"8" = 0;
"9" = 0;
};
};
width = 377;
}
);
note = o.alt;
},
{
color = 4;
glyphname = oslash.ss01;
lastChange = "2026-04-14 15:40:32 +0000";
layers = (
{
layerId = m01;
shapes = (
{
ref = o.ss01;
},
{
closed = 1;
nodes = (
(199,-61,o),
(205,-28,o),
(210,2,c),
(85,34,l),
(81,11,o),
(69,-43,o),
(65,-61,c),
(194,-88,l)
);
},
{
closed = 1;
nodes = (
(306,509,o),
(311,533,o),
(315,550,c),
(184,577,l),
(181,563,o),
(176,540,o),
(169,500,c),
(295,465,l)
);
}
);
userData = {
com.hugojourdan.ColorFlow = {
"0" = 0;
"1" = 0;
"10" = 0;
"11" = 0;
"2" = 0;
"3" = 0;
"4" = 0;
"5" = 0;
"6" = 0;
"7" = 0;
"8" = 0;
"9" = 0;
};
};
width = 377;
}
);
metricLeft = o.ss01;
metricRight = o.ss01;
note = oslash;
},
{
color = 4;
glyphname = f_j;
lastChange = "2026-04-14 15:25:22 +0000";
layers = (
{
layerId = m01;
shapes = (
{
closed = 1;
nodes = (
(273,324,o),
(274,303,o),
(274,266,cs),
(274,212,o),
(275,70,o),
(275,50,cs),
(275,-4,o),
(240,-9,o),
(214,-10,c),
(214,-15,o),
(213,-21,o),
(213,-26,cs),
(213,-52,o),
(217,-80,o),
(220,-92,c),
(243,-98,o),
(260,-100,o),
(273,-100,cs),
(334,-100,o),
(384,-55,o),
(384,48,cs),
(384,269,ls),
(384,328,o),
(383,403,o),
(386,452,c),
(186,452,l),
(186,465,ls),
(186,513,o),
(203,523,o),
(238,523,cs),
(279,523,o),
(307,509,o),
(329,496,c),
(340,514,o),
(355,560,o),
(357,579,c),
(334,598,o),
(290,630,o),
(213,630,cs),
(134,630,o),
(73,595,o),
(73,462,cs),
(73,452,l),
(25,452,l),
(25,362,l),
(73,362,l),
(73,304,o),
(74,247,o),
(74,193,cs),
(74,85,o),
(73,-13,o),
(70,-100,c),
(135,-100,o),
(172,-91,o),
(196,-85,c),
(190,-43,o),
(185,220,o),
(185,362,c),
(271,362,l)
);
}
);
userData = {
com.hugojourdan.ColorFlow = {
"0" = 0;
"1" = 0;
"10" = 0;
"11" = 0;
"2" = 0;
"3" = 0;
"4" = 0;
"5" = 0;
"6" = 0;
"7" = 0;
"8" = 0;
"9" = 0;
};
};
width = 418;
}
);
metricLeft = f;
metricRight = j;
},
{
color = 4;
glyphname = fi;
lastChange = "2026-04-14 15:25:22 +0000";
layers = (
{
layerId = m01;
shapes = (
{
closed = 1;
nodes = (
(135,-100,o),
(172,-91,o),
(196,-85,c),
(190,-43,o),
(185,220,o),
(185,362,c),
(271,362,l),
(272,340,o),
(272,315,o),
(272,290,cs),
(272,213,o),
(267,56,o),
(265,0,c),
(392,0,l),
(388,61,o),
(385,181,o),
(385,293,cs),
(385,452,l),
(186,452,l),
(186,465,ls),
(186,513,o),
(203,523,o),
(238,523,cs),
(279,523,o),
(307,509,o),
(329,496,c),
(340,514,o),
(355,560,o),
(357,579,c),
(334,598,o),
(290,630,o),
(213,630,cs),
(134,630,o),
(73,595,o),
(73,462,cs),
(73,452,l),
(25,452,l),
(25,362,l),
(73,362,l),
(73,304,o),
(74,247,o),
(74,193,cs),
(74,85,o),
(73,-13,o),
(70,-100,c)
);
}
);
userData = {
com.hugojourdan.ColorFlow = {
"0" = 0;
"1" = 0;
"10" = 0;
"11" = 0;
"2" = 0;
"3" = 0;
"4" = 0;
"5" = 0;
"6" = 0;
"7" = 0;
"8" = 0;
"9" = 0;
};
};
width = 424;
}
);
metricLeft = f;
metricRight = i;
note = fi;
unicode = 64257;
},
{
color = 4;
glyphname = fl;
lastChange = "2026-04-14 15:25:22 +0000";
layers = (
{
layerId = m01;
shapes = (
{
closed = 1;
nodes = (
(151,-100,o),
(176,-92,o),
(196,-85,c),
(193,-48,o),
(186,98,o),
(186,196,cs),
(186,241,o),
(185,303,o),
(185,362,c),
(273,362,l),
(273,338,ls),
(273,227,o),
(269,107,o),
(265,0,c),
(394,0,l),
(389,103,o),
(386,192,o),
(386,341,cs),
(386,447,o),
(390,538,o),
(394,598,c),
(341,617,o),
(285,630,o),
(217,630,cs),
(134,630,o),
(73,595,o),
(73,462,cs),
(73,452,l),
(25,452,l),
(25,362,l),
(73,362,l),
(73,304,o),
(74,247,o),
(74,193,cs),
(74,81,o),
(71,-60,o),
(70,-100,c)
);
},
{
closed = 1;
nodes = (
(186,465,ls),
(186,513,o),
(199,523,o),
(233,523,cs),
(243,523,o),
(255,522,o),
(269,519,c),
(271,452,l),
(186,452,l)
);
}
);
userData = {
com.hugojourdan.ColorFlow = {
"0" = 0;
"1" = 0;
"10" = 0;
"11" = 0;
"2" = 0;
"3" = 0;
"4" = 0;
"5" = 0;
"6" = 0;
"7" = 0;
"8" = 0;
"9" = 0;
};
};
width = 422;
}
);
metricLeft = f;
metricRight = l;
note = fl;
unicode = 64258;
},
{
color = 4;
glyphname = ordfeminine;
lastChange = "2026-04-14 15:25:22 +0000";
layers = (
{
layerId = m01;
shapes = (
{
closed = 1;
nodes = (
(145,278,o),
(175,291,o),
(187,312,c),
(193,284,l),
(271,284,l),
(269,323,o),
(264,380,o),
(264,448,cs),
(264,515,o),
(269,591,o),
(269,604,c),
(245,618,o),
(207,630,o),
(161,630,cs),
(79,630,o),
(40,593,o),
(40,448,cs),
(40,307,o),
(77,278,o),
(118,278,cs)
);
},
{
closed = 1;
nodes = (
(139,373,o),
(126,374,o),
(126,453,cs),
(126,518,o),
(135,534,o),
(159,534,cs),
(172,534,o),
(179,529,o),
(182,526,c),
(182,378,l),
(173,374,o),
(168,373,o),
(154,373,cs)
);
}
);
userData = {
com.hugojourdan.ColorFlow = {
"0" = 0;
"1" = 0;
"10" = 0;
"11" = 0;
"2" = 0;
"3" = 0;
"4" = 0;
"5" = 0;
"6" = 0;
"7" = 0;
"8" = 0;
"9" = 0;
};
};
width = 311;
}
);
note = ordfeminine;
unicode = 170;
},
{
color = 4;
glyphname = ordmasculine;
lastChange = "2026-04-14 15:25:22 +0000";
layers = (
{
layerId = m01;
shapes = (
{
closed = 1;
nodes = (
(231,278,o),
(278,317,o),
(278,456,cs),
(278,593,o),
(232,630,o),
(159,630,cs),
(85,630,o),
(40,592,o),
(40,455,cs),
(40,317,o),
(86,278,o),
(159,278,cs)
);
},
{
closed = 1;
nodes = (
(130,373,o),
(126,389,o),
(126,452,cs),
(126,515,o),
(130,534,o),
(159,534,cs),
(187,534,o),
(191,516,o),
(191,450,cs),
(191,392,o),
(188,373,o),
(158,373,cs)
);
}
);
userData = {
com.hugojourdan.ColorFlow = {
"0" = 0;
"1" = 0;
"10" = 0;
"11" = 0;
"2" = 0;
"3" = 0;
"4" = 0;
"5" = 0;
"6" = 0;
"7" = 0;
"8" = 0;
"9" = 0;
};
};
width = 318;
}
);
note = ordmasculine;
unicode = 186;
},
{
color = 4;
glyphname = pi;
lastChange = "2026-04-14 15:25:22 +0000";
layers = (
{
layerId = m01;
shapes = (
{
closed = 1;
nodes = (
(400,-6,o),
(433,-2,o),
(470,11,c),
(469,35,o),
(464,63,o),
(458,88,c),
(451,87,o),
(443,86,o),
(434,86,cs),
(409,86,o),
(407,106,o),
(407,147,cs),
(407,231,o),
(405,318,o),
(408,386,c),
(473,386,l),
(478,399,o),
(480,419,o),
(480,438,cs),
(480,464,o),
(476,490,o),
(473,500,c),
(27,500,l),
(23,490,o),
(20,466,o),
(20,440,cs),
(20,420,o),
(22,400,o),
(27,386,c),
(92,386,l),
(92,236,o),
(90,56,o),
(88,0,c),
(215,0,l),
(212,52,o),
(208,152,o),
(208,386,c),
(292,386,l),
(292,127,ls),
(292,43,o),
(315,-6,o),
(381,-6,cs)
);
}
);
userData = {
com.hugojourdan.ColorFlow = {
"0" = 0;
"1" = 0;
"10" = 0;
"11" = 0;
"2" = 0;
"3" = 0;
"4" = 0;
"5" = 0;
"6" = 0;
"7" = 0;
"8" = 0;
"9" = 0;
};
};
width = 500;
}
);
note = pi;
unicode = 960;
},
{
color = 4;
glyphname = zero;
lastChange = "2026-04-14 15:25:22 +0000";
layers = (
{
layerId = m01;
shapes = (
{
closed = 1;
nodes = (
(306,-8,o),
(389,32,o),
(389,330,cs),
(389,586,o),
(307,628,o),
(207,628,cs),
(106,628,o),
(26,586,o),
(26,330,cs),
(26,33,o),
(108,-8,o),
(207,-8,cs)
);
},
{
closed = 1;
nodes = (
(167,115,o),
(148,178,o),
(148,324,cs),
(148,447,o),
(164,508,o),
(207,508,cs),
(250,508,o),
(267,447,o),
(267,324,cs),
(267,178,o),
(244,115,o),
(206,115,cs)
);
}
);
userData = {
com.hugojourdan.ColorFlow = {
"0" = 0;
"1" = 0;
"10" = 0;
"11" = 0;
"2" = 0;
"3" = 0;
"4" = 0;
"5" = 0;
"6" = 0;
"7" = 0;
"8" = 0;
"9" = 0;
};
};
width = 415;
}
);
note = zero;
unicode = 48;
},
{
color = 4;
glyphname = one;
lastChange = "2026-04-14 15:25:22 +0000";
layers = (
{
layerId = m01;
shapes = (
{
closed = 1;
nodes = (
(307,0,l),
(312,14,o),
(314,32,o),
(314,50,cs),
(314,75,o),
(310,99,o),
(307,109,c),
(243,109,l),
(242,176,o),
(241,263,o),
(241,341,cs),
(241,451,o),
(246,569,o),
(247,620,c),
(127,620,o),
(68,605,o),
(17,584,c),
(21,548,o),
(31,495,o),
(41,466,c),
(67,474,o),
(97,481,o),
(122,486,c),
(124,436,o),
(125,380,o),
(125,338,cs),
(125,277,o),
(124,182,o),
(122,109,c),
(50,109,l),
(46,99,o),
(43,76,o),
(43,51,cs),
(43,33,o),
(45,14,o),
(50,0,c)
);
}
);
userData = {
com.hugojourdan.ColorFlow = {
"0" = 0;
"1" = 0;
"10" = 0;
"11" = 0;
"2" = 0;
"3" = 0;
"4" = 0;
"5" = 0;
"6" = 0;
"7" = 0;
"8" = 0;
"9" = 0;
};
};
width = 317;
}
);
note = one;
unicode = 49;
},
{
color = 4;
glyphname = two;
lastChange = "2026-04-14 15:25:22 +0000";
layers = (
{
layerId = m01;
shapes = (
{
closed = 1;
nodes = (
(333,0,l),
(338,14,o),
(340,33,o),
(340,51,cs),
(340,76,o),
(336,99,o),
(333,109,c),
(172,109,l),
(223,205,o),
(337,348,o),
(337,487,cs),
(337,556,o),
(305,630,o),
(170,630,cs),
(106,630,o),
(60,613,o),
(23,594,c),
(23,499,ls),
(23,449,o),
(39,429,o),
(82,429,cs),
(99,429,o),
(118,432,o),
(131,436,c),
(128,507,l),
(140,509,o),
(151,510,o),
(163,510,cs),
(199,510,o),
(217,482,o),
(217,451,cs),
(217,397,o),
(80,204,o),
(36,109,cs),
(32,100,o),
(29,77,o),
(29,54,cs),
(29,35,o),
(31,14,o),
(36,0,c)
);
}
);
userData = {
com.hugojourdan.ColorFlow = {
"0" = 0;
"1" = 0;
"10" = 0;
"11" = 0;
"2" = 0;
"3" = 0;
"4" = 0;
"5" = 0;
"6" = 0;
"7" = 0;
"8" = 0;
"9" = 0;
};
};
width = 357;
}
);
note = two;
unicode = 50;
},
{
color = 4;
glyphname = three;
lastChange = "2026-04-14 15:25:22 +0000";
layers = (
{
layerId = m01;
shapes = (
{
closed = 1;
nodes = (
(256,-10,o),
(311,72,o),
(311,164,cs),
(311,233,o),
(281,266,o),
(250,297,c),
(277,330,o),
(307,389,o),
(307,466,cs),
(307,562,o),
(260,630,o),
(139,630,cs),
(95,630,o),
(54,621,o),
(17,602,c),
(21,567,o),
(29,517,o),
(40,487,c),
(67,496,o),
(95,505,o),
(118,505,cs),
(157,505,o),
(187,479,o),
(187,434,cs),
(187,395,o),
(165,345,o),
(121,345,cs),
(76,345,l),
(72,335,o),
(68,311,o),
(68,286,cs),
(68,269,o),
(70,252,o),
(75,240,c),
(124,240,ls),
(164,240,o),
(191,212,o),
(191,175,cs),
(191,139,o),
(165,110,o),
(113,110,cs),
(89,110,o),
(64,116,o),
(33,129,c),
(22,99,o),
(13,59,o),
(9,23,c),
(46,5,o),
(89,-10,o),
(139,-10,cs)
);
}
);
userData = {
com.hugojourdan.ColorFlow = {
"0" = 0;
"1" = 0;
"10" = 0;
"11" = 0;
"2" = 0;
"3" = 0;
"4" = 0;
"5" = 0;
"6" = 0;
"7" = 0;
"8" = 0;
"9" = 0;
};
};
width = 337;
}
);
note = three;
unicode = 51;
},
{
color = 4;
glyphname = four;
lastChange = "2026-04-14 15:25:22 +0000";
layers = (
{
layerId = m01;
shapes = (
{
closed = 1;
nodes = (
(333,0,l),
(330,50,o),
(329,100,o),
(329,148,c),
(369,148,l),
(374,160,o),
(375,177,o),
(375,194,cs),
(375,219,o),
(371,243,o),
(368,253,c),
(330,253,l),
(332,319,o),
(332,375,o),
(335,445,c),
(221,445,l),
(221,252,l),
(175,252,ls),
(155,252,o),
(144,264,o),
(144,290,cs),
(144,352,o),
(187,545,o),
(200,598,c),
(184,607,o),
(122,619,o),
(88,620,c),
(71,554,o),
(24,359,o),
(24,268,cs),
(24,184,o),
(61,147,o),
(149,147,cs),
(220,147,l),
(217,71,o),
(215,45,o),
(213,0,c)
);
}
);
userData = {
com.hugojourdan.ColorFlow = {
"0" = 0;
"1" = 0;
"10" = 0;
"11" = 0;
"2" = 0;
"3" = 0;
"4" = 0;
"5" = 0;
"6" = 0;
"7" = 0;
"8" = 0;
"9" = 0;
};
};
width = 390;
}
);
note = four;
unicode = 52;
},
{
color = 4;
glyphname = five;
lastChange = "2026-04-14 15:25:22 +0000";
layers = (
{
layerId = m01;
shapes = (
{
closed = 1;
nodes = (
(278,-10,o),
(323,79,o),
(323,180,cs),
(323,284,o),
(272,348,o),
(156,348,c),
(155,370,o),
(155,390,o),
(155,410,cs),
(155,442,o),
(156,475,o),
(157,504,c),
(301,504,l),
(304,517,o),
(307,537,o),
(307,564,cs),
(307,585,o),
(305,605,o),
(302,622,c),
(40,622,l),
(38,578,o),
(36,518,o),
(36,455,cs),
(36,385,o),
(37,307,o),
(43,244,c),
(154,244,o),
(203,226,o),
(203,170,cs),
(203,136,o),
(185,110,o),
(139,110,cs),
(115,110,o),
(85,117,o),
(55,130,c),
(43,100,o),
(33,61,o),
(29,27,c),
(66,8,o),
(110,-10,o),
(162,-10,cs)
);
}
);
userData = {
com.hugojourdan.ColorFlow = {
"0" = 0;
"1" = 0;
"10" = 0;
"11" = 0;
"2" = 0;
"3" = 0;
"4" = 0;
"5" = 0;
"6" = 0;
"7" = 0;
"8" = 0;
"9" = 0;
};
};
width = 349;
}
);
note = five;
unicode = 53;
},
{
color = 4;
glyphname = six;
lastChange = "2026-04-14 15:25:22 +0000";
layers = (
{
background = {
shapes = (
{
closed = 1;
nodes = (
(325,-10,o),
(372,98,o),
(372,198,cs),
(372,309,o),
(325,374,o),
(243,374,cs),
(205,374,o),
(173,356,o),
(147,331,c),
(147,410,o),
(173,510,o),
(256,510,cs),
(275,510,o),
(295,509,o),
(314,503,c),
(319,524,o),
(325,560,o),
(325,594,cs),
(325,601,o),
(325,609,o),
(324,616,c),
(297,623,o),
(266,630,o),
(236,630,cs),
(125,630,o),
(27,558,o),
(27,308,cs),
(27,101,o),
(66,-10,o),
(210,-10,cs)
);
},
{
closed = 1;
nodes = (
(163,109,o),
(147,149,o),
(147,232,c),
(160,249,o),
(183,264,o),
(200,264,cs),
(234,264,o),
(252,238,o),
(252,182,cs),
(252,143,o),
(239,109,o),
(204,109,cs)
);
}
);
};
layerId = m01;
shapes = (
{
closed = 1;
nodes = (
(333,-10,o),
(372,98,o),
(372,198,cs),
(372,309,o),
(322,374,o),
(243,374,cs),
(202,374,o),
(173,356,o),
(147,331,c),
(147,410,o),
(173,510,o),
(256,510,cs),
(275,510,o),
(295,509,o),
(314,503,c),
(319,524,o),
(325,560,o),
(325,594,cs),
(325,601,o),
(325,609,o),
(324,616,c),
(297,623,o),
(268,630,o),
(234,630,cs),
(127,630,o),
(27,562,o),
(27,302,cs),
(27,105,o),
(74,-10,o),
(204,-10,cs)
);
},
{
closed = 1;
nodes = (
(163,109,o),
(147,149,o),
(147,232,c),
(160,249,o),
(177,264,o),
(201,264,cs),
(233,264,o),
(252,236,o),
(252,185,cs),
(252,141,o),
(239,109,o),
(203,109,cs)
);
}
);
userData = {
com.hugojourdan.ColorFlow = {
"0" = 0;
"1" = 0;
"10" = 0;
"11" = 0;
"2" = 0;
"3" = 0;
"4" = 0;
"5" = 0;
"6" = 0;
"7" = 0;
"8" = 0;
"9" = 0;
};
};
width = 384;
}
);
note = six;
unicode = 54;
},
{
color = 4;
glyphname = seven;
lastChange = "2026-04-14 15:25:22 +0000";
layers = (
{
layerId = m01;
shapes = (
{
closed = 1;
nodes = (
(166,-8,o),
(199,2,o),
(213,53,cs),
(339,520,l),
(340,530,o),
(341,544,o),
(341,566,cs),
(341,580,o),
(339,597,o),
(334,612,c),
(263,620,o),
(183,622,o),
(120,622,cs),
(62,622,o),
(31,620,o),
(14,620,c),
(11,580,o),
(10,541,o),
(10,500,cs),
(10,452,o),
(25,429,o),
(72,429,cs),
(86,429,o),
(105,432,o),
(118,436,c),
(115,510,l),
(215,510,l),
(70,16,l),
(79,6,o),
(96,-8,o),
(131,-8,cs)
);
}
);
userData = {
com.hugojourdan.ColorFlow = {
"0" = 0;
"1" = 0;
"10" = 0;
"11" = 0;
"2" = 0;
"3" = 0;
"4" = 0;
"5" = 0;
"6" = 0;
"7" = 0;
"8" = 0;
"9" = 0;
};
};
width = 362;
}
);
note = seven;
unicode = 55;
},
{
color = 4;
glyphname = eight;
lastChange = "2026-04-14 15:25:22 +0000";
layers = (
{
background = {
shapes = (
{
closed = 1;
nodes = (
(320,-10,o),
(354,78,o),
(354,151,cs),
(354,203,o),
(322,257,o),
(298,281,c),
(314,307,o),
(351,401,o),
(351,462,cs),
(351,551,o),
(314,630,o),
(191,630,cs),
(74,630,o),
(23,566,o),
(23,462,cs),
(23,401,o),
(58,336,o),
(83,311,c),
(50,273,o),
(21,221,o),
(21,159,cs),
(21,82,o),
(66,-10,o),
(188,-10,cs)
);
},
{
closed = 1;
nodes = (
(155,100,o),
(133,128,o),
(133,165,cs),
(133,197,o),
(151,234,o),
(168,254,c),
(198,235,o),
(245,200,o),
(245,154,cs),
(245,122,o),
(222,100,o),
(189,100,cs)
);
},
{
closed = 1;
nodes = (
(179,367,o),
(132,405,o),
(132,453,cs),
(132,488,o),
(152,510,o),
(191,510,cs),
(225,510,o),
(246,488,o),
(246,458,cs),
(246,425,o),
(232,381,o),
(214,350,c)
);
}
);
};
layerId = m01;
shapes = (
{
closed = 1;
nodes = (
(320,-10,o),
(354,81,o),
(354,144,cs),
(354,206,o),
(322,257,o),
(298,281,c),
(314,307,o),
(351,387,o),
(351,468,cs),
(351,547,o),
(314,630,o),
(191,630,cs),
(74,630,o),
(23,560,o),
(23,470,cs),
(23,395,o),
(58,336,o),
(83,311,c),
(50,273,o),
(21,221,o),
(21,159,cs),
(21,82,o),
(66,-10,o),
(188,-10,cs)
);
},
{
closed = 1;
nodes = (
(154,100,o),
(133,128,o),
(133,166,cs),
(133,199,o),
(149,232,o),
(168,254,c),
(198,235,o),
(245,200,o),
(245,155,cs),
(245,122,o),
(221,100,o),
(190,100,cs)
);
},
{
closed = 1;
nodes = (
(179,367,o),
(132,405,o),
(132,455,cs),
(132,488,o),
(152,510,o),
(188,510,cs),
(225,510,o),
(246,488,o),
(246,456,cs),
(246,422,o),
(232,381,o),
(214,350,c)
);
}
);
userData = {
com.hugojourdan.ColorFlow = {
"0" = 0;
"1" = 0;
"10" = 0;
"11" = 0;
"2" = 0;
"3" = 0;
"4" = 0;
"5" = 0;
"6" = 0;
"7" = 0;
"8" = 0;
"9" = 0;
};
};
width = 371;
}
);
note = eight;
unicode = 56;
},
{
color = 4;
glyphname = nine;
lastChange = "2026-04-14 15:25:22 +0000";
layers = (
{
layerId = m01;
shapes = (
{
closed = 1;
nodes = (
(286,-10,o),
(367,52,o),
(367,321,cs),
(367,573,o),
(293,630,o),
(188,630,cs),
(77,630,o),
(21,561,o),
(21,405,cs),
(21,274,o),
(76,194,o),
(161,194,cs),
(198,194,o),
(227,209,o),
(247,232,c),
(247,158,o),
(235,109,o),
(168,109,cs),
(140,109,o),
(109,118,o),
(91,124,c),
(82,100,o),
(73,49,o),
(72,13,c),
(107,-2,o),
(137,-10,o),
(176,-10,cs)
);
},
{
closed = 1;
nodes = (
(160,304,o),
(139,334,o),
(139,404,cs),
(139,478,o),
(160,510,o),
(191,510,cs),
(229,510,o),
(247,461,o),
(247,330,c),
(232,311,o),
(212,304,o),
(195,304,cs)
);
}
);
userData = {
com.hugojourdan.ColorFlow = {
"0" = 0;
"1" = 0;
"10" = 0;
"11" = 0;
"2" = 0;
"3" = 0;
"4" = 0;
"5" = 0;
"6" = 0;
"7" = 0;
"8" = 0;
"9" = 0;
};
};
width = 392;
}
);
note = nine;
unicode = 57;
},
{
color = 4;
glyphname = fraction;
lastChange = "2026-04-14 15:25:22 +0000";
layers = (
{
layerId = m01;
shapes = (
{
closed = 1;
nodes = (
(-30,29,o),
(111,280,o),
(140,330,cs),
(176,392,o),
(270,546,o),
(284,569,c),
(191,620,l),
(177,593,o),
(99,447,o),
(57,374,cs),
(9,291,o),
(-130,62,o),
(-143,40,c),
(-52,-10,l)
);
}
);
userData = {
com.hugojourdan.ColorFlow = {
"0" = 0;
"1" = 0;
"10" = 0;
"11" = 0;
"2" = 0;
"3" = 0;
"4" = 0;
"5" = 0;
"6" = 0;
"7" = 0;
"8" = 0;
"9" = 0;
};
};
width = 160;
}
);
note = fraction;
unicode = 8260;
},
{
color = 4;
glyphname = zeroinferior;
lastChange = "2026-04-14 15:25:22 +0000";
layers = (
{
layerId = m01;
shapes = (
{
closed = 1;
nodes = (
(247,1,o),
(312,24,o),
(312,194,cs),
(312,339,o),
(248,363,o),
(169,363,cs),
(88,363,o),
(26,339,o),
(26,194,cs),
(26,25,o),
(90,1,o),
(169,1,cs)
);
},
{
closed = 1;
nodes = (
(139,91,o),
(125,121,o),
(125,190,cs),
(125,247,o),
(137,275,o),
(169,275,cs),
(200,275,o),
(213,247,o),
(213,190,cs),
(213,121,o),
(196,91,o),
(168,91,cs)
);
}
);
userData = {
com.hugojourdan.ColorFlow = {
"0" = 0;
"1" = 0;
"10" = 0;
"11" = 0;
"2" = 0;
"3" = 0;
"4" = 0;
"5" = 0;
"6" = 0;
"7" = 0;
"8" = 0;
"9" = 0;
};
};
width = 338;
}
);
metricLeft = zero;
metricRight = zero;
unicode = 8320;
},
{
color = 4;
glyphname = oneinferior;
lastChange = "2026-04-14 15:25:22 +0000";
layers = (
{
layerId = m01;
shapes = (
{
closed = 1;
nodes = (
(232,0,l),
(234,9,o),
(236,24,o),
(236,38,cs),
(236,56,o),
(233,75,o),
(232,81,c),
(189,81,l),
(188,124,o),
(188,121,o),
(188,170,cs),
(188,239,o),
(191,341,o),
(191,348,c),
(89,348,o),
(51,335,o),
(17,318,c),
(21,291,o),
(27,253,o),
(33,232,c),
(50,235,o),
(69,242,o),
(87,244,c),
(88,216,o),
(88,183,o),
(88,159,cs),
(88,125,o),
(88,124,o),
(87,81,c),
(44,81,l),
(43,75,o),
(40,57,o),
(40,38,cs),
(40,25,o),
(41,9,o),
(44,0,c)
);
}
);
userData = {
com.hugojourdan.ColorFlow = {
"0" = 0;
"1" = 0;
"10" = 0;
"11" = 0;
"2" = 0;
"3" = 0;
"4" = 0;
"5" = 0;
"6" = 0;
"7" = 0;
"8" = 0;
"9" = 0;
};
};
width = 239;
}
);
metricLeft = one;
metricRight = one;
unicode = 8321;
},
{
color = 4;
glyphname = twoinferior;
lastChange = "2026-04-14 15:25:22 +0000";
layers = (
{
layerId = m01;
shapes = (
{
closed = 1;
nodes = (
(247,0,l),
(251,10,o),
(252,24,o),
(252,39,cs),
(252,57,o),
(249,71,o),
(247,79,c),
(167,79,l),
(194,140,o),
(253,178,o),
(253,253,cs),
(253,308,o),
(229,351,o),
(126,351,cs),
(79,351,o),
(47,340,o),
(23,327,c),
(23,257,ls),
(23,221,o),
(34,207,o),
(71,207,cs),
(79,207,o),
(95,209,o),
(104,213,c),
(102,257,l),
(108,259,o),
(115,260,o),
(121,260,cs),
(140,260,o),
(150,243,o),
(150,223,cs),
(150,183,o),
(33,108,o),
(33,34,cs),
(33,22,o),
(35,9,o),
(38,0,c)
);
}
);
userData = {
com.hugojourdan.ColorFlow = {
"0" = 0;
"1" = 0;
"10" = 0;
"11" = 0;
"2" = 0;
"3" = 0;
"4" = 0;
"5" = 0;
"6" = 0;
"7" = 0;
"8" = 0;
"9" = 0;
};
};
width = 270;
}
);
metricLeft = two;
metricRight = two;
unicode = 8322;
},
{
color = 4;
glyphname = threeinferior;
lastChange = "2026-04-14 15:25:22 +0000";
layers = (
{
layerId = m01;
shapes = (
{
closed = 1;
nodes = (
(191,-6,o),
(222,38,o),
(222,98,cs),
(222,130,o),
(204,150,o),
(189,167,c),
(202,187,o),
(219,221,o),
(219,258,cs),
(219,319,o),
(189,356,o),
(104,356,cs),
(72,356,o),
(42,349,o),
(14,340,c),
(16,315,o),
(20,278,o),
(28,259,c),
(49,265,o),
(72,270,o),
(90,270,cs),
(107,270,o),
(120,258,o),
(120,241,cs),
(120,223,o),
(101,199,o),
(77,199,cs),
(48,199,l),
(46,193,o),
(43,175,o),
(43,158,cs),
(43,147,o),
(44,137,o),
(47,130,c),
(79,130,ls),
(105,130,o),
(123,118,o),
(123,101,cs),
(123,88,o),
(110,77,o),
(90,77,cs),
(64,77,o),
(46,80,o),
(24,87,c),
(17,67,o),
(12,40,o),
(9,15,c),
(33,4,o),
(65,-6,o),
(104,-6,cs)
);
}
);
userData = {
com.hugojourdan.ColorFlow = {
"0" = 0;
"1" = 0;
"10" = 0;
"11" = 0;
"2" = 0;
"3" = 0;
"4" = 0;
"5" = 0;
"6" = 0;
"7" = 0;
"8" = 0;
"9" = 0;
};
};
width = 248;
}
);
metricLeft = three;
metricRight = three;
unicode = 8323;
},
{
color = 4;
glyphname = fourinferior;
lastChange = "2026-04-14 15:25:22 +0000";
layers = (
{
layerId = m01;
shapes = (
{
closed = 1;
nodes = (
(266,0,l),
(264,26,o),
(264,52,o),
(264,77,c),
(295,77,l),
(301,100,o),
(298,143,o),
(295,156,c),
(267,156,l),
(272,271,l),
(177,271,l),
(177,155,l),
(144,155,ls),
(128,155,o),
(117,161,o),
(117,174,cs),
(117,200,o),
(143,310,o),
(151,338,c),
(139,342,o),
(116,353,o),
(66,357,c),
(55,319,o),
(24,190,o),
(24,151,cs),
(24,98,o),
(46,75,o),
(111,76,cs),
(178,77,l),
(177,36,o),
(174,0,o),
(174,0,c)
);
}
);
userData = {
com.hugojourdan.ColorFlow = {
"0" = 0;
"1" = 0;
"10" = 0;
"11" = 0;
"2" = 0;
"3" = 0;
"4" = 0;
"5" = 0;
"6" = 0;
"7" = 0;
"8" = 0;
"9" = 0;
};
};
width = 313;
}
);
metricLeft = four;
metricRight = four;
unicode = 8324;
},
{
color = 4;
glyphname = fiveinferior;
lastChange = "2026-04-14 15:25:22 +0000";
layers = (
{
layerId = m01;
shapes = (
{
closed = 1;
nodes = (
(215,-5,o),
(253,47,o),
(253,110,cs),
(253,177,o),
(215,220,o),
(126,220,c),
(126,238,o),
(126,255,o),
(127,269,c),
(234,269,l),
(241,302,o),
(238,329,o),
(236,348,c),
(39,348,l),
(37,294,o),
(35,200,o),
(40,149,c),
(118,149,o),
(153,143,o),
(153,116,cs),
(153,99,o),
(139,87,o),
(103,87,cs),
(84,87,o),
(63,90,o),
(44,97,c),
(36,79,o),
(31,42,o),
(29,16,c),
(52,4,o),
(79,-5,o),
(120,-5,cs)
);
}
);
userData = {
com.hugojourdan.ColorFlow = {
"0" = 0;
"1" = 0;
"10" = 0;
"11" = 0;
"2" = 0;
"3" = 0;
"4" = 0;
"5" = 0;
"6" = 0;
"7" = 0;
"8" = 0;
"9" = 0;
};
};
width = 279;
}
);
metricLeft = five;
metricRight = five;
unicode = 8325;
},
{
color = 4;
glyphname = sixinferior;
lastChange = "2026-04-14 15:25:22 +0000";
layers = (
{
layerId = m01;
shapes = (
{
closed = 1;
nodes = (
(233,-6,o),
(258,55,o),
(258,110,cs),
(258,176,o),
(225,214,o),
(171,214,cs),
(149,214,o),
(131,203,o),
(117,191,c),
(116,228,o),
(132,275,o),
(182,275,cs),
(193,275,o),
(206,273,o),
(220,270,c),
(223,285,o),
(227,310,o),
(227,336,cs),
(227,340,o),
(227,344,o),
(226,349,c),
(208,352,o),
(190,356,o),
(167,356,cs),
(95,356,o),
(27,319,o),
(27,170,cs),
(27,59,o),
(60,-6,o),
(147,-6,cs)
);
},
{
closed = 1;
nodes = (
(129,75,o),
(119,92,o),
(119,126,c),
(127,136,o),
(138,144,o),
(148,144,cs),
(167,144,o),
(179,134,o),
(179,111,cs),
(179,91,o),
(170,75,o),
(152,75,cs)
);
}
);
userData = {
com.hugojourdan.ColorFlow = {
"0" = 0;
"1" = 0;
"10" = 0;
"11" = 0;
"2" = 0;
"3" = 0;
"4" = 0;
"5" = 0;
"6" = 0;
"7" = 0;
"8" = 0;
"9" = 0;
};
};
width = 270;
}
);
metricLeft = six;
metricRight = six;
unicode = 8326;
},
{
color = 4;
glyphname = seveninferior;
lastChange = "2026-04-14 15:25:22 +0000";
layers = (
{
layerId = m01;
shapes = (
{
closed = 1;
nodes = (
(124,-7,o),
(154,-3,o),
(162,27,cs),
(245,297,l),
(246,301,o),
(247,310,o),
(247,322,cs),
(247,330,o),
(245,341,o),
(243,349,c),
(196,354,o),
(142,355,o),
(89,355,cs),
(48,355,o),
(22,354,o),
(12,354,c),
(11,330,o),
(10,308,o),
(10,285,cs),
(10,253,o),
(25,238,o),
(56,238,cs),
(68,238,o),
(81,240,o),
(88,242,c),
(86,279,l),
(148,279,l),
(60,14,l),
(65,5,o),
(75,-7,o),
(95,-7,cs)
);
}
);
userData = {
com.hugojourdan.ColorFlow = {
"0" = 0;
"1" = 0;
"10" = 0;
"11" = 0;
"2" = 0;
"3" = 0;
"4" = 0;
"5" = 0;
"6" = 0;
"7" = 0;
"8" = 0;
"9" = 0;
};
};
width = 268;
}
);
metricLeft = seven;
metricRight = seven;
unicode = 8327;
},
{
color = 4;
glyphname = eightinferior;
lastChange = "2026-04-14 15:25:22 +0000";
layers = (
{
layerId = m01;
shapes = (
{
closed = 1;
nodes = (
(216,-7,o),
(238,45,o),
(238,81,cs),
(238,116,o),
(217,145,o),
(202,158,c),
(212,173,o),
(236,218,o),
(236,264,cs),
(236,309,o),
(212,356,o),
(132,356,cs),
(55,356,o),
(22,316,o),
(22,265,cs),
(22,223,o),
(45,189,o),
(61,175,c),
(40,154,o),
(21,124,o),
(21,89,cs),
(21,45,o),
(50,-7,o),
(132,-7,cs)
);
},
{
closed = 1;
nodes = (
(112,62,o),
(100,75,o),
(100,94,cs),
(100,111,o),
(108,130,o),
(119,141,c),
(135,130,o),
(162,111,o),
(162,88,cs),
(162,72,o),
(149,62,o),
(132,62,cs)
);
},
{
closed = 1;
nodes = (
(125,208,o),
(100,229,o),
(100,255,cs),
(100,272,o),
(111,285,o),
(131,285,cs),
(152,285,o),
(163,273,o),
(163,252,cs),
(163,234,o),
(154,216,o),
(145,198,c)
);
}
);
userData = {
com.hugojourdan.ColorFlow = {
"0" = 0;
"1" = 0;
"10" = 0;
"11" = 0;
"2" = 0;
"3" = 0;
"4" = 0;
"5" = 0;
"6" = 0;
"7" = 0;
"8" = 0;
"9" = 0;
};
};
width = 255;
}
);
metricLeft = eight;
metricRight = eight;
unicode = 8328;
},
{
color = 4;
glyphname = nineinferior;
lastChange = "2026-04-14 15:25:22 +0000";
layers = (
{
layerId = m01;
shapes = (
{
closed = 1;
nodes = (
(186,-8,o),
(237,27,o),
(237,180,cs),
(237,323,o),
(190,355,o),
(123,355,cs),
(55,355,o),
(21,314,o),
(21,231,cs),
(21,151,o),
(55,108,o),
(107,108,cs),
(128,108,o),
(145,117,o),
(156,130,c),
(156,95,o),
(149,72,o),
(111,72,cs),
(93,72,o),
(73,77,o),
(61,80,c),
(56,67,o),
(50,30,o),
(50,5,c),
(72,-3,o),
(91,-8,o),
(116,-8,cs)
);
},
{
closed = 1;
nodes = (
(108,181,o),
(97,195,o),
(97,227,cs),
(97,266,o),
(108,282,o),
(125,282,cs),
(146,282,o),
(156,259,o),
(156,196,c),
(148,185,o),
(137,181,o),
(128,181,cs)
);
}
);
userData = {
com.hugojourdan.ColorFlow = {
"0" = 0;
"1" = 0;
"10" = 0;
"11" = 0;
"2" = 0;
"3" = 0;
"4" = 0;
"5" = 0;
"6" = 0;
"7" = 0;
"8" = 0;
"9" = 0;
};
};
width = 262;
}
);
metricLeft = nine;
metricRight = nine;
unicode = 8329;
},
{
color = 4;
glyphname = zerosuperior;
lastChange = "2026-04-14 15:25:22 +0000";
layers = (
{
layerId = m01;
shapes = (
{
closed = 1;
nodes = (
(247,291,o),
(312,314,o),
(312,484,cs),
(312,629,o),
(248,653,o),
(169,653,cs),
(88,653,o),
(26,629,o),
(26,484,cs),
(26,315,o),
(90,291,o),
(169,291,cs)
);
},
{
closed = 1;
nodes = (
(139,381,o),
(125,411,o),
(125,480,cs),
(125,537,o),
(137,565,o),
(169,565,cs),
(200,565,o),
(213,537,o),
(213,480,cs),
(213,411,o),
(196,381,o),
(168,381,cs)
);
}
);
userData = {
com.hugojourdan.ColorFlow = {
"0" = 0;
"1" = 0;
"10" = 0;
"11" = 0;
"2" = 0;
"3" = 0;
"4" = 0;
"5" = 0;
"6" = 0;
"7" = 0;
"8" = 0;
"9" = 0;
};
};
width = 338;
}
);
unicode = 8304;
},
{
color = 4;
glyphname = onesuperior;
lastChange = "2026-04-14 15:25:22 +0000";
layers = (
{
guides = (
{
pos = (204,648);
},
{
pos = (57,300);
}
);
layerId = m01;
shapes = (
{
closed = 1;
nodes = (
(245,300,l),
(247,309,o),
(249,324,o),
(249,338,cs),
(249,356,o),
(246,375,o),
(245,381,c),
(202,381,l),
(201,424,o),
(201,421,o),
(201,470,cs),
(201,539,o),
(204,641,o),
(204,648,c),
(102,648,o),
(64,635,o),
(30,618,c),
(34,591,o),
(40,553,o),
(46,532,c),
(63,535,o),
(82,542,o),
(100,544,c),
(101,516,o),
(101,483,o),
(101,459,cs),
(101,425,o),
(101,424,o),
(100,381,c),
(57,381,l),
(56,375,o),
(53,357,o),
(53,338,cs),
(53,325,o),
(54,309,o),
(57,300,c)
);
}
);
userData = {
com.hugojourdan.ColorFlow = {
"0" = 0;
"1" = 0;
"10" = 0;
"11" = 0;
"2" = 0;
"3" = 0;
"4" = 0;
"5" = 0;
"6" = 0;
"7" = 0;
"8" = 0;
"9" = 0;
};
};
width = 289;
}
);
note = onesuperior;
unicode = 185;
},
{
color = 4;
glyphname = twosuperior;
lastChange = "2026-04-14 15:25:22 +0000";
layers = (
{
layerId = m01;
shapes = (
{
closed = 1;
nodes = (
(254,301,l),
(258,311,o),
(259,325,o),
(259,340,cs),
(259,358,o),
(256,372,o),
(254,380,c),
(174,380,l),
(201,441,o),
(260,479,o),
(260,554,cs),
(260,609,o),
(236,652,o),
(133,652,cs),
(86,652,o),
(54,641,o),
(30,628,c),
(30,558,ls),
(30,522,o),
(41,508,o),
(78,508,cs),
(86,508,o),
(102,510,o),
(111,514,c),
(109,558,l),
(115,560,o),
(122,561,o),
(128,561,cs),
(147,561,o),
(157,544,o),
(157,524,cs),
(157,484,o),
(40,409,o),
(40,335,cs),
(40,323,o),
(42,310,o),
(45,301,c)
);
}
);
userData = {
com.hugojourdan.ColorFlow = {
"0" = 0;
"1" = 0;
"10" = 0;
"11" = 0;
"2" = 0;
"3" = 0;
"4" = 0;
"5" = 0;
"6" = 0;
"7" = 0;
"8" = 0;
"9" = 0;
};
};
width = 305;
}
);
note = twosuperior;
unicode = 178;
},
{
color = 4;
glyphname = threesuperior;
lastChange = "2026-04-14 15:25:22 +0000";
layers = (
{
layerId = m01;
shapes = (
{
closed = 1;
nodes = (
(217,291,o),
(248,335,o),
(248,395,cs),
(248,427,o),
(230,447,o),
(215,464,c),
(228,484,o),
(245,518,o),
(245,555,cs),
(245,616,o),
(215,653,o),
(130,653,cs),
(98,653,o),
(68,646,o),
(40,637,c),
(42,612,o),
(46,575,o),
(54,556,c),
(75,562,o),
(98,567,o),
(116,567,cs),
(133,567,o),
(146,555,o),
(146,538,cs),
(146,520,o),
(127,496,o),
(103,496,cs),
(74,496,l),
(72,490,o),
(69,472,o),
(69,455,cs),
(69,444,o),
(70,434,o),
(73,427,c),
(105,427,ls),
(131,427,o),
(149,415,o),
(149,398,cs),
(149,385,o),
(136,374,o),
(116,374,cs),
(90,374,o),
(72,377,o),
(50,384,c),
(43,364,o),
(38,337,o),
(35,312,c),
(59,301,o),
(91,291,o),
(130,291,cs)
);
}
);
userData = {
com.hugojourdan.ColorFlow = {
"0" = 0;
"1" = 0;
"10" = 0;
"11" = 0;
"2" = 0;
"3" = 0;
"4" = 0;
"5" = 0;
"6" = 0;
"7" = 0;
"8" = 0;
"9" = 0;
};
};
width = 283;
}
);
note = threesuperior;
unicode = 179;
},
{
color = 4;
glyphname = foursuperior;
lastChange = "2026-04-14 15:25:22 +0000";
layers = (
{
layerId = m01;
shapes = (
{
closed = 1;
nodes = (
(257,300,l),
(255,326,o),
(255,352,o),
(255,377,c),
(286,377,l),
(292,400,o),
(289,443,o),
(286,456,c),
(258,456,l),
(263,571,l),
(168,571,l),
(168,455,l),
(141,455,ls),
(125,455,o),
(114,461,o),
(114,474,cs),
(114,500,o),
(140,610,o),
(148,638,c),
(136,642,o),
(113,653,o),
(63,657,c),
(52,619,o),
(21,490,o),
(21,451,cs),
(21,398,o),
(43,375,o),
(108,376,cs),
(169,377,l),
(168,337,o),
(168,329,o),
(165,300,c)
);
}
);
userData = {
com.hugojourdan.ColorFlow = {
"0" = 0;
"1" = 0;
"10" = 0;
"11" = 0;
"2" = 0;
"3" = 0;
"4" = 0;
"5" = 0;
"6" = 0;
"7" = 0;
"8" = 0;
"9" = 0;
};
};
width = 320;
}
);
note = fouruperior;
unicode = 8308;
},
{
color = 4;
glyphname = fivesuperior;
lastChange = "2026-04-14 15:25:22 +0000";
layers = (
{
layerId = m01;
shapes = (
{
closed = 1;
nodes = (
(220,291,o),
(258,343,o),
(258,406,cs),
(258,473,o),
(220,516,o),
(131,516,c),
(131,534,o),
(131,551,o),
(132,565,c),
(239,565,l),
(246,598,o),
(243,625,o),
(241,644,c),
(44,644,l),
(42,590,o),
(40,496,o),
(45,445,c),
(123,445,o),
(158,439,o),
(158,412,cs),
(158,395,o),
(144,383,o),
(108,383,cs),
(89,383,o),
(68,386,o),
(49,393,c),
(41,375,o),
(36,338,o),
(34,312,c),
(57,300,o),
(84,291,o),
(125,291,cs)
);
}
);
userData = {
com.hugojourdan.ColorFlow = {
"0" = 0;
"1" = 0;
"10" = 0;
"11" = 0;
"2" = 0;
"3" = 0;
"4" = 0;
"5" = 0;
"6" = 0;
"7" = 0;
"8" = 0;
"9" = 0;
};
};
width = 273;
}
);
unicode = 8309;
},
{
color = 4;
glyphname = sixsuperior;
lastChange = "2026-04-14 15:25:22 +0000";
layers = (
{
layerId = m01;
shapes = (
{
closed = 1;
nodes = (
(249,291,o),
(274,352,o),
(274,407,cs),
(274,473,o),
(241,511,o),
(187,511,cs),
(165,511,o),
(147,500,o),
(133,488,c),
(132,525,o),
(148,572,o),
(198,572,cs),
(209,572,o),
(222,570,o),
(236,567,c),
(239,582,o),
(243,607,o),
(243,633,cs),
(243,637,o),
(243,641,o),
(242,646,c),
(224,649,o),
(206,653,o),
(183,653,cs),
(111,653,o),
(43,616,o),
(43,467,cs),
(43,356,o),
(76,291,o),
(163,291,cs)
);
},
{
closed = 1;
nodes = (
(145,372,o),
(135,389,o),
(135,423,c),
(143,433,o),
(154,441,o),
(164,441,cs),
(183,441,o),
(195,431,o),
(195,408,cs),
(195,388,o),
(186,372,o),
(168,372,cs)
);
}
);
userData = {
com.hugojourdan.ColorFlow = {
"0" = 0;
"1" = 0;
"10" = 0;
"11" = 0;
"2" = 0;
"3" = 0;
"4" = 0;
"5" = 0;
"6" = 0;
"7" = 0;
"8" = 0;
"9" = 0;
};
};
width = 293;
}
);
unicode = 8310;
},
{
color = 4;
glyphname = sevensuperior;
lastChange = "2026-04-14 15:25:22 +0000";
layers = (
{
layerId = m01;
shapes = (
{
closed = 1;
nodes = (
(134,291,o),
(164,295,o),
(172,325,cs),
(255,595,l),
(256,599,o),
(257,608,o),
(257,620,cs),
(257,628,o),
(255,639,o),
(253,647,c),
(206,652,o),
(152,653,o),
(99,653,cs),
(58,653,o),
(32,652,o),
(22,652,c),
(21,628,o),
(20,606,o),
(20,583,cs),
(20,551,o),
(35,536,o),
(66,536,cs),
(78,536,o),
(91,538,o),
(98,540,c),
(96,577,l),
(158,577,l),
(70,312,l),
(75,303,o),
(85,291,o),
(105,291,cs)
);
}
);
userData = {
com.hugojourdan.ColorFlow = {
"0" = 0;
"1" = 0;
"10" = 0;
"11" = 0;
"2" = 0;
"3" = 0;
"4" = 0;
"5" = 0;
"6" = 0;
"7" = 0;
"8" = 0;
"9" = 0;
};
};
width = 278;
}
);
unicode = 8311;
},
{
color = 4;
glyphname = eightsuperior;
lastChange = "2026-04-14 15:25:22 +0000";
layers = (
{
layerId = m01;
shapes = (
{
closed = 1;
nodes = (
(226,290,o),
(248,342,o),
(248,378,cs),
(248,413,o),
(227,442,o),
(212,455,c),
(222,470,o),
(246,515,o),
(246,561,cs),
(246,606,o),
(222,653,o),
(142,653,cs),
(65,653,o),
(32,613,o),
(32,562,cs),
(32,520,o),
(55,486,o),
(71,472,c),
(50,451,o),
(31,421,o),
(31,386,cs),
(31,342,o),
(60,290,o),
(142,290,cs)
);
},
{
closed = 1;
nodes = (
(122,359,o),
(110,372,o),
(110,391,cs),
(110,408,o),
(118,427,o),
(129,438,c),
(145,427,o),
(172,408,o),
(172,385,cs),
(172,369,o),
(159,359,o),
(142,359,cs)
);
},
{
closed = 1;
nodes = (
(135,505,o),
(110,526,o),
(110,552,cs),
(110,569,o),
(121,582,o),
(141,582,cs),
(162,582,o),
(173,570,o),
(173,549,cs),
(173,531,o),
(164,513,o),
(155,495,c)
);
}
);
userData = {
com.hugojourdan.ColorFlow = {
"0" = 0;
"1" = 0;
"10" = 0;
"11" = 0;
"2" = 0;
"3" = 0;
"4" = 0;
"5" = 0;
"6" = 0;
"7" = 0;
"8" = 0;
"9" = 0;
};
};
width = 275;
}
);
unicode = 8312;
},
{
color = 4;
glyphname = ninesuperior;
lastChange = "2026-04-14 15:25:22 +0000";
layers = (
{
layerId = m01;
shapes = (
{
closed = 1;
nodes = (
(196,290,o),
(247,325,o),
(247,478,cs),
(247,621,o),
(200,653,o),
(133,653,cs),
(65,653,o),
(31,612,o),
(31,529,cs),
(31,449,o),
(65,406,o),
(117,406,cs),
(138,406,o),
(155,415,o),
(166,428,c),
(166,393,o),
(159,370,o),
(121,370,cs),
(103,370,o),
(83,375,o),
(71,378,c),
(66,365,o),
(60,328,o),
(60,303,c),
(82,295,o),
(101,290,o),
(126,290,cs)
);
},
{
closed = 1;
nodes = (
(118,479,o),
(107,493,o),
(107,525,cs),
(107,564,o),
(118,580,o),
(135,580,cs),
(156,580,o),
(166,557,o),
(166,494,c),
(158,483,o),
(147,479,o),
(138,479,cs)
);
}
);
userData = {
com.hugojourdan.ColorFlow = {
"0" = 0;
"1" = 0;
"10" = 0;
"11" = 0;
"2" = 0;
"3" = 0;
"4" = 0;
"5" = 0;
"6" = 0;
"7" = 0;
"8" = 0;
"9" = 0;
};
};
width = 272;
}
);
unicode = 8313;
},
{
color = 4;
glyphname = period;
lastChange = "2026-04-14 15:25:22 +0000";
layers = (
{
layerId = m01;
shapes = (
{
closed = 1;
nodes = (
(114,-15,o),
(142,18,o),
(142,53,cs),
(142,89,o),
(114,122,o),
(78,122,cs),
(43,122,o),
(16,89,o),
(16,53,cs),
(16,18,o),
(43,-15,o),
(78,-15,cs)
);
}
);
userData = {
com.hugojourdan.ColorFlow = {
"0" = 0;
"1" = 0;
"10" = 0;
"11" = 0;
"2" = 0;
"3" = 0;
"4" = 0;
"5" = 0;
"6" = 0;
"7" = 0;
"8" = 0;
"9" = 0;
};
};
width = 158;
}
);
note = period;
unicode = 46;
},
{
color = 4;
glyphname = comma;
lastChange = "2026-04-14 15:25:22 +0000";
layers = (
{
layerId = m01;
shapes = (
{
closed = 1;
nodes = (
(114,-67,o),
(143,1,o),
(143,52,cs),
(143,82,o),
(118,122,o),
(78,122,cs),
(40,122,o),
(16,87,o),
(16,52,cs),
(16,26,o),
(28,-1,o),
(54,-6,c),
(54,-8,o),
(39,-61,o),
(28,-90,c),
(32,-91,o),
(87,-110,o),
(91,-110,c)
);
}
);
userData = {
com.hugojourdan.ColorFlow = {
"0" = 0;
"1" = 0;
"10" = 0;
"11" = 0;
"2" = 0;
"3" = 0;
"4" = 0;
"5" = 0;
"6" = 0;
"7" = 0;
"8" = 0;
"9" = 0;
};
};
width = 159;
}
);
note = comma;
unicode = 44;
},
{
color = 4;
glyphname = exclam;
lastChange = "2026-04-14 15:25:22 +0000";
layers = (
{
layerId = m01;
shapes = (
{
closed = 1;
nodes = (
(169,346,o),
(168,462,o),
(179,628,c),
(95,628,o),
(69,618,o),
(50,614,c),
(55,451,o),
(61,350,o),
(63,187,c),
(79,182,o),
(101,175,o),
(166,175,c)
);
},
{
closed = 1;
nodes = (
(154,-10,o),
(179,25,o),
(179,65,cs),
(179,105,o),
(154,140,o),
(114,140,cs),
(71,140,o),
(43,105,o),
(43,65,cs),
(43,25,o),
(71,-10,o),
(114,-10,cs)
);
}
);
userData = {
com.hugojourdan.ColorFlow = {
"0" = 0;
"1" = 0;
"10" = 0;
"11" = 0;
"2" = 0;
"3" = 0;
"4" = 0;
"5" = 0;
"6" = 0;
"7" = 0;
"8" = 0;
"9" = 0;
};
};
width = 229;
}
);
note = exclam;
unicode = 33;
},
{
color = 4;
glyphname = question;
lastChange = "2026-04-14 15:25:22 +0000";
layers = (
{
layerId = m01;
shapes = (
{
closed = 1;
nodes = (
(111,196,o),
(145,199,o),
(163,208,c),
(163,228,ls),
(163,257,o),
(164,284,o),
(166,311,c),
(232,326,o),
(281,389,o),
(281,484,cs),
(281,600,o),
(218,652,o),
(129,652,cs),
(95,652,o),
(60,643,o),
(32,622,c),
(33,602,o),
(44,556,o),
(54,534,c),
(82,542,o),
(91,544,o),
(111,544,cs),
(143,544,o),
(163,518,o),
(163,471,cs),
(163,409,o),
(127,389,o),
(64,389,c),
(58,349,o),
(56,310,o),
(56,272,cs),
(56,246,o),
(57,221,o),
(59,197,c),
(66,196,o),
(74,196,o),
(83,196,cs)
);
},
{
closed = 1;
nodes = (
(154,-10,o),
(179,25,o),
(179,65,cs),
(179,105,o),
(154,140,o),
(114,140,cs),
(71,140,o),
(43,105,o),
(43,65,cs),
(43,25,o),
(71,-10,o),
(114,-10,cs)
);
}
);
userData = {
com.hugojourdan.ColorFlow = {
"0" = 0;
"1" = 0;
"10" = 0;
"11" = 0;
"2" = 0;
"3" = 0;
"4" = 0;
"5" = 0;
"6" = 0;
"7" = 0;
"8" = 0;
"9" = 0;
};
};
width = 316;
}
);
note = question;
unicode = 63;
},
{
color = 4;
glyphname = questiondown;
lastChange = "2026-04-14 15:25:22 +0000";
layers = (
{
background = {
shapes = (
{
closed = 1;
nodes = (
(213,-111,o),
(255,-102,o),
(283,-81,c),
(282,-61,o),
(271,-15,o),
(261,7,c),
(233,-1,o),
(224,-3,o),
(204,-3,cs),
(172,-3,o),
(152,26,o),
(152,56,cs),
(152,135,o),
(188,152,o),
(251,152,c),
(257,192,o),
(259,231,o),
(259,269,cs),
(259,295,o),
(258,320,o),
(256,344,c),
(249,345,o),
(241,345,o),
(232,345,cs),
(204,345,o),
(170,342,o),
(152,333,c),
(152,313,ls),
(152,284,o),
(151,257,o),
(149,230,c),
(83,215,o),
(34,157,o),
(34,52,cs),
(34,-54,o),
(97,-111,o),
(186,-111,cs)
);
},
{
closed = 1;
nodes = (
(244,401,o),
(272,436,o),
(272,476,cs),
(272,516,o),
(244,551,o),
(201,551,cs),
(161,551,o),
(136,516,o),
(136,476,cs),
(136,436,o),
(161,401,o),
(201,401,cs)
);
}
);
};
layerId = m01;
shapes = (
{
angle = 180;
pos = (316,541);
ref = question;
}
);
userData = {
com.hugojourdan.ColorFlow = {
"0" = 0;
"1" = 0;
"10" = 0;
"11" = 0;
"2" = 0;
"3" = 0;
"4" = 0;
"5" = 0;
"6" = 0;
"7" = 0;
"8" = 0;
"9" = 0;
};
};
width = 316;
}
);
note = questiondown;
unicode = 191;
},
{
color = 4;
glyphname = bullet;
lastChange = "2026-04-14 15:25:22 +0000";
layers = (
{
layerId = m01;
shapes = (
{
closed = 1;
nodes = (
(163,157,o),
(205,198,o),
(205,251,cs),
(205,305,o),
(163,346,o),
(109,346,cs),
(57,346,o),
(16,305,o),
(16,251,cs),
(16,198,o),
(57,157,o),
(109,157,cs)
);
}
);
userData = {
com.hugojourdan.ColorFlow = {
"0" = 0;
"1" = 0;
"10" = 0;
"11" = 0;
"2" = 0;
"3" = 0;
"4" = 0;
"5" = 0;
"6" = 0;
"7" = 0;
"8" = 0;
"9" = 0;
};
};
width = 221;
}
);
note = bullet;
unicode = 8226;
},
{
color = 4;
glyphname = asterisk;
lastChange = "2026-04-14 15:25:22 +0000";
layers = (
{
layerId = m01;
shapes = (
{
closed = 1;
nodes = (
(292,306,o),
(317,336,o),
(317,361,cs),
(317,387,o),
(282,420,o),
(250,439,c),
(371,463,l),
(371,507,o),
(341,547,o),
(308,547,cs),
(280,547,o),
(244,529,o),
(220,507,c),
(239,627,l),
(225,632,o),
(215,633,o),
(203,633,cs),
(164,633,o),
(136,612,o),
(136,576,cs),
(136,550,o),
(138,522,o),
(145,500,c),
(35,561,l),
(18,539,o),
(12,518,o),
(12,498,cs),
(12,446,o),
(83,429,o),
(126,429,cs),
(132,429,l),
(44,338,l),
(66,312,o),
(93,297,o),
(116,297,cs),
(147,297,o),
(181,345,o),
(193,386,c),
(263,291,l)
);
}
);
userData = {
com.hugojourdan.ColorFlow = {
"0" = 0;
"1" = 0;
"10" = 0;
"11" = 0;
"2" = 0;
"3" = 0;
"4" = 0;
"5" = 0;
"6" = 0;
"7" = 0;
"8" = 0;
"9" = 0;
};
};
width = 383;
}
);
note = asterisk;
unicode = 42;
},
{
color = 4;
glyphname = numbersign;
lastChange = "2026-04-14 15:25:22 +0000";
layers = (
{
layerId = m01;
shapes = (
{
closed = 1;
nodes = (
(173,-10,o),
(196,-7,o),
(207,-3,c),
(230,165,l),
(331,165,l),
(305,-3,l),
(318,-8,o),
(335,-10,o),
(352,-10,cs),
(376,-10,o),
(399,-7,o),
(410,-3,c),
(433,165,l),
(575,165,l),
(580,177,o),
(582,191,o),
(582,207,cs),
(582,228,o),
(578,248,o),
(575,257,c),
(445,257,l),
(460,361,l),
(575,361,l),
(580,373,o),
(582,388,o),
(582,404,cs),
(582,425,o),
(578,445,o),
(575,454,c),
(473,454,l),
(498,623,l),
(489,627,o),
(468,630,o),
(445,630,cs),
(427,630,o),
(408,628,o),
(393,623,c),
(371,454,l),
(270,454,l),
(295,623,l),
(286,627,o),
(265,630,o),
(242,630,cs),
(224,630,o),
(205,628,o),
(190,623,c),
(168,454,l),
(29,454,l),
(25,445,o),
(22,427,o),
(22,406,cs),
(22,390,o),
(24,373,o),
(29,361,c),
(156,361,l),
(141,259,l),
(29,259,l),
(25,250,o),
(22,230,o),
(22,209,cs),
(22,193,o),
(24,176,o),
(29,164,c),
(127,164,l),
(102,-3,l),
(115,-8,o),
(132,-10,o),
(149,-10,cs)
);
},
{
closed = 1;
nodes = (
(257,361,l),
(359,361,l),
(344,257,l),
(242,257,l)
);
}
);
userData = {
com.hugojourdan.ColorFlow = {
"0" = 0;
"1" = 0;
"10" = 0;
"11" = 0;
"2" = 0;
"3" = 0;
"4" = 0;
"5" = 0;
"6" = 0;
"7" = 0;
"8" = 0;
"9" = 0;
};
};
width = 609;
}
);
note = numbersign;
unicode = 35;
},
{
color = 4;
glyphname = slash;
lastChange = "2026-04-14 15:25:22 +0000";
layers = (
{
layerId = m01;
shapes = (
{
closed = 1;
nodes = (
(177,133,o),
(249,535,o),
(281,691,c),
(150,713,l),
(134,575,o),
(51,99,o),
(20,-33,c),
(149,-55,l)
);
}
);
userData = {
com.hugojourdan.ColorFlow = {
"0" = 0;
"1" = 0;
"10" = 0;
"11" = 0;
"2" = 0;
"3" = 0;
"4" = 0;
"5" = 0;
"6" = 0;
"7" = 0;
"8" = 0;
"9" = 0;
};
};
width = 287;
}
);
note = slash;
unicode = 47;
},
{
color = 4;
glyphname = backslash;
lastChange = "2026-04-14 15:25:22 +0000";
layers = (
{
layerId = m01;
shapes = (
{
closed = 1;
nodes = (
(267,-33,l),
(239,105,o),
(208,267,o),
(193,349,cs),
(179,431,o),
(148,635,o),
(137,713,c),
(6,691,l),
(27,589,o),
(62,397,o),
(74,330,cs),
(84,274,o),
(116,81,o),
(138,-55,c)
);
}
);
userData = {
com.hugojourdan.ColorFlow = {
"0" = 0;
"1" = 0;
"10" = 0;
"11" = 0;
"2" = 0;
"3" = 0;
"4" = 0;
"5" = 0;
"6" = 0;
"7" = 0;
"8" = 0;
"9" = 0;
};
};
width = 287;
}
);
note = backslash;
unicode = 92;
},
{
color = 4;
glyphname = hyphen;
lastChange = "2026-04-14 15:25:22 +0000";
layers = (
{
layerId = m01;
shapes = (
{
closed = 1;
nodes = (
(313,230,l),
(318,243,o),
(320,265,o),
(320,286,cs),
(320,315,o),
(316,344,o),
(313,354,c),
(48,354,l),
(44,344,o),
(41,316,o),
(41,288,cs),
(41,266,o),
(43,244,o),
(48,230,c)
);
}
);
userData = {
com.hugojourdan.ColorFlow = {
"0" = 0;
"1" = 0;
"10" = 0;
"11" = 0;
"2" = 0;
"3" = 0;
"4" = 0;
"5" = 0;
"6" = 0;
"7" = 0;
"8" = 0;
"9" = 0;
};
};
width = 360;
}
);
note = hyphen;
unicode = 45;
},
{
color = 4;
glyphname = endash;
lastChange = "2026-04-14 15:25:22 +0000";
layers = (
{
layerId = m01;
shapes = (
{
closed = 1;
nodes = (
(502,230,l),
(507,243,o),
(509,263,o),
(509,282,cs),
(509,308,o),
(505,334,o),
(502,344,c),
(8,344,l),
(4,334,o),
(1,310,o),
(1,284,cs),
(1,264,o),
(3,244,o),
(8,230,c)
);
}
);
userData = {
com.hugojourdan.ColorFlow = {
"0" = 0;
"1" = 0;
"10" = 0;
"11" = 0;
"2" = 0;
"3" = 0;
"4" = 0;
"5" = 0;
"6" = 0;
"7" = 0;
"8" = 0;
"9" = 0;
};
};
width = 509;
}
);
note = endash;
unicode = 8211;
},
{
color = 4;
glyphname = emdash;
lastChange = "2026-04-14 15:25:22 +0000";
layers = (
{
layerId = m01;
shapes = (
{
closed = 1;
nodes = (
(995,230,l),
(1000,243,o),
(1002,263,o),
(1002,282,cs),
(1002,308,o),
(998,334,o),
(995,344,c),
(8,344,l),
(4,334,o),
(1,310,o),
(1,284,cs),
(1,264,o),
(3,244,o),
(8,230,c)
);
}
);
userData = {
com.hugojourdan.ColorFlow = {
"0" = 0;
"1" = 0;
"10" = 0;
"11" = 0;
"2" = 0;
"3" = 0;
"4" = 0;
"5" = 0;
"6" = 0;
"7" = 0;
"8" = 0;
"9" = 0;
};
};
width = 1002;
}
);
note = emdash;
unicode = 8212;
},
{
color = 4;
glyphname = underscore;
lastChange = "2026-04-14 15:25:22 +0000";
layers = (
{
layerId = m01;
shapes = (
{
closed = 1;
nodes = (
(47,-110,o),
(195,-108,o),
(232,-108,cs),
(256,-108,o),
(401,-108,o),
(453,-110,c),
(453,-11,l),
(408,-12,o),
(270,-13,o),
(233,-13,cs),
(203,-13,o),
(46,-13,o),
(10,-11,c),
(10,-110,l)
);
}
);
userData = {
com.hugojourdan.ColorFlow = {
"0" = 0;
"1" = 0;
"10" = 0;
"11" = 0;
"2" = 0;
"3" = 0;
"4" = 0;
"5" = 0;
"6" = 0;
"7" = 0;
"8" = 0;
"9" = 0;
};
};
width = 463;
}
);
note = underscore;
unicode = 95;
},
{
color = 4;
glyphname = parenleft;
lastChange = "2026-04-14 15:25:22 +0000";
layers = (
{
layerId = m01;
shapes = (
{
closed = 1;
nodes = (
(194,-153,o),
(230,-140,o),
(258,-112,c),
(198,23,o),
(162,152,o),
(162,293,cs),
(162,431,o),
(198,569,o),
(259,704,c),
(231,732,o),
(194,745,o),
(149,754,c),
(72,611,o),
(35,440,o),
(35,283,cs),
(35,126,o),
(67,-17,o),
(149,-162,c)
);
}
);
userData = {
com.hugojourdan.ColorFlow = {
"0" = 0;
"1" = 0;
"10" = 0;
"11" = 0;
"2" = 0;
"3" = 0;
"4" = 0;
"5" = 0;
"6" = 0;
"7" = 0;
"8" = 0;
"9" = 0;
};
};
width = 264;
}
);
note = parenleft;
unicode = 40;
},
{
color = 4;
glyphname = parenright;
lastChange = "2026-04-14 15:25:22 +0000";
layers = (
{
layerId = m01;
shapes = (
{
closed = 1;
nodes = (
(202,-17,o),
(234,126,o),
(234,283,cs),
(234,440,o),
(197,611,o),
(120,754,c),
(75,745,o),
(38,732,o),
(10,704,c),
(71,569,o),
(107,431,o),
(107,293,cs),
(107,152,o),
(71,23,o),
(11,-112,c),
(39,-140,o),
(75,-153,o),
(120,-162,c)
);
}
);
userData = {
com.hugojourdan.ColorFlow = {
"0" = 0;
"1" = 0;
"10" = 0;
"11" = 0;
"2" = 0;
"3" = 0;
"4" = 0;
"5" = 0;
"6" = 0;
"7" = 0;
"8" = 0;
"9" = 0;
};
};
width = 269;
}
);
note = parenright;
unicode = 41;
},
{
color = 4;
glyphname = braceleft;
lastChange = "2026-04-14 15:25:22 +0000";
layers = (
{
layerId = m01;
shapes = (
{
closed = 1;
nodes = (
(251,-112,o),
(274,-95,o),
(274,-42,cs),
(274,-32,o),
(273,-23,o),
(270,-14,c),
(220,-20,l),
(220,30,o),
(221,161,o),
(221,204,cs),
(221,260,o),
(203,296,o),
(179,309,c),
(203,323,o),
(221,358,o),
(221,414,cs),
(221,457,o),
(220,588,o),
(220,638,c),
(270,632,l),
(273,641,o),
(274,650,o),
(274,660,cs),
(274,713,o),
(251,730,o),
(179,730,cs),
(115,730,o),
(105,711,o),
(105,643,cs),
(105,471,ls),
(105,385,o),
(96,364,o),
(38,364,c),
(25,331,o),
(31,271,o),
(37,254,c),
(38,254,ls),
(96,254,o),
(105,233,o),
(105,147,cs),
(105,-25,ls),
(105,-93,o),
(115,-112,o),
(179,-112,cs)
);
}
);
userData = {
com.hugojourdan.ColorFlow = {
"0" = 0;
"1" = 0;
"10" = 0;
"11" = 0;
"2" = 0;
"3" = 0;
"4" = 0;
"5" = 0;
"6" = 0;
"7" = 0;
"8" = 0;
"9" = 0;
};
};
width = 294;
}
);
note = braceleft;
unicode = 123;
},
{
color = 4;
glyphname = braceright;
lastChange = "2026-04-14 15:25:22 +0000";
layers = (
{
layerId = m01;
shapes = (
{
closed = 1;
nodes = (
(179,-112,o),
(189,-93,o),
(189,-25,cs),
(189,147,ls),
(189,233,o),
(198,254,o),
(256,254,c),
(269,287,o),
(263,347,o),
(257,364,c),
(256,364,ls),
(198,364,o),
(189,385,o),
(189,471,cs),
(189,643,ls),
(189,711,o),
(179,730,o),
(115,730,cs),
(43,730,o),
(20,713,o),
(20,660,cs),
(20,650,o),
(21,641,o),
(24,632,c),
(74,638,l),
(74,588,o),
(73,457,o),
(73,414,cs),
(73,358,o),
(91,322,o),
(115,309,c),
(91,295,o),
(73,260,o),
(73,204,cs),
(73,161,o),
(74,30,o),
(74,-20,c),
(24,-14,l),
(21,-23,o),
(20,-32,o),
(20,-42,cs),
(20,-95,o),
(43,-112,o),
(115,-112,cs)
);
}
);
userData = {
com.hugojourdan.ColorFlow = {
"0" = 0;
"1" = 0;
"10" = 0;
"11" = 0;
"2" = 0;
"3" = 0;
"4" = 0;
"5" = 0;
"6" = 0;
"7" = 0;
"8" = 0;
"9" = 0;
};
};
width = 294;
}
);
note = braceright;
unicode = 125;
},
{
color = 4;
glyphname = bracketleft;
lastChange = "2026-04-14 15:25:22 +0000";
layers = (
{
layerId = m01;
shapes = (
{
closed = 1;
nodes = (
(236,-163,l),
(236,-69,l),
(136,-69,l),
(136,659,l),
(236,659,l),
(236,753,l),
(15,753,l),
(15,718,o),
(19,414,o),
(19,341,cs),
(19,278,o),
(15,-120,o),
(15,-163,c)
);
}
);
userData = {
com.hugojourdan.ColorFlow = {
"0" = 0;
"1" = 0;
"10" = 0;
"11" = 0;
"2" = 0;
"3" = 0;
"4" = 0;
"5" = 0;
"6" = 0;
"7" = 0;
"8" = 0;
"9" = 0;
};
};
width = 241;
}
);
note = bracketleft;
unicode = 91;
},
{
color = 4;
glyphname = bracketright;
lastChange = "2026-04-14 15:25:22 +0000";
layers = (
{
layerId = m01;
shapes = (
{
closed = 1;
nodes = (
(226,-163,l),
(226,-128,o),
(222,176,o),
(222,249,cs),
(222,312,o),
(226,710,o),
(226,753,c),
(5,753,l),
(5,659,l),
(103,659,l),
(103,-69,l),
(5,-69,l),
(5,-163,l)
);
}
);
userData = {
com.hugojourdan.ColorFlow = {
"0" = 0;
"1" = 0;
"10" = 0;
"11" = 0;
"2" = 0;
"3" = 0;
"4" = 0;
"5" = 0;
"6" = 0;
"7" = 0;
"8" = 0;
"9" = 0;
};
};
width = 241;
}
);
note = bracketright;
unicode = 93;
},
{
color = 4;
glyphname = quotesinglbase;
lastChange = "2026-04-14 15:25:22 +0000";
layers = (
{
layerId = m01;
shapes = (
{
closed = 1;
nodes = (
(110,-58,o),
(135,5,o),
(135,46,cs),
(135,86,o),
(110,122,o),
(71,122,cs),
(32,122,o),
(8,87,o),
(8,51,cs),
(8,25,o),
(20,-1,o),
(46,-6,c),
(46,-8,o),
(35,-52,o),
(24,-81,c),
(87,-101,l)
);
}
);
userData = {
com.hugojourdan.ColorFlow = {
"0" = 0;
"1" = 0;
"10" = 0;
"11" = 0;
"2" = 0;
"3" = 0;
"4" = 0;
"5" = 0;
"6" = 0;
"7" = 0;
"8" = 0;
"9" = 0;
};
};
width = 161;
}
);
note = quotesinglbase;
unicode = 8218;
},
{
color = 4;
glyphname = quoteright;
lastChange = "2026-04-14 15:25:22 +0000";
layers = (
{
layerId = m01;
shapes = (
{
closed = 1;
nodes = (
(161,534,o),
(184,580,o),
(184,614,cs),
(184,672,o),
(117,708,o),
(64,708,c),
(30,478,l),
(38,465,o),
(93,441,o),
(125,440,c)
);
}
);
userData = {
com.hugojourdan.ColorFlow = {
"0" = 0;
"1" = 0;
"10" = 0;
"11" = 0;
"2" = 0;
"3" = 0;
"4" = 0;
"5" = 0;
"6" = 0;
"7" = 0;
"8" = 0;
"9" = 0;
};
};
width = 201;
}
);
note = quoteright;
unicode = 8217;
},
{
color = 4;
glyphname = guilsinglleft;
lastChange = "2026-04-14 15:25:22 +0000";
layers = (
{
layerId = m01;
shapes = (
{
closed = 1;
nodes = (
(226,61,o),
(252,77,o),
(271,92,c),
(153,256,l),
(154,256,l),
(272,420,l),
(253,435,o),
(224,451,o),
(197,451,cs),
(140,451,o),
(95,379,o),
(20,257,c),
(100,134,o),
(148,61,o),
(201,61,cs)
);
}
);
userData = {
com.hugojourdan.ColorFlow = {
"0" = 0;
"1" = 0;
"10" = 0;
"11" = 0;
"2" = 0;
"3" = 0;
"4" = 0;
"5" = 0;
"6" = 0;
"7" = 0;
"8" = 0;
"9" = 0;
};
};
width = 302;
}
);
note = guilsinglleft;
unicode = 8249;
},
{
color = 4;
glyphname = quotesingle;
lastChange = "2026-04-14 15:25:22 +0000";
layers = (
{
layerId = m01;
shapes = (
{
closed = 1;
nodes = (
(142,608,l),
(135,609,o),
(128,609,o),
(120,609,cs),
(91,609,o),
(60,605,o),
(45,602,c),
(51,419,l),
(73,414,o),
(81,415,o),
(129,414,c)
);
}
);
userData = {
com.hugojourdan.ColorFlow = {
"0" = 0;
"1" = 0;
"10" = 0;
"11" = 0;
"2" = 0;
"3" = 0;
"4" = 0;
"5" = 0;
"6" = 0;
"7" = 0;
"8" = 0;
"9" = 0;
};
};
width = 187;
}
);
note = quotesingle;
unicode = 39;
},
{
color = 4;
glyphname = florin;
lastChange = "2026-04-14 15:25:22 +0000";
layers = (
{
layerId = m01;
shapes = (
{
closed = 1;
nodes = (
(124,-110,o),
(179,-61,o),
(193,56,cs),
(225,327,l),
(298,327,l),
(309,412,l),
(237,412,l),
(243,465,ls),
(249,507,o),
(257,523,o),
(288,523,cs),
(296,523,o),
(310,522,o),
(322,520,c),
(335,542,o),
(348,584,o),
(352,603,c),
(330,618,o),
(304,628,o),
(269,628,cs),
(193,628,o),
(140,579,o),
(126,462,cs),
(120,412,l),
(67,412,l),
(56,327,l),
(109,327,l),
(76,53,ls),
(70,11,o),
(61,-5,o),
(30,-5,cs),
(21,-5,o),
(9,-4,o),
(-2,-2,c),
(-14,-24,o),
(-27,-66,o),
(-31,-85,c),
(-9,-100,o),
(18,-110,o),
(51,-110,cs)
);
}
);
userData = {
com.hugojourdan.ColorFlow = {
"0" = 0;
"1" = 0;
"10" = 0;
"11" = 0;
"2" = 0;
"3" = 0;
"4" = 0;
"5" = 0;
"6" = 0;
"7" = 0;
"8" = 0;
"9" = 0;
};
};
width = 332;
}
);
note = florin;
unicode = 402;
},
{
color = 4;
glyphname = at;
lastChange = "2026-04-14 15:25:22 +0000";
layers = (
{
layerId = m01;
shapes = (
{
closed = 1;
nodes = (
(349,-114,o),
(405,-95,o),
(428,-77,c),
(425,-46,o),
(415,-26,o),
(405,-4,c),
(377,-17,o),
(339,-25,o),
(304,-25,cs),
(172,-25,o),
(138,85,o),
(138,262,cs),
(138,423,o),
(183,540,o),
(351,540,cs),
(433,540,o),
(502,515,o),
(543,475,c),
(543,125,l),
(533,121,o),
(521,118,o),
(509,118,cs),
(498,118,o),
(488,121,o),
(481,125,c),
(479,154,o),
(479,158,o),
(479,176,cs),
(479,211,o),
(485,417,o),
(485,435,c),
(456,451,o),
(413,465,o),
(358,465,cs),
(262,465,o),
(213,425,o),
(213,243,cs),
(213,71,o),
(257,37,o),
(314,37,cs),
(336,37,o),
(374,52,o),
(388,77,c),
(410,43,o),
(448,37,o),
(496,37,cs),
(551,37,o),
(598,46,o),
(639,67,c),
(638,163,o),
(638,243,o),
(638,307,cs),
(638,436,o),
(639,504,o),
(639,515,c),
(604,569,o),
(492,630,o),
(354,630,cs),
(112,630,o),
(35,495,o),
(35,258,cs),
(35,45,o),
(96,-114,o),
(279,-114,cs)
);
},
{
closed = 1;
nodes = (
(336,126,o),
(316,127,o),
(316,237,cs),
(316,355,o),
(322,375,o),
(359,375,cs),
(371,375,o),
(379,370,o),
(382,366,c),
(382,131,l),
(376,128,o),
(367,126,o),
(356,126,cs)
);
}
);
userData = {
com.hugojourdan.ColorFlow = {
"0" = 0;
"1" = 0;
"10" = 0;
"11" = 0;
"2" = 0;
"3" = 0;
"4" = 0;
"5" = 0;
"6" = 0;
"7" = 0;
"8" = 0;
"9" = 0;
};
};
width = 684;
}
);
note = at;
unicode = 64;
},
{
color = 4;
glyphname = ampersand;
lastChange = "2026-04-14 15:25:22 +0000";
layers = (
{
layerId = m01;
shapes = (
{
closed = 1;
nodes = (
(345,-9,o),
(387,73,o),
(392,165,c),
(443,176,l),
(436,209,o),
(419,272,o),
(372,272,cs),
(351,272,o),
(309,259,o),
(214,209,c),
(218,183,o),
(236,146,o),
(252,134,c),
(286,141,l),
(273,105,o),
(245,94,o),
(220,94,cs),
(179,94,o),
(147,124,o),
(147,179,cs),
(147,235,o),
(181,274,o),
(241,281,c),
(241,358,l),
(185,368,o),
(156,401,o),
(156,446,cs),
(156,488,o),
(181,511,o),
(218,511,cs),
(231,511,o),
(243,509,o),
(253,506,c),
(256,433,l),
(269,430,o),
(286,429,o),
(298,429,cs),
(353,429,o),
(364,452,o),
(364,500,c),
(359,589,l),
(322,611,o),
(285,632,o),
(219,632,cs),
(109,632,o),
(47,570,o),
(47,469,cs),
(47,399,o),
(78,343,o),
(102,316,c),
(68,279,o),
(35,238,o),
(35,167,cs),
(35,80,o),
(84,-9,o),
(217,-9,cs)
);
}
);
userData = {
com.hugojourdan.ColorFlow = {
"0" = 0;
"1" = 0;
"10" = 0;
"11" = 0;
"2" = 0;
"3" = 0;
"4" = 0;
"5" = 0;
"6" = 0;
"7" = 0;
"8" = 0;
"9" = 0;
};
};
width = 459;
}
);
note = ampersand;
unicode = 38;
},
{
color = 4;
glyphname = paragraph;
lastChange = "2026-04-14 15:25:22 +0000";
layers = (
{
layerId = m01;
shapes = (
{
closed = 1;
nodes = (
(294,-60,o),
(362,-28,o),
(362,214,cs),
(362,621,l),
(191,621,ls),
(93,621,o),
(10,579,o),
(10,446,cs),
(10,296,o),
(109,259,o),
(197,259,c),
(197,530,l),
(251,530,l),
(251,209,ls),
(251,88,o),
(241,40,o),
(200,40,cs),
(179,40,o),
(154,42,o),
(131,46,c),
(126,30,o),
(117,-18,o),
(116,-37,c),
(148,-52,o),
(177,-60,o),
(215,-60,cs)
);
}
);
userData = {
com.hugojourdan.ColorFlow = {
"0" = 0;
"1" = 0;
"10" = 0;
"11" = 0;
"2" = 0;
"3" = 0;
"4" = 0;
"5" = 0;
"6" = 0;
"7" = 0;
"8" = 0;
"9" = 0;
};
};
width = 371;
}
);
note = paragraph;
unicode = 182;
},
{
color = 4;
glyphname = section;
lastChange = "2026-04-14 15:25:22 +0000";
layers = (
{
layerId = m01;
shapes = (
{
closed = 1;
nodes = (
(266,-109,o),
(306,-41,o),
(306,36,cs),
(306,92,o),
(284,127,o),
(257,151,c),
(299,172,o),
(321,209,o),
(321,259,cs),
(321,418,o),
(149,403,o),
(149,480,cs),
(149,501,o),
(165,514,o),
(191,514,cs),
(217,514,o),
(243,502,o),
(265,490,c),
(280,515,o),
(295,558,o),
(299,591,c),
(273,614,o),
(236,630,o),
(185,630,cs),
(71,630,o),
(32,547,o),
(32,473,cs),
(32,421,o),
(51,386,o),
(76,360,c),
(36,335,o),
(17,296,o),
(17,245,cs),
(17,89,o),
(192,97,o),
(192,32,cs),
(192,16,o),
(184,1,o),
(163,1,cs),
(137,1,o),
(106,12,o),
(81,31,c),
(60,4,o),
(44,-39,o),
(41,-57,c),
(84,-93,o),
(123,-109,o),
(169,-109,cs)
);
},
{
closed = 1;
nodes = (
(149,214,o),
(134,229,o),
(134,258,cs),
(134,277,o),
(141,299,o),
(153,311,c),
(182,297,o),
(207,284,o),
(207,255,cs),
(207,229,o),
(196,206,o),
(170,202,c)
);
}
);
userData = {
com.hugojourdan.ColorFlow = {
"0" = 0;
"1" = 0;
"10" = 0;
"11" = 0;
"2" = 0;
"3" = 0;
"4" = 0;
"5" = 0;
"6" = 0;
"7" = 0;
"8" = 0;
"9" = 0;
};
};
width = 336;
}
);
note = section;
unicode = 167;
},
{
color = 4;
glyphname = copyright;
lastChange = "2026-04-14 15:25:22 +0000";
layers = (
{
layerId = m01;
shapes = (
{
closed = 1;
nodes = (
(444,-11,o),
(529,117,o),
(529,277,cs),
(529,436,o),
(444,566,o),
(288,566,cs),
(131,566,o),
(48,436,o),
(48,277,cs),
(48,117,o),
(131,-11,o),
(288,-11,cs)
);
},
{
closed = 1;
nodes = (
(315,109,o),
(343,116,o),
(365,126,c),
(364,139,o),
(358,175,o),
(355,185,c),
(334,183,o),
(313,179,o),
(297,179,cs),
(272,179,o),
(258,205,o),
(258,284,cs),
(258,349,o),
(269,371,o),
(304,371,cs),
(314,371,o),
(330,369,o),
(345,364,c),
(351,380,o),
(359,411,o),
(360,430,c),
(342,438,o),
(316,445,o),
(283,445,cs),
(221,445,o),
(182,421,o),
(180,287,cs),
(176,130,o),
(235,109,o),
(286,109,cs)
);
},
{
closed = 1;
nodes = (
(175,66,o),
(129,160,o),
(129,277,cs),
(129,395,o),
(175,489,o),
(288,489,cs),
(402,489,o),
(448,395,o),
(448,277,cs),
(448,160,o),
(402,66,o),
(288,66,cs)
);
}
);
userData = {
com.hugojourdan.ColorFlow = {
"0" = 0;
"1" = 0;
"10" = 0;
"11" = 0;
"2" = 0;
"3" = 0;
"4" = 0;
"5" = 0;
"6" = 0;
"7" = 0;
"8" = 0;
"9" = 0;
};
};
width = 577;
}
);
note = copyright;
unicode = 169;
},
{
color = 4;
glyphname = registered;
lastChange = "2026-04-14 15:25:22 +0000";
layers = (
{
layerId = m01;
shapes = (
{
closed = 1;
nodes = (
(243,335,o),
(289,403,o),
(289,488,cs),
(289,573,o),
(243,642,o),
(160,642,cs),
(77,642,o),
(33,573,o),
(33,488,cs),
(33,403,o),
(77,335,o),
(160,335,cs)
);
},
{
closed = 1;
nodes = (
(100,377,o),
(76,426,o),
(76,488,cs),
(76,551,o),
(100,600,o),
(160,600,cs),
(221,600,o),
(246,551,o),
(246,488,cs),
(246,426,o),
(221,377,o),
(160,377,cs)
);
},
{
closed = 1;
nodes = (
(208,408,o),
(216,414,o),
(218,417,c),
(194,468,l),
(203,476,o),
(213,498,o),
(213,520,cs),
(213,546,o),
(206,569,o),
(166,569,cs),
(148,569,o),
(126,568,o),
(115,566,c),
(115,552,o),
(116,514,o),
(116,495,cs),
(116,469,o),
(115,439,o),
(115,411,c),
(156,411,l),
(156,448,l),
(164,448,l),
(171,425,ls),
(175,411,o),
(189,408,o),
(199,408,cs)
);
},
{
closed = 1;
nodes = (
(156,533,l),
(161,534,o),
(163,534,o),
(166,534,cs),
(170,534,o),
(172,532,o),
(172,510,cs),
(172,498,o),
(170,482,o),
(156,480,c)
);
}
);
userData = {
com.hugojourdan.ColorFlow = {
"0" = 0;
"1" = 0;
"10" = 0;
"11" = 0;
"2" = 0;
"3" = 0;
"4" = 0;
"5" = 0;
"6" = 0;
"7" = 0;
"8" = 0;
"9" = 0;
};
};
width = 318;
}
);
note = registered;
unicode = 174;
},
{
color = 4;
glyphname = trademark;
lastChange = "2026-04-14 15:25:22 +0000";
layers = (
{
layerId = m01;
shapes = (
{
closed = 1;
nodes = (
(284,308,l),
(284,473,l),
(288,473,l),
(326,328,l),
(329,327,o),
(339,327,o),
(347,327,cs),
(356,327,o),
(367,327,o),
(369,328,c),
(407,473,l),
(411,473,l),
(411,308,l),
(477,308,l),
(475,412,o),
(470,585,o),
(468,620,c),
(445,622,o),
(411,623,o),
(382,623,c),
(347,451,l),
(313,623,l),
(279,623,o),
(252,622,o),
(226,620,c),
(223,581,o),
(218,412,o),
(215,308,c)
);
},
{
closed = 1;
nodes = (
(146,308,l),
(144,379,o),
(144,438,o),
(144,466,cs),
(144,484,o),
(144,519,o),
(145,549,c),
(200,549,l),
(206,569,o),
(203,609,o),
(200,620,c),
(14,620,l),
(11,609,o),
(8,569,o),
(14,549,c),
(69,549,l),
(69,522,o),
(70,485,o),
(70,466,cs),
(70,420,o),
(70,379,o),
(68,308,c)
);
}
);
userData = {
com.hugojourdan.ColorFlow = {
"0" = 0;
"1" = 0;
"10" = 0;
"11" = 0;
"2" = 0;
"3" = 0;
"4" = 0;
"5" = 0;
"6" = 0;
"7" = 0;
"8" = 0;
"9" = 0;
};
};
width = 487;
}
);
note = trademark;
unicode = 8482;
},
{
color = 4;
glyphname = degree;
lastChange = "2026-04-14 15:25:22 +0000";
layers = (
{
layerId = m01;
shapes = (
{
closed = 1;
nodes = (
(199,418,o),
(247,474,o),
(247,541,cs),
(247,608,o),
(199,665,o),
(135,665,cs),
(71,665,o),
(24,608,o),
(24,541,cs),
(24,474,o),
(71,418,o),
(135,418,cs)
);
},
{
closed = 1;
nodes = (
(110,485,o),
(91,511,o),
(91,541,cs),
(91,571,o),
(109,598,o),
(135,598,cs),
(161,598,o),
(180,571,o),
(180,541,cs),
(180,511,o),
(160,485,o),
(135,485,cs)
);
}
);
userData = {
com.hugojourdan.ColorFlow = {
"0" = 0;
"1" = 0;
"10" = 0;
"11" = 0;
"2" = 0;
"3" = 0;
"4" = 0;
"5" = 0;
"6" = 0;
"7" = 0;
"8" = 0;
"9" = 0;
};
};
width = 271;
}
);
note = degree;
unicode = 176;
},
{
color = 4;
glyphname = bar;
lastChange = "2026-04-14 15:25:22 +0000";
layers = (
{
layerId = m01;
shapes = (
{
closed = 1;
nodes = (
(191,-110,l),
(191,-48,o),
(185,242,o),
(185,339,cs),
(185,427,o),
(191,650,o),
(193,707,c),
(80,707,l),
(82,647,o),
(84,414,o),
(84,341,cs),
(84,279,o),
(80,-48,o),
(80,-110,c)
);
}
);
userData = {
com.hugojourdan.ColorFlow = {
"0" = 0;
"1" = 0;
"10" = 0;
"11" = 0;
"2" = 0;
"3" = 0;
"4" = 0;
"5" = 0;
"6" = 0;
"7" = 0;
"8" = 0;
"9" = 0;
};
};
width = 273;
}
);
note = bar;
unicode = 124;
},
{
color = 4;
glyphname = brokenbar;
lastChange = "2026-04-14 15:25:22 +0000";
layers = (
{
background = {
shapes = (
{
closed = 1;
nodes = (
(185,354,l),
(186,456,o),
(193,707,o),
(193,707,c),
(80,708,l),
(80,708,o),
(84,442,o),
(84,354,c)
);
},
{
closed = 1;
nodes = (
(191,-110,l),
(191,-110,o),
(188,90,o),
(186,230,c),
(83,230,l),
(82,94,o),
(80,-110,o),
(80,-110,c)
);
}
);
};
layerId = m01;
shapes = (
{
closed = 1;
nodes = (
(191,-110,l),
(191,-64,o),
(188,106,o),
(186,231,c),
(83,231,l),
(82,109,o),
(80,-66,o),
(80,-110,c)
);
},
{
closed = 1;
nodes = (
(185,356,l),
(186,453,o),
(191,653,o),
(193,707,c),
(80,707,l),
(82,651,o),
(84,442,o),
(84,356,c)
);
}
);
userData = {
com.hugojourdan.ColorFlow = {
"0" = 0;
"1" = 0;
"10" = 0;
"11" = 0;
"2" = 0;
"3" = 0;
"4" = 0;
"5" = 0;
"6" = 0;
"7" = 0;
"8" = 0;
"9" = 0;
};
};
width = 273;
}
);
note = brokenbar;
unicode = 166;
},
{
color = 4;
glyphname = dagger;
lastChange = "2026-04-14 15:25:22 +0000";
layers = (
{
layerId = m01;
shapes = (
{
closed = 1;
nodes = (
(206,-110,l),
(205,-48,o),
(200,242,o),
(200,339,cs),
(200,386,l),
(286,386,l),
(291,399,o),
(293,417,o),
(293,434,cs),
(293,458,o),
(289,480,o),
(286,490,c),
(203,490,l),
(205,556,o),
(206,590,o),
(208,629,c),
(85,629,l),
(85,590,o),
(86,559,o),
(87,490,c),
(8,490,l),
(4,480,o),
(1,459,o),
(1,436,cs),
(1,418,o),
(3,400,o),
(8,386,c),
(89,386,l),
(89,341,ls),
(89,284,o),
(86,-48,o),
(85,-110,c)
);
}
);
userData = {
com.hugojourdan.ColorFlow = {
"0" = 0;
"1" = 0;
"10" = 0;
"11" = 0;
"2" = 0;
"3" = 0;
"4" = 0;
"5" = 0;
"6" = 0;
"7" = 0;
"8" = 0;
"9" = 0;
};
};
width = 293;
}
);
note = dagger;
unicode = 8224;
},
{
color = 4;
glyphname = daggerdbl;
lastChange = "2026-04-14 15:25:22 +0000";
layers = (
{
layerId = m01;
shapes = (
{
closed = 1;
nodes = (
(206,-110,l),
(204,-73,o),
(204,-61,o),
(204,0,c),
(286,0,l),
(291,13,o),
(293,31,o),
(293,48,cs),
(293,72,o),
(289,94,o),
(286,104,c),
(202,104,l),
(201,197,o),
(200,294,o),
(200,339,cs),
(200,396,l),
(286,396,l),
(291,409,o),
(293,427,o),
(293,444,cs),
(293,468,o),
(289,490,o),
(286,500,c),
(203,500,l),
(205,565,o),
(207,595,o),
(208,629,c),
(85,629,l),
(85,595,o),
(86,567,o),
(87,500,c),
(8,500,l),
(4,490,o),
(1,469,o),
(1,446,cs),
(1,428,o),
(3,410,o),
(8,396,c),
(89,396,l),
(89,341,ls),
(89,310,o),
(88,205,o),
(87,104,c),
(8,104,l),
(4,94,o),
(1,73,o),
(1,50,cs),
(1,32,o),
(3,14,o),
(8,0,c),
(86,0,l),
(86,-61,o),
(86,-73,o),
(85,-110,c)
);
}
);
userData = {
com.hugojourdan.ColorFlow = {
"0" = 0;
"1" = 0;
"10" = 0;
"11" = 0;
"2" = 0;
"3" = 0;
"4" = 0;
"5" = 0;
"6" = 0;
"7" = 0;
"8" = 0;
"9" = 0;
};
};
width = 293;
}
);
note = daggerdbl;
unicode = 8225;
},
{
color = 4;
glyphname = registered.alt;
lastChange = "2026-04-14 15:25:22 +0000";
layers = (
{
layerId = m01;
shapes = (
{
closed = 1;
nodes = (
(244,341,o),
(281,405,o),
(281,485,cs),
(281,566,o),
(244,630,o),
(167,630,cs),
(91,630,o),
(54,566,o),
(54,485,cs),
(54,405,o),
(91,341,o),
(167,341,cs)
);
},
{
closed = 1;
nodes = (
(199,381,o),
(183,385,o),
(179,403,cs),
(171,433,l),
(162,433,l),
(162,385,l),
(117,385,l),
(117,413,o),
(118,460,o),
(118,494,cs),
(118,518,o),
(117,575,o),
(117,586,c),
(129,588,o),
(154,590,o),
(173,590,cs),
(217,590,o),
(225,560,o),
(225,526,cs),
(225,498,o),
(214,469,o),
(204,459,c),
(231,393,l),
(228,389,o),
(222,381,o),
(210,381,cs)
);
},
{
closed = 1;
nodes = (
(178,477,o),
(180,498,o),
(180,513,cs),
(180,542,o),
(178,544,o),
(173,544,cs),
(170,544,o),
(166,544,o),
(162,542,c),
(162,475,l)
);
}
);
userData = {
com.hugojourdan.ColorFlow = {
"0" = 0;
"1" = 0;
"10" = 0;
"11" = 0;
"2" = 0;
"3" = 0;
"4" = 0;
"5" = 0;
"6" = 0;
"7" = 0;
"8" = 0;
"9" = 0;
};
};
width = 349;
}
);
note = registered.alt;
},
{
color = 4;
glyphname = cent;
lastChange = "2026-04-14 15:25:22 +0000";
layers = (
{
layerId = m01;
shapes = (
{
closed = 1;
nodes = (
(250,-12,l),
(248,10,o),
(246,34,o),
(244,68,c),
(266,72,o),
(288,78,o),
(307,87,c),
(306,106,o),
(297,162,o),
(292,178,c),
(263,174,o),
(239,172,o),
(223,172,cs),
(172,172,o),
(151,210,o),
(151,320,cs),
(151,415,o),
(167,446,o),
(219,446,cs),
(235,446,o),
(255,444,o),
(278,439,c),
(287,463,o),
(298,511,o),
(300,540,c),
(286,546,o),
(270,551,o),
(252,555,c),
(254,587,o),
(256,610,o),
(258,630,c),
(185,630,o),
(159,623,o),
(136,616,c),
(138,598,o),
(140,579,o),
(142,555,c),
(73,540,o),
(33,487,o),
(30,328,cs),
(26,157,o),
(74,94,o),
(134,73,c),
(132,34,o),
(130,6,o),
(128,-12,c)
);
}
);
userData = {
com.hugojourdan.ColorFlow = {
"0" = 0;
"1" = 0;
"10" = 0;
"11" = 0;
"2" = 0;
"3" = 0;
"4" = 0;
"5" = 0;
"6" = 0;
"7" = 0;
"8" = 0;
"9" = 0;
};
};
width = 319;
}
);
note = cent;
unicode = 162;
},
{
color = 4;
glyphname = currency;
lastChange = "2026-04-14 15:25:22 +0000";
layers = (
{
layerId = m01;
shapes = (
{
closed = 1;
nodes = (
(355,285,l),
(386,315,o),
(452,375,o),
(470,390,c),
(399,460,l),
(383,442,o),
(319,375,o),
(292,348,c)
);
},
{
closed = 1;
nodes = (
(340,88,o),
(411,160,o),
(411,249,cs),
(411,337,o),
(340,408,o),
(252,408,cs),
(163,408,o),
(91,337,o),
(91,249,cs),
(91,160,o),
(163,88,o),
(252,88,cs)
);
},
{
closed = 1;
nodes = (
(209,170,o),
(173,206,o),
(173,249,cs),
(173,291,o),
(209,326,o),
(252,326,cs),
(294,326,o),
(329,291,o),
(329,249,cs),
(329,206,o),
(294,170,o),
(252,170,cs)
);
},
{
closed = 1;
nodes = (
(292,149,l),
(322,118,o),
(382,52,o),
(397,35,c),
(468,105,l),
(449,121,o),
(382,185,o),
(356,212,c)
);
},
{
closed = 1;
nodes = (
(181,375,o),
(117,442,o),
(101,460,c),
(30,390,l),
(48,375,o),
(114,315,o),
(145,285,c),
(208,348,l)
);
},
{
closed = 1;
nodes = (
(118,185,o),
(51,121,o),
(32,105,c),
(103,35,l),
(118,52,o),
(178,118,o),
(208,149,c),
(144,212,l)
);
}
);
userData = {
com.hugojourdan.ColorFlow = {
"0" = 0;
"1" = 0;
"10" = 0;
"11" = 0;
"2" = 0;
"3" = 0;
"4" = 0;
"5" = 0;
"6" = 0;
"7" = 0;
"8" = 0;
"9" = 0;
};
};
width = 500;
}
);
unicode = 164;
},
{
color = 4;
glyphname = dollar;
lastChange = "2026-04-14 15:25:22 +0000";
layers = (
{
layerId = m01;
shapes = (
{
closed = 1;
nodes = (
(263,-88,l),
(261,-65,o),
(258,-26,o),
(257,1,c),
(322,26,o),
(352,93,o),
(352,161,cs),
(352,356,o),
(147,349,o),
(147,444,cs),
(147,478,o),
(173,507,o),
(225,507,cs),
(247,507,o),
(277,502,o),
(308,485,c),
(324,511,o),
(338,541,o),
(348,593,c),
(316,611,o),
(289,620,o),
(264,625,c),
(266,665,o),
(268,688,o),
(271,720,c),
(197,720,o),
(165,712,o),
(143,706,c),
(144,691,o),
(148,659,o),
(150,622,c),
(56,595,o),
(30,507,o),
(30,438,cs),
(30,236,o),
(232,252,o),
(232,159,cs),
(232,131,o),
(214,115,o),
(184,115,cs),
(156,115,o),
(118,129,o),
(87,156,c),
(68,131,o),
(50,88,o),
(43,54,c),
(74,28,o),
(107,8,o),
(141,-2,c),
(139,-31,o),
(137,-57,o),
(135,-88,c)
);
}
);
userData = {
com.hugojourdan.ColorFlow = {
"0" = 0;
"1" = 0;
"10" = 0;
"11" = 0;
"2" = 0;
"3" = 0;
"4" = 0;
"5" = 0;
"6" = 0;
"7" = 0;
"8" = 0;
"9" = 0;
};
};
width = 382;
}
);
note = dollar;
unicode = 36;
},
{
color = 4;
glyphname = euro;
lastChange = "2026-07-01 12:32:24 +0000";
layers = (
{
layerId = m01;
shapes = (
{
closed = 1;
nodes = (
(47,321,o),
(174,323,o),
(212,323,cs),
(239,323,o),
(323,321,o),
(353,321,c),
(365,353,o),
(359,403,o),
(353,420,c),
(337,419,o),
(249,418,o),
(213,418,cs),
(204,418,l),
(218,482,o),
(249,510,o),
(298,510,cs),
(317,510,o),
(339,506,o),
(369,499,c),
(389,527,o),
(403,569,o),
(409,600,c),
(365,624,o),
(315,630,o),
(277,630,cs),
(180,630,o),
(104,591,o),
(82,419,c),
(67,419,o),
(44,419,o),
(30,420,c),
(23,403,o),
(18,353,o),
(30,321,c)
);
},
{
closed = 1;
nodes = (
(323,-10,o),
(374,7,o),
(412,26,c),
(411,50,o),
(399,102,o),
(394,121,c),
(364,111,o),
(327,102,o),
(299,102,cs),
(255,102,o),
(234,123,o),
(216,173,c),
(247,173,o),
(334,171,o),
(353,171,c),
(365,203,o),
(359,253,o),
(353,270,c),
(332,269,o),
(248,268,o),
(213,268,cs),
(180,268,o),
(36,270,o),
(30,270,c),
(23,253,o),
(18,203,o),
(30,171,c),
(34,171,o),
(55,171,o),
(87,172,c),
(116,16,o),
(205,-10,o),
(270,-10,cs)
);
}
);
userData = {
com.hugojourdan.ColorFlow = {
"0" = 0;
"1" = 0;
"10" = 0;
"11" = 0;
"2" = 0;
"3" = 0;
"4" = 0;
"5" = 0;
"6" = 0;
"7" = 0;
"8" = 0;
"9" = 0;
};
};
width = 426;
}
);
note = Euro;
unicode = 8364;
},
{
color = 4;
glyphname = sterling;
lastChange = "2026-04-14 15:25:22 +0000";
layers = (
{
layerId = m01;
shapes = (
{
closed = 1;
nodes = (
(334,12,o),
(338,48,o),
(338,77,cs),
(338,89,o),
(337,99,o),
(336,107,c),
(195,111,l),
(195,213,l),
(231,214,o),
(271,215,o),
(307,215,c),
(312,228,o),
(314,247,o),
(314,264,cs),
(314,287,o),
(311,308,o),
(307,318,c),
(195,322,l),
(195,455,o),
(209,504,o),
(273,504,cs),
(286,504,o),
(304,502,o),
(328,495,c),
(339,525,o),
(349,572,o),
(352,608,c),
(319,623,o),
(285,630,o),
(249,630,cs),
(130,630,o),
(80,553,o),
(80,368,cs),
(80,319,l),
(43,318,l),
(39,308,o),
(36,287,o),
(36,265,cs),
(36,247,o),
(38,228,o),
(43,215,c),
(80,215,l),
(79,117,o),
(78,19,o),
(78,0,c),
(122,-1,o),
(255,-5,o),
(327,-5,c)
);
}
);
userData = {
com.hugojourdan.ColorFlow = {
"0" = 0;
"1" = 0;
"10" = 0;
"11" = 0;
"2" = 0;
"3" = 0;
"4" = 0;
"5" = 0;
"6" = 0;
"7" = 0;
"8" = 0;
"9" = 0;
};
};
width = 377;
}
);
note = sterling;
unicode = 163;
},
{
color = 4;
glyphname = yen;
lastChange = "2026-04-14 15:25:22 +0000";
layers = (
{
layerId = m01;
shapes = (
{
closed = 1;
nodes = (
(51,279,o),
(121,280,o),
(177,281,cs),
(212,281,ls),
(229,281,o),
(312,279,o),
(353,279,c),
(365,311,o),
(359,361,o),
(353,378,c),
(339,377,o),
(330,377,o),
(313,377,c),
(400,620,l),
(362,625,o),
(315,624,o),
(266,624,c),
(205,376,l),
(189,376,l),
(127,624,l),
(75,624,o),
(35,625,o),
(-6,620,c),
(78,377,l),
(61,377,o),
(45,378,o),
(30,378,c),
(23,361,o),
(18,311,o),
(30,279,c)
);
},
{
closed = 1;
nodes = (
(255,0,l),
(254,25,o),
(253,78,o),
(252,131,c),
(293,130,o),
(325,130,o),
(353,129,c),
(365,161,o),
(359,211,o),
(353,228,c),
(318,227,o),
(250,226,o),
(213,226,cs),
(180,226,o),
(62,228,o),
(30,228,c),
(23,211,o),
(18,161,o),
(30,129,c),
(55,129,o),
(95,129,o),
(137,130,c),
(136,74,o),
(135,30,o),
(134,0,c)
);
}
);
userData = {
com.hugojourdan.ColorFlow = {
"0" = 0;
"1" = 0;
"10" = 0;
"11" = 0;
"2" = 0;
"3" = 0;
"4" = 0;
"5" = 0;
"6" = 0;
"7" = 0;
"8" = 0;
"9" = 0;
};
};
width = 394;
}
);
note = yen;
unicode = 165;
},
{
color = 4;
glyphname = plus;
lastChange = "2026-04-14 15:25:22 +0000";
layers = (
{
layerId = m01;
shapes = (
{
closed = 1;
nodes = (
(253,107,o),
(271,109,o),
(285,114,c),
(285,138,o),
(284,195,o),
(283,248,c),
(335,248,o),
(385,247,o),
(411,246,c),
(416,259,o),
(418,278,o),
(418,296,cs),
(418,321,o),
(414,345,o),
(411,355,c),
(389,355,o),
(335,353,o),
(283,353,c),
(283,403,o),
(285,455,o),
(285,478,c),
(271,483,o),
(253,485,o),
(235,485,cs),
(210,485,o),
(186,481,o),
(176,478,c),
(176,455,o),
(177,403,o),
(178,353,c),
(124,353,o),
(75,354,o),
(48,355,c),
(44,345,o),
(41,322,o),
(41,298,cs),
(41,279,o),
(43,260,o),
(48,246,c),
(75,247,o),
(123,248,o),
(178,248,c),
(177,193,o),
(176,137,o),
(176,114,c),
(186,110,o),
(210,107,o),
(235,107,cs)
);
}
);
userData = {
com.hugojourdan.ColorFlow = {
"0" = 0;
"1" = 0;
"10" = 0;
"11" = 0;
"2" = 0;
"3" = 0;
"4" = 0;
"5" = 0;
"6" = 0;
"7" = 0;
"8" = 0;
"9" = 0;
};
};
width = 458;
}
);
note = plus;
unicode = 43;
},
{
color = 4;
glyphname = minus;
lastChange = "2026-04-14 15:25:22 +0000";
layers = (
{
layerId = m01;
shapes = (
{
closed = 1;
nodes = (
(53,238,o),
(175,239,o),
(210,239,cs),
(237,239,o),
(366,237,o),
(391,237,c),
(396,250,o),
(398,273,o),
(398,295,cs),
(398,325,o),
(394,356,o),
(391,366,c),
(379,366,o),
(247,364,o),
(211,364,cs),
(179,364,o),
(54,365,o),
(28,366,c),
(24,356,o),
(21,327,o),
(21,297,cs),
(21,274,o),
(23,251,o),
(28,237,c)
);
}
);
userData = {
com.hugojourdan.ColorFlow = {
"0" = 0;
"1" = 0;
"10" = 0;
"11" = 0;
"2" = 0;
"3" = 0;
"4" = 0;
"5" = 0;
"6" = 0;
"7" = 0;
"8" = 0;
"9" = 0;
};
};
width = 418;
}
);
note = minus;
unicode = 8722;
},
{
color = 4;
glyphname = multiply;
lastChange = "2026-04-14 15:25:22 +0000";
layers = (
{
background = {
shapes = (
{
closed = 1;
nodes = (
(112,120,o),
(161,174,o),
(201,215,c),
(241,174,o),
(291,120,o),
(291,120,c),
(322,135,o),
(375,195,o),
(383,212,c),
(383,212,o),
(329,261,o),
(288,301,c),
(328,341,o),
(383,391,o),
(383,391,c),
(368,422,o),
(308,475,o),
(291,483,c),
(291,483,o),
(242,428,o),
(201,387,c),
(161,428,o),
(112,483,o),
(112,483,c),
(95,475,o),
(35,422,o),
(20,391,c),
(20,391,o),
(74,341,o),
(115,301,c),
(74,261,o),
(20,212,o),
(20,212,c),
(28,195,o),
(81,135,o),
(112,120,c)
);
}
);
};
layerId = m01;
shapes = (
{
closed = 1;
nodes = (
(82,149,o),
(96,138,o),
(109,132,c),
(126,149,o),
(166,190,o),
(202,228,c),
(239,191,o),
(274,155,o),
(292,136,c),
(304,141,o),
(319,153,o),
(332,166,cs),
(350,184,o),
(364,204,o),
(369,213,c),
(353,228,o),
(314,265,o),
(277,302,c),
(312,337,o),
(350,373,o),
(367,389,c),
(360,402,o),
(349,417,o),
(336,429,cs),
(318,447,o),
(299,461,o),
(289,466,c),
(273,450,o),
(237,412,o),
(202,376,c),
(164,414,o),
(130,450,o),
(112,470,c),
(102,465,o),
(84,451,o),
(67,434,cs),
(53,421,o),
(41,406,o),
(35,392,c),
(55,374,o),
(89,341,o),
(128,302,c),
(89,264,o),
(48,225,o),
(32,209,c),
(36,199,o),
(51,180,o),
(69,162,cs)
);
}
);
userData = {
com.hugojourdan.ColorFlow = {
"0" = 0;
"1" = 0;
"10" = 0;
"11" = 0;
"2" = 0;
"3" = 0;
"4" = 0;
"5" = 0;
"6" = 0;
"7" = 0;
"8" = 0;
"9" = 0;
};
};
width = 403;
}
);
note = multiply;
unicode = 215;
},
{
color = 4;
glyphname = divide;
lastChange = "2026-04-14 15:25:22 +0000";
layers = (
{
layerId = m01;
shapes = (
{
closed = 1;
nodes = (
(275,20,o),
(309,53,o),
(309,96,cs),
(309,140,o),
(275,173,o),
(231,173,cs),
(189,173,o),
(156,140,o),
(156,96,cs),
(156,53,o),
(189,20,o),
(231,20,cs)
);
},
{
closed = 1;
nodes = (
(275,426,o),
(309,459,o),
(309,502,cs),
(309,546,o),
(275,579,o),
(231,579,cs),
(189,579,o),
(156,546,o),
(156,502,cs),
(156,459,o),
(189,426,o),
(231,426,cs)
);
},
{
closed = 1;
nodes = (
(72,238,o),
(194,239,o),
(229,239,cs),
(256,239,o),
(385,237,o),
(410,237,c),
(415,250,o),
(417,273,o),
(417,295,cs),
(417,325,o),
(413,356,o),
(410,366,c),
(398,366,o),
(266,364,o),
(230,364,cs),
(198,364,o),
(73,365,o),
(47,366,c),
(43,356,o),
(40,327,o),
(40,297,cs),
(40,274,o),
(42,251,o),
(47,237,c)
);
}
);
userData = {
com.hugojourdan.ColorFlow = {
"0" = 0;
"1" = 0;
"10" = 0;
"11" = 0;
"2" = 0;
"3" = 0;
"4" = 0;
"5" = 0;
"6" = 0;
"7" = 0;
"8" = 0;
"9" = 0;
};
};
width = 457;
}
);
note = divide;
unicode = 247;
},
